<?xml version="1.0" encoding="UTF-8" standalone="no"?>
<!DOCTYPE svg PUBLIC "-//W3C//DTD SVG 1.1//EN"
 "http://www.w3.org/Graphics/SVG/1.1/DTD/svg11.dtd">
<!-- Generated by graphviz version 2.36.0 (20140111.2315)
 -->
<!-- Title: controllers_diagram Pages: 1 -->
<svg width="407pt" height="589pt"
 viewBox="0.00 0.00 407.38 589.00" xmlns="http://www.w3.org/2000/svg" xmlns:xlink="http://www.w3.org/1999/xlink">
<g id="graph0" class="graph" transform="scale(1 1) rotate(0) translate(4 585)">
<title>controllers_diagram</title>
<polygon fill="none" stroke="none" points="-4,4 -4,-585 403.375,-585 403.375,4 -4,4"/>
<!-- _diagram_info -->
<g id="node1" class="node"><title>_diagram_info</title>
<text text-anchor="start" x="200" y="-250.6" font-family="Times,serif" font-size="13.00">Controllers diagram</text>
<text text-anchor="start" x="200" y="-237.6" font-family="Times,serif" font-size="13.00">Date: May 07 2017 &#45; 15:42</text>
<text text-anchor="start" x="200" y="-224.6" font-family="Times,serif" font-size="13.00">Migration version: 20170317095150</text>
<text text-anchor="start" x="200" y="-211.6" font-family="Times,serif" font-size="13.00">Generated by RailRoady 1.4.2</text>
<text text-anchor="start" x="200" y="-198.6" font-family="Times,serif" font-size="13.00">http://railroady.prestonlee.com</text>
</g>
<!-- ApplicationController -->
<g id="node2" class="node"><title>ApplicationController</title>
<path fill="none" stroke="black" d="M204,-312.5C204,-312.5 377.932,-312.5 377.932,-312.5 383.932,-312.5 389.932,-318.5 389.932,-324.5 389.932,-324.5 389.932,-388.5 389.932,-388.5 389.932,-394.5 383.932,-400.5 377.932,-400.5 377.932,-400.5 204,-400.5 204,-400.5 198,-400.5 192,-394.5 192,-388.5 192,-388.5 192,-324.5 192,-324.5 192,-318.5 198,-312.5 204,-312.5"/>
<text text-anchor="middle" x="290.966" y="-385.3" font-family="Times,serif" font-size="14.00">ApplicationController</text>
<polyline fill="none" stroke="black" points="192,-378.5 389.932,-378.5 "/>
<text text-anchor="start" x="200" y="-363.3" font-family="Times,serif" font-size="14.00">readable_datetime</text>
<polyline fill="none" stroke="black" points="192,-356.5 389.932,-356.5 "/>
<text text-anchor="start" x="200" y="-341.3" font-family="Times,serif" font-size="14.00">configure_permitted_parameters</text>
<polyline fill="none" stroke="black" points="192,-334.5 389.932,-334.5 "/>
<text text-anchor="start" x="200" y="-319.3" font-family="Times,serif" font-size="14.00">_layout</text>
</g>
<!-- GigsController -->
<g id="node3" class="node"><title>GigsController</title>
<path fill="none" stroke="black" d="M12,-0.5C12,-0.5 146.283,-0.5 146.283,-0.5 152.283,-0.5 158.283,-6.5 158.283,-12.5 158.283,-12.5 158.283,-568.5 158.283,-568.5 158.283,-574.5 152.283,-580.5 146.283,-580.5 146.283,-580.5 12,-580.5 12,-580.5 6,-580.5 0,-574.5 0,-568.5 0,-568.5 0,-12.5 0,-12.5 0,-6.5 6,-0.5 12,-0.5"/>
<text text-anchor="middle" x="79.1416" y="-565.3" font-family="Times,serif" font-size="14.00">GigsController</text>
<polyline fill="none" stroke="black" points="0,-558.5 158.283,-558.5 "/>
<text text-anchor="start" x="8" y="-543.3" font-family="Times,serif" font-size="14.00">activities</text>
<text text-anchor="start" x="8" y="-529.3" font-family="Times,serif" font-size="14.00">apply</text>
<text text-anchor="start" x="8" y="-515.3" font-family="Times,serif" font-size="14.00">contacts</text>
<text text-anchor="start" x="8" y="-501.3" font-family="Times,serif" font-size="14.00">create</text>
<text text-anchor="start" x="8" y="-487.3" font-family="Times,serif" font-size="14.00">create_email</text>
<text text-anchor="start" x="8" y="-473.3" font-family="Times,serif" font-size="14.00">create_reminder</text>
<text text-anchor="start" x="8" y="-459.3" font-family="Times,serif" font-size="14.00">destroy</text>
<text text-anchor="start" x="8" y="-445.3" font-family="Times,serif" font-size="14.00">duplicate</text>
<text text-anchor="start" x="8" y="-431.3" font-family="Times,serif" font-size="14.00">edit</text>
<text text-anchor="start" x="8" y="-417.3" font-family="Times,serif" font-size="14.00">edit_band</text>
<text text-anchor="start" x="8" y="-403.3" font-family="Times,serif" font-size="14.00">edit_contact</text>
<text text-anchor="start" x="8" y="-389.3" font-family="Times,serif" font-size="14.00">edit_location</text>
<text text-anchor="start" x="8" y="-375.3" font-family="Times,serif" font-size="14.00">edit_mail</text>
<text text-anchor="start" x="8" y="-361.3" font-family="Times,serif" font-size="14.00">edit_status</text>
<text text-anchor="start" x="8" y="-347.3" font-family="Times,serif" font-size="14.00">edit_template</text>
<text text-anchor="start" x="8" y="-333.3" font-family="Times,serif" font-size="14.00">fans</text>
<text text-anchor="start" x="8" y="-319.3" font-family="Times,serif" font-size="14.00">index</text>
<text text-anchor="start" x="8" y="-305.3" font-family="Times,serif" font-size="14.00">locations</text>
<text text-anchor="start" x="8" y="-291.3" font-family="Times,serif" font-size="14.00">new</text>
<text text-anchor="start" x="8" y="-277.3" font-family="Times,serif" font-size="14.00">post_activities</text>
<text text-anchor="start" x="8" y="-263.3" font-family="Times,serif" font-size="14.00">post_apply</text>
<text text-anchor="start" x="8" y="-249.3" font-family="Times,serif" font-size="14.00">post_contacts</text>
<text text-anchor="start" x="8" y="-235.3" font-family="Times,serif" font-size="14.00">post_fans</text>
<text text-anchor="start" x="8" y="-221.3" font-family="Times,serif" font-size="14.00">post_locations</text>
<text text-anchor="start" x="8" y="-207.3" font-family="Times,serif" font-size="14.00">post_settings</text>
<text text-anchor="start" x="8" y="-193.3" font-family="Times,serif" font-size="14.00">recreate_mail</text>
<text text-anchor="start" x="8" y="-179.3" font-family="Times,serif" font-size="14.00">remove_mail</text>
<text text-anchor="start" x="8" y="-165.3" font-family="Times,serif" font-size="14.00">send_single_mail</text>
<text text-anchor="start" x="8" y="-151.3" font-family="Times,serif" font-size="14.00">send_to_fans</text>
<text text-anchor="start" x="8" y="-137.3" font-family="Times,serif" font-size="14.00">settings</text>
<text text-anchor="start" x="8" y="-123.3" font-family="Times,serif" font-size="14.00">show</text>
<text text-anchor="start" x="8" y="-109.3" font-family="Times,serif" font-size="14.00">show_mail</text>
<text text-anchor="start" x="8" y="-95.3" font-family="Times,serif" font-size="14.00">update</text>
<polyline fill="none" stroke="black" points="0,-88.5 158.283,-88.5 "/>
<polyline fill="none" stroke="black" points="0,-64.5 158.283,-64.5 "/>
<text text-anchor="start" x="8" y="-49.3" font-family="Times,serif" font-size="14.00">_layout</text>
<text text-anchor="start" x="8" y="-35.3" font-family="Times,serif" font-size="14.00">set_attributes</text>
<text text-anchor="start" x="8" y="-21.3" font-family="Times,serif" font-size="14.00">set_contact_and_location</text>
<text text-anchor="start" x="8" y="-7.3" font-family="Times,serif" font-size="14.00">set_gig</text>
</g>
</g>
</svg>
