<?xml version="1.0" encoding="UTF-8" standalone="no"?>
<!DOCTYPE svg PUBLIC "-//W3C//DTD SVG 1.1//EN"
 "http://www.w3.org/Graphics/SVG/1.1/DTD/svg11.dtd">
<!-- Generated by graphviz version 2.36.0 (20140111.2315)
 -->
<!-- Title: controllers_diagram Pages: 1 -->
<svg width="343pt" height="293pt"
 viewBox="0.00 0.00 343.38 293.00" xmlns="http://www.w3.org/2000/svg" xmlns:xlink="http://www.w3.org/1999/xlink">
<g id="graph0" class="graph" transform="scale(1 1) rotate(0) translate(4 289)">
<title>controllers_diagram</title>
<polygon fill="none" stroke="none" points="-4,4 -4,-289 339.375,-289 339.375,4 -4,4"/>
<!-- _diagram_info -->
<g id="node1" class="node"><title>_diagram_info</title>
<text text-anchor="start" x="136" y="-138.6" font-family="Times,serif" font-size="13.00">Controllers diagram</text>
<text text-anchor="start" x="136" y="-125.6" font-family="Times,serif" font-size="13.00">Date: Sep 11 2016 &#45; 01:37</text>
<text text-anchor="start" x="136" y="-112.6" font-family="Times,serif" font-size="13.00">Migration version: 20160910233158</text>
<text text-anchor="start" x="136" y="-99.6" font-family="Times,serif" font-size="13.00">Generated by RailRoady 1.4.2</text>
<text text-anchor="start" x="136" y="-86.6" font-family="Times,serif" font-size="13.00">http://railroady.prestonlee.com</text>
</g>
<!-- ApplicationController -->
<g id="node2" class="node"><title>ApplicationController</title>
<path fill="none" stroke="black" d="M140,-192.5C140,-192.5 255.642,-192.5 255.642,-192.5 261.642,-192.5 267.642,-198.5 267.642,-204.5 267.642,-204.5 267.642,-272.5 267.642,-272.5 267.642,-278.5 261.642,-284.5 255.642,-284.5 255.642,-284.5 140,-284.5 140,-284.5 134,-284.5 128,-278.5 128,-272.5 128,-272.5 128,-204.5 128,-204.5 128,-198.5 134,-192.5 140,-192.5"/>
<text text-anchor="middle" x="197.821" y="-269.3" font-family="Times,serif" font-size="14.00">ApplicationController</text>
<polyline fill="none" stroke="black" points="128,-262.5 267.642,-262.5 "/>
<polyline fill="none" stroke="black" points="128,-238.5 267.642,-238.5 "/>
<polyline fill="none" stroke="black" points="128,-214.5 267.642,-214.5 "/>
<text text-anchor="start" x="136" y="-199.3" font-family="Times,serif" font-size="14.00">_layout</text>
</g>
<!-- GigsController -->
<g id="node3" class="node"><title>GigsController</title>
<path fill="none" stroke="black" d="M12,-0.5C12,-0.5 87.9932,-0.5 87.9932,-0.5 93.9932,-0.5 99.9932,-6.5 99.9932,-12.5 99.9932,-12.5 99.9932,-246.5 99.9932,-246.5 99.9932,-252.5 93.9932,-258.5 87.9932,-258.5 87.9932,-258.5 12,-258.5 12,-258.5 6,-258.5 0,-252.5 0,-246.5 0,-246.5 0,-12.5 0,-12.5 0,-6.5 6,-0.5 12,-0.5"/>
<text text-anchor="middle" x="49.9966" y="-243.3" font-family="Times,serif" font-size="14.00">GigsController</text>
<polyline fill="none" stroke="black" points="0,-236.5 99.9932,-236.5 "/>
<text text-anchor="start" x="8" y="-221.3" font-family="Times,serif" font-size="14.00">band</text>
<text text-anchor="start" x="8" y="-207.3" font-family="Times,serif" font-size="14.00">contacts</text>
<text text-anchor="start" x="8" y="-193.3" font-family="Times,serif" font-size="14.00">create</text>
<text text-anchor="start" x="8" y="-179.3" font-family="Times,serif" font-size="14.00">destroy</text>
<text text-anchor="start" x="8" y="-165.3" font-family="Times,serif" font-size="14.00">edit</text>
<text text-anchor="start" x="8" y="-151.3" font-family="Times,serif" font-size="14.00">index</text>
<text text-anchor="start" x="8" y="-137.3" font-family="Times,serif" font-size="14.00">locations</text>
<text text-anchor="start" x="8" y="-123.3" font-family="Times,serif" font-size="14.00">new</text>
<text text-anchor="start" x="8" y="-109.3" font-family="Times,serif" font-size="14.00">post_settings</text>
<text text-anchor="start" x="8" y="-95.3" font-family="Times,serif" font-size="14.00">settings</text>
<text text-anchor="start" x="8" y="-81.3" font-family="Times,serif" font-size="14.00">show</text>
<text text-anchor="start" x="8" y="-67.3" font-family="Times,serif" font-size="14.00">update</text>
<polyline fill="none" stroke="black" points="0,-60.5 99.9932,-60.5 "/>
<polyline fill="none" stroke="black" points="0,-36.5 99.9932,-36.5 "/>
<text text-anchor="start" x="8" y="-21.3" font-family="Times,serif" font-size="14.00">_layout</text>
<text text-anchor="start" x="8" y="-7.3" font-family="Times,serif" font-size="14.00">set_gig</text>
</g>
</g>
</svg>
