<?xml version="1.0" encoding="UTF-8" standalone="no"?>
<!DOCTYPE svg PUBLIC "-//W3C//DTD SVG 1.1//EN"
 "http://www.w3.org/Graphics/SVG/1.1/DTD/svg11.dtd">
<!-- Generated by graphviz version 2.36.0 (20140111.2315)
 -->
<!-- Title: controllers_diagram Pages: 1 -->
<svg width="318pt" height="236pt"
 viewBox="0.00 0.00 318.44 236.00" xmlns="http://www.w3.org/2000/svg" xmlns:xlink="http://www.w3.org/1999/xlink">
<g id="graph0" class="graph" transform="scale(1 1) rotate(0) translate(4 232)">
<title>controllers_diagram</title>
<polygon fill="none" stroke="none" points="-4,4 -4,-232 314.44,-232 314.44,4 -4,4"/>
<!-- _diagram_info -->
<g id="node1" class="node"><title>_diagram_info</title>
<text text-anchor="start" x="143" y="-88.6" font-family="Times,serif" font-size="13.00">Controllers diagram</text>
<text text-anchor="start" x="143" y="-75.6" font-family="Times,serif" font-size="13.00">Date: Sep 06 2016 &#45; 14:13</text>
<text text-anchor="start" x="143" y="-62.6" font-family="Times,serif" font-size="13.00">Migration version: 0</text>
<text text-anchor="start" x="143" y="-49.6" font-family="Times,serif" font-size="13.00">Generated by RailRoady 1.4.2</text>
<text text-anchor="start" x="143" y="-36.6" font-family="Times,serif" font-size="13.00">http://railroady.prestonlee.com</text>
</g>
<!-- ApplicationController -->
<g id="node2" class="node"><title>ApplicationController</title>
<path fill="none" stroke="black" d="M147,-135.5C147,-135.5 262.642,-135.5 262.642,-135.5 268.642,-135.5 274.642,-141.5 274.642,-147.5 274.642,-147.5 274.642,-215.5 274.642,-215.5 274.642,-221.5 268.642,-227.5 262.642,-227.5 262.642,-227.5 147,-227.5 147,-227.5 141,-227.5 135,-221.5 135,-215.5 135,-215.5 135,-147.5 135,-147.5 135,-141.5 141,-135.5 147,-135.5"/>
<text text-anchor="middle" x="204.821" y="-212.3" font-family="Times,serif" font-size="14.00">ApplicationController</text>
<polyline fill="none" stroke="black" points="135,-205.5 274.642,-205.5 "/>
<polyline fill="none" stroke="black" points="135,-181.5 274.642,-181.5 "/>
<polyline fill="none" stroke="black" points="135,-157.5 274.642,-157.5 "/>
<text text-anchor="start" x="143" y="-142.3" font-family="Times,serif" font-size="14.00">_layout</text>
</g>
<!-- GigsController -->
<g id="node3" class="node"><title>GigsController</title>
<path fill="none" stroke="black" d="M12,-0.5C12,-0.5 87.9932,-0.5 87.9932,-0.5 93.9932,-0.5 99.9932,-6.5 99.9932,-12.5 99.9932,-12.5 99.9932,-190.5 99.9932,-190.5 99.9932,-196.5 93.9932,-202.5 87.9932,-202.5 87.9932,-202.5 12,-202.5 12,-202.5 6,-202.5 0,-196.5 0,-190.5 0,-190.5 0,-12.5 0,-12.5 0,-6.5 6,-0.5 12,-0.5"/>
<text text-anchor="middle" x="49.9966" y="-187.3" font-family="Times,serif" font-size="14.00">GigsController</text>
<polyline fill="none" stroke="black" points="0,-180.5 99.9932,-180.5 "/>
<text text-anchor="start" x="8" y="-165.3" font-family="Times,serif" font-size="14.00">create</text>
<text text-anchor="start" x="8" y="-151.3" font-family="Times,serif" font-size="14.00">destroy</text>
<text text-anchor="start" x="8" y="-137.3" font-family="Times,serif" font-size="14.00">edit</text>
<text text-anchor="start" x="8" y="-123.3" font-family="Times,serif" font-size="14.00">index</text>
<text text-anchor="start" x="8" y="-109.3" font-family="Times,serif" font-size="14.00">new</text>
<text text-anchor="start" x="8" y="-95.3" font-family="Times,serif" font-size="14.00">show</text>
<text text-anchor="start" x="8" y="-81.3" font-family="Times,serif" font-size="14.00">update</text>
<polyline fill="none" stroke="black" points="0,-74.5 99.9932,-74.5 "/>
<polyline fill="none" stroke="black" points="0,-50.5 99.9932,-50.5 "/>
<text text-anchor="start" x="8" y="-35.3" font-family="Times,serif" font-size="14.00">_layout</text>
<text text-anchor="start" x="8" y="-21.3" font-family="Times,serif" font-size="14.00">gig_params</text>
<text text-anchor="start" x="8" y="-7.3" font-family="Times,serif" font-size="14.00">set_gig</text>
</g>
</g>
</svg>
