<?xml version="1.0" encoding="UTF-8" standalone="no"?>
<!DOCTYPE svg PUBLIC "-//W3C//DTD SVG 1.1//EN"
 "http://www.w3.org/Graphics/SVG/1.1/DTD/svg11.dtd">
<!-- Generated by graphviz version 2.36.0 (20140111.2315)
 -->
<!-- Title: controllers_diagram Pages: 1 -->
<svg width="415pt" height="617pt"
 viewBox="0.00 0.00 415.38 617.00" xmlns="http://www.w3.org/2000/svg" xmlns:xlink="http://www.w3.org/1999/xlink">
<g id="graph0" class="graph" transform="scale(1 1) rotate(0) translate(4 613)">
<title>controllers_diagram</title>
<polygon fill="none" stroke="none" points="-4,4 -4,-613 411.375,-613 411.375,4 -4,4"/>
<!-- _diagram_info -->
<g id="node1" class="node"><title>_diagram_info</title>
<text text-anchor="start" x="208" y="-358.6" font-family="Times,serif" font-size="13.00">Controllers diagram</text>
<text text-anchor="start" x="208" y="-345.6" font-family="Times,serif" font-size="13.00">Date: Aug 14 2017 &#45; 15:33</text>
<text text-anchor="start" x="208" y="-332.6" font-family="Times,serif" font-size="13.00">Migration version: 20170607091525</text>
<text text-anchor="start" x="208" y="-319.6" font-family="Times,serif" font-size="13.00">Generated by RailRoady 1.5.1</text>
<text text-anchor="start" x="208" y="-306.6" font-family="Times,serif" font-size="13.00">http://railroady.prestonlee.com</text>
</g>
<!-- ApplicationController -->
<g id="node2" class="node"><title>ApplicationController</title>
<path fill="none" stroke="black" d="M212,-175.5C212,-175.5 385.932,-175.5 385.932,-175.5 391.932,-175.5 397.932,-181.5 397.932,-187.5 397.932,-187.5 397.932,-251.5 397.932,-251.5 397.932,-257.5 391.932,-263.5 385.932,-263.5 385.932,-263.5 212,-263.5 212,-263.5 206,-263.5 200,-257.5 200,-251.5 200,-251.5 200,-187.5 200,-187.5 200,-181.5 206,-175.5 212,-175.5"/>
<text text-anchor="middle" x="298.966" y="-248.3" font-family="Times,serif" font-size="14.00">ApplicationController</text>
<polyline fill="none" stroke="black" points="200,-241.5 397.932,-241.5 "/>
<text text-anchor="start" x="208" y="-226.3" font-family="Times,serif" font-size="14.00">readable_datetime</text>
<polyline fill="none" stroke="black" points="200,-219.5 397.932,-219.5 "/>
<text text-anchor="start" x="208" y="-204.3" font-family="Times,serif" font-size="14.00">configure_permitted_parameters</text>
<polyline fill="none" stroke="black" points="200,-197.5 397.932,-197.5 "/>
<text text-anchor="start" x="208" y="-182.3" font-family="Times,serif" font-size="14.00">_layout</text>
</g>
<!-- GigsController -->
<g id="node3" class="node"><title>GigsController</title>
<path fill="none" stroke="black" d="M12,-0.5C12,-0.5 146.283,-0.5 146.283,-0.5 152.283,-0.5 158.283,-6.5 158.283,-12.5 158.283,-12.5 158.283,-596.5 158.283,-596.5 158.283,-602.5 152.283,-608.5 146.283,-608.5 146.283,-608.5 12,-608.5 12,-608.5 6,-608.5 1.42109e-14,-602.5 1.42109e-14,-596.5 1.42109e-14,-596.5 1.42109e-14,-12.5 1.42109e-14,-12.5 1.42109e-14,-6.5 6,-0.5 12,-0.5"/>
<text text-anchor="middle" x="79.1416" y="-593.3" font-family="Times,serif" font-size="14.00">GigsController</text>
<polyline fill="none" stroke="black" points="1.42109e-14,-586.5 158.283,-586.5 "/>
<text text-anchor="start" x="8" y="-571.3" font-family="Times,serif" font-size="14.00">update</text>
<text text-anchor="start" x="8" y="-557.3" font-family="Times,serif" font-size="14.00">apply</text>
<text text-anchor="start" x="8" y="-543.3" font-family="Times,serif" font-size="14.00">contacts</text>
<text text-anchor="start" x="8" y="-529.3" font-family="Times,serif" font-size="14.00">create</text>
<text text-anchor="start" x="8" y="-515.3" font-family="Times,serif" font-size="14.00">create_email</text>
<text text-anchor="start" x="8" y="-501.3" font-family="Times,serif" font-size="14.00">create_reminder</text>
<text text-anchor="start" x="8" y="-487.3" font-family="Times,serif" font-size="14.00">destroy</text>
<text text-anchor="start" x="8" y="-473.3" font-family="Times,serif" font-size="14.00">duplicate</text>
<text text-anchor="start" x="8" y="-459.3" font-family="Times,serif" font-size="14.00">edit</text>
<text text-anchor="start" x="8" y="-445.3" font-family="Times,serif" font-size="14.00">edit_band</text>
<text text-anchor="start" x="8" y="-431.3" font-family="Times,serif" font-size="14.00">edit_contact</text>
<text text-anchor="start" x="8" y="-417.3" font-family="Times,serif" font-size="14.00">edit_location</text>
<text text-anchor="start" x="8" y="-403.3" font-family="Times,serif" font-size="14.00">edit_mail</text>
<text text-anchor="start" x="8" y="-389.3" font-family="Times,serif" font-size="14.00">edit_status</text>
<text text-anchor="start" x="8" y="-375.3" font-family="Times,serif" font-size="14.00">edit_template</text>
<text text-anchor="start" x="8" y="-361.3" font-family="Times,serif" font-size="14.00">fans</text>
<text text-anchor="start" x="8" y="-347.3" font-family="Times,serif" font-size="14.00">index</text>
<text text-anchor="start" x="8" y="-333.3" font-family="Times,serif" font-size="14.00">locations</text>
<text text-anchor="start" x="8" y="-319.3" font-family="Times,serif" font-size="14.00">map</text>
<text text-anchor="start" x="8" y="-305.3" font-family="Times,serif" font-size="14.00">new</text>
<text text-anchor="start" x="8" y="-291.3" font-family="Times,serif" font-size="14.00">post_activities</text>
<text text-anchor="start" x="8" y="-277.3" font-family="Times,serif" font-size="14.00">post_apply</text>
<text text-anchor="start" x="8" y="-263.3" font-family="Times,serif" font-size="14.00">post_contacts</text>
<text text-anchor="start" x="8" y="-249.3" font-family="Times,serif" font-size="14.00">post_fans</text>
<text text-anchor="start" x="8" y="-235.3" font-family="Times,serif" font-size="14.00">post_jump</text>
<text text-anchor="start" x="8" y="-221.3" font-family="Times,serif" font-size="14.00">post_locations</text>
<text text-anchor="start" x="8" y="-207.3" font-family="Times,serif" font-size="14.00">post_settings</text>
<text text-anchor="start" x="8" y="-193.3" font-family="Times,serif" font-size="14.00">recreate_mail</text>
<text text-anchor="start" x="8" y="-179.3" font-family="Times,serif" font-size="14.00">remove_mail</text>
<text text-anchor="start" x="8" y="-165.3" font-family="Times,serif" font-size="14.00">send_single_mail</text>
<text text-anchor="start" x="8" y="-151.3" font-family="Times,serif" font-size="14.00">send_to_fans</text>
<text text-anchor="start" x="8" y="-137.3" font-family="Times,serif" font-size="14.00">settings</text>
<text text-anchor="start" x="8" y="-123.3" font-family="Times,serif" font-size="14.00">show</text>
<text text-anchor="start" x="8" y="-109.3" font-family="Times,serif" font-size="14.00">show_mail</text>
<text text-anchor="start" x="8" y="-95.3" font-family="Times,serif" font-size="14.00">activities</text>
<polyline fill="none" stroke="black" points="1.42109e-14,-88.5 158.283,-88.5 "/>
<polyline fill="none" stroke="black" points="1.42109e-14,-64.5 158.283,-64.5 "/>
<text text-anchor="start" x="8" y="-49.3" font-family="Times,serif" font-size="14.00">_layout</text>
<text text-anchor="start" x="8" y="-35.3" font-family="Times,serif" font-size="14.00">set_attributes</text>
<text text-anchor="start" x="8" y="-21.3" font-family="Times,serif" font-size="14.00">set_contact_and_location</text>
<text text-anchor="start" x="8" y="-7.3" font-family="Times,serif" font-size="14.00">set_gig</text>
</g>
</g>
</svg>
