<?xml version="1.0" encoding="UTF-8" standalone="no"?>
<!DOCTYPE svg PUBLIC "-//W3C//DTD SVG 1.1//EN"
 "http://www.w3.org/Graphics/SVG/1.1/DTD/svg11.dtd">
<!-- Generated by graphviz version 2.36.0 (20140111.2315)
 -->
<!-- Title: controllers_diagram Pages: 1 -->
<svg width="351pt" height="295pt"
 viewBox="0.00 0.00 351.38 295.00" xmlns="http://www.w3.org/2000/svg" xmlns:xlink="http://www.w3.org/1999/xlink">
<g id="graph0" class="graph" transform="scale(1 1) rotate(0) translate(4 291)">
<title>controllers_diagram</title>
<polygon fill="none" stroke="none" points="-4,4 -4,-291 347.375,-291 347.375,4 -4,4"/>
<!-- _diagram_info -->
<g id="node1" class="node"><title>_diagram_info</title>
<text text-anchor="start" x="144" y="-126.6" font-family="Times,serif" font-size="13.00">Controllers diagram</text>
<text text-anchor="start" x="144" y="-113.6" font-family="Times,serif" font-size="13.00">Date: Sep 23 2016 &#45; 10:48</text>
<text text-anchor="start" x="144" y="-100.6" font-family="Times,serif" font-size="13.00">Migration version: 20160910233158</text>
<text text-anchor="start" x="144" y="-87.6" font-family="Times,serif" font-size="13.00">Generated by RailRoady 1.4.2</text>
<text text-anchor="start" x="144" y="-74.6" font-family="Times,serif" font-size="13.00">http://railroady.prestonlee.com</text>
</g>
<!-- ApplicationController -->
<g id="node2" class="node"><title>ApplicationController</title>
<path fill="none" stroke="black" d="M148,-170.5C148,-170.5 263.642,-170.5 263.642,-170.5 269.642,-170.5 275.642,-176.5 275.642,-182.5 275.642,-182.5 275.642,-250.5 275.642,-250.5 275.642,-256.5 269.642,-262.5 263.642,-262.5 263.642,-262.5 148,-262.5 148,-262.5 142,-262.5 136,-256.5 136,-250.5 136,-250.5 136,-182.5 136,-182.5 136,-176.5 142,-170.5 148,-170.5"/>
<text text-anchor="middle" x="205.821" y="-247.3" font-family="Times,serif" font-size="14.00">ApplicationController</text>
<polyline fill="none" stroke="black" points="136,-240.5 275.642,-240.5 "/>
<polyline fill="none" stroke="black" points="136,-216.5 275.642,-216.5 "/>
<polyline fill="none" stroke="black" points="136,-192.5 275.642,-192.5 "/>
<text text-anchor="start" x="144" y="-177.3" font-family="Times,serif" font-size="14.00">_layout</text>
</g>
<!-- GigsController -->
<g id="node3" class="node"><title>GigsController</title>
<path fill="none" stroke="black" d="M12,-0.5C12,-0.5 87.9932,-0.5 87.9932,-0.5 93.9932,-0.5 99.9932,-6.5 99.9932,-12.5 99.9932,-12.5 99.9932,-274.5 99.9932,-274.5 99.9932,-280.5 93.9932,-286.5 87.9932,-286.5 87.9932,-286.5 12,-286.5 12,-286.5 6,-286.5 0,-280.5 0,-274.5 0,-274.5 0,-12.5 0,-12.5 0,-6.5 6,-0.5 12,-0.5"/>
<text text-anchor="middle" x="49.9966" y="-271.3" font-family="Times,serif" font-size="14.00">GigsController</text>
<polyline fill="none" stroke="black" points="0,-264.5 99.9932,-264.5 "/>
<text text-anchor="start" x="8" y="-249.3" font-family="Times,serif" font-size="14.00">band</text>
<text text-anchor="start" x="8" y="-235.3" font-family="Times,serif" font-size="14.00">contacts</text>
<text text-anchor="start" x="8" y="-221.3" font-family="Times,serif" font-size="14.00">create</text>
<text text-anchor="start" x="8" y="-207.3" font-family="Times,serif" font-size="14.00">destroy</text>
<text text-anchor="start" x="8" y="-193.3" font-family="Times,serif" font-size="14.00">edit</text>
<text text-anchor="start" x="8" y="-179.3" font-family="Times,serif" font-size="14.00">index</text>
<text text-anchor="start" x="8" y="-165.3" font-family="Times,serif" font-size="14.00">locations</text>
<text text-anchor="start" x="8" y="-151.3" font-family="Times,serif" font-size="14.00">new</text>
<text text-anchor="start" x="8" y="-137.3" font-family="Times,serif" font-size="14.00">post_contacts</text>
<text text-anchor="start" x="8" y="-123.3" font-family="Times,serif" font-size="14.00">post_locations</text>
<text text-anchor="start" x="8" y="-109.3" font-family="Times,serif" font-size="14.00">post_settings</text>
<text text-anchor="start" x="8" y="-95.3" font-family="Times,serif" font-size="14.00">settings</text>
<text text-anchor="start" x="8" y="-81.3" font-family="Times,serif" font-size="14.00">show</text>
<text text-anchor="start" x="8" y="-67.3" font-family="Times,serif" font-size="14.00">update</text>
<polyline fill="none" stroke="black" points="0,-60.5 99.9932,-60.5 "/>
<polyline fill="none" stroke="black" points="0,-36.5 99.9932,-36.5 "/>
<text text-anchor="start" x="8" y="-21.3" font-family="Times,serif" font-size="14.00">_layout</text>
<text text-anchor="start" x="8" y="-7.3" font-family="Times,serif" font-size="14.00">set_gig</text>
</g>
</g>
</svg>
