<?xml version="1.0" encoding="UTF-8" standalone="no"?>
<!DOCTYPE svg PUBLIC "-//W3C//DTD SVG 1.1//EN"
 "http://www.w3.org/Graphics/SVG/1.1/DTD/svg11.dtd">
<!-- Generated by graphviz version 2.36.0 (20140111.2315)
 -->
<!-- Title: controllers_diagram Pages: 1 -->
<svg width="404pt" height="421pt"
 viewBox="0.00 0.00 404.38 421.00" xmlns="http://www.w3.org/2000/svg" xmlns:xlink="http://www.w3.org/1999/xlink">
<g id="graph0" class="graph" transform="scale(1 1) rotate(0) translate(4 417)">
<title>controllers_diagram</title>
<polygon fill="none" stroke="none" points="-4,4 -4,-417 400.375,-417 400.375,4 -4,4"/>
<!-- _diagram_info -->
<g id="node1" class="node"><title>_diagram_info</title>
<text text-anchor="start" x="197" y="-163.6" font-family="Times,serif" font-size="13.00">Controllers diagram</text>
<text text-anchor="start" x="197" y="-150.6" font-family="Times,serif" font-size="13.00">Date: Oct 17 2016 &#45; 23:21</text>
<text text-anchor="start" x="197" y="-137.6" font-family="Times,serif" font-size="13.00">Migration version: 20160926173133</text>
<text text-anchor="start" x="197" y="-124.6" font-family="Times,serif" font-size="13.00">Generated by RailRoady 1.4.2</text>
<text text-anchor="start" x="197" y="-111.6" font-family="Times,serif" font-size="13.00">http://railroady.prestonlee.com</text>
</g>
<!-- ApplicationController -->
<g id="node2" class="node"><title>ApplicationController</title>
<path fill="none" stroke="black" d="M201,-210.5C201,-210.5 374.932,-210.5 374.932,-210.5 380.932,-210.5 386.932,-216.5 386.932,-222.5 386.932,-222.5 386.932,-286.5 386.932,-286.5 386.932,-292.5 380.932,-298.5 374.932,-298.5 374.932,-298.5 201,-298.5 201,-298.5 195,-298.5 189,-292.5 189,-286.5 189,-286.5 189,-222.5 189,-222.5 189,-216.5 195,-210.5 201,-210.5"/>
<text text-anchor="middle" x="287.966" y="-283.3" font-family="Times,serif" font-size="14.00">ApplicationController</text>
<polyline fill="none" stroke="black" points="189,-276.5 386.932,-276.5 "/>
<text text-anchor="start" x="197" y="-261.3" font-family="Times,serif" font-size="14.00">readable_datetime</text>
<polyline fill="none" stroke="black" points="189,-254.5 386.932,-254.5 "/>
<text text-anchor="start" x="197" y="-239.3" font-family="Times,serif" font-size="14.00">configure_permitted_parameters</text>
<polyline fill="none" stroke="black" points="189,-232.5 386.932,-232.5 "/>
<text text-anchor="start" x="197" y="-217.3" font-family="Times,serif" font-size="14.00">_layout</text>
</g>
<!-- GigsController -->
<g id="node3" class="node"><title>GigsController</title>
<path fill="none" stroke="black" d="M12,-0.5C12,-0.5 146.283,-0.5 146.283,-0.5 152.283,-0.5 158.283,-6.5 158.283,-12.5 158.283,-12.5 158.283,-400.5 158.283,-400.5 158.283,-406.5 152.283,-412.5 146.283,-412.5 146.283,-412.5 12,-412.5 12,-412.5 6,-412.5 1.42109e-14,-406.5 1.42109e-14,-400.5 1.42109e-14,-400.5 1.42109e-14,-12.5 1.42109e-14,-12.5 1.42109e-14,-6.5 6,-0.5 12,-0.5"/>
<text text-anchor="middle" x="79.1416" y="-397.3" font-family="Times,serif" font-size="14.00">GigsController</text>
<polyline fill="none" stroke="black" points="1.42109e-14,-390.5 158.283,-390.5 "/>
<text text-anchor="start" x="8" y="-375.3" font-family="Times,serif" font-size="14.00">apply</text>
<text text-anchor="start" x="8" y="-361.3" font-family="Times,serif" font-size="14.00">band</text>
<text text-anchor="start" x="8" y="-347.3" font-family="Times,serif" font-size="14.00">contacts</text>
<text text-anchor="start" x="8" y="-333.3" font-family="Times,serif" font-size="14.00">create</text>
<text text-anchor="start" x="8" y="-319.3" font-family="Times,serif" font-size="14.00">destroy</text>
<text text-anchor="start" x="8" y="-305.3" font-family="Times,serif" font-size="14.00">edit</text>
<text text-anchor="start" x="8" y="-291.3" font-family="Times,serif" font-size="14.00">edit_contact</text>
<text text-anchor="start" x="8" y="-277.3" font-family="Times,serif" font-size="14.00">edit_location</text>
<text text-anchor="start" x="8" y="-263.3" font-family="Times,serif" font-size="14.00">edit_status</text>
<text text-anchor="start" x="8" y="-249.3" font-family="Times,serif" font-size="14.00">edit_template</text>
<text text-anchor="start" x="8" y="-235.3" font-family="Times,serif" font-size="14.00">index</text>
<text text-anchor="start" x="8" y="-221.3" font-family="Times,serif" font-size="14.00">locations</text>
<text text-anchor="start" x="8" y="-207.3" font-family="Times,serif" font-size="14.00">new</text>
<text text-anchor="start" x="8" y="-193.3" font-family="Times,serif" font-size="14.00">post_apply</text>
<text text-anchor="start" x="8" y="-179.3" font-family="Times,serif" font-size="14.00">post_contacts</text>
<text text-anchor="start" x="8" y="-165.3" font-family="Times,serif" font-size="14.00">post_locations</text>
<text text-anchor="start" x="8" y="-151.3" font-family="Times,serif" font-size="14.00">post_settings</text>
<text text-anchor="start" x="8" y="-137.3" font-family="Times,serif" font-size="14.00">settings</text>
<text text-anchor="start" x="8" y="-123.3" font-family="Times,serif" font-size="14.00">show</text>
<text text-anchor="start" x="8" y="-109.3" font-family="Times,serif" font-size="14.00">show_mail</text>
<text text-anchor="start" x="8" y="-95.3" font-family="Times,serif" font-size="14.00">update</text>
<polyline fill="none" stroke="black" points="1.42109e-14,-88.5 158.283,-88.5 "/>
<polyline fill="none" stroke="black" points="1.42109e-14,-64.5 158.283,-64.5 "/>
<text text-anchor="start" x="8" y="-49.3" font-family="Times,serif" font-size="14.00">_layout</text>
<text text-anchor="start" x="8" y="-35.3" font-family="Times,serif" font-size="14.00">set_attributes</text>
<text text-anchor="start" x="8" y="-21.3" font-family="Times,serif" font-size="14.00">set_contact_and_location</text>
<text text-anchor="start" x="8" y="-7.3" font-family="Times,serif" font-size="14.00">set_gig</text>
</g>
</g>
</svg>
