<?xml version="1.0" encoding="UTF-8" standalone="no"?>
<!DOCTYPE svg PUBLIC "-//W3C//DTD SVG 1.1//EN"
 "http://www.w3.org/Graphics/SVG/1.1/DTD/svg11.dtd">
<!-- Generated by graphviz version 2.36.0 (20140111.2315)
 -->
<!-- Title: models_diagram Pages: 1 -->
<svg width="292pt" height="298pt"
 viewBox="0.00 0.00 292.00 298.00" xmlns="http://www.w3.org/2000/svg" xmlns:xlink="http://www.w3.org/1999/xlink">
<g id="graph0" class="graph" transform="scale(1 1) rotate(0) translate(4 294)">
<title>models_diagram</title>
<polygon fill="none" stroke="none" points="-4,4 -4,-294 288,-294 288,4 -4,4"/>
<!-- _diagram_info -->
<g id="node1" class="node"><title>_diagram_info</title>
<text text-anchor="start" x="7.78833" y="-275.1" font-family="Times,serif" font-size="13.00">Models diagram</text>
<text text-anchor="start" x="7.78833" y="-262.1" font-family="Times,serif" font-size="13.00">Date: Sep 10 2016 &#45; 10:34</text>
<text text-anchor="start" x="7.78833" y="-249.1" font-family="Times,serif" font-size="13.00">Migration version: 20160910081116</text>
<text text-anchor="start" x="7.78833" y="-236.1" font-family="Times,serif" font-size="13.00">Generated by RailRoady 1.4.2</text>
<text text-anchor="start" x="7.78833" y="-223.1" font-family="Times,serif" font-size="13.00">http://railroady.prestonlee.com</text>
</g>
<!-- Band -->
<g id="node2" class="node"><title>Band</title>
<ellipse fill="none" stroke="black" cx="253" cy="-253" rx="28.1657" ry="18"/>
<text text-anchor="middle" x="253" y="-248.8" font-family="Times,serif" font-size="14.00">Band</text>
</g>
<!-- User -->
<g id="node5" class="node"><title>User</title>
<ellipse fill="none" stroke="black" cx="253" cy="-162" rx="27" ry="18"/>
<text text-anchor="middle" x="253" y="-157.8" font-family="Times,serif" font-size="14.00">User</text>
</g>
<!-- Band&#45;&gt;User -->
<g id="edge1" class="edge"><title>Band&#45;&gt;User</title>
<path fill="none" stroke="#ee7c21" d="M253,-226.546C253,-215.148 253,-201.696 253,-190.11"/>
<ellipse fill="none" stroke="#ee7c21" cx="253" cy="-230.84" rx="4" ry="4"/>
<polygon fill="#ee7c21" stroke="#ee7c21" points="253,-190.107 257.5,-180.107 253,-185.107 253,-180.107 253,-180.107 253,-180.107 253,-185.107 248.5,-180.107 253,-190.107 253,-190.107"/>
</g>
<!-- Gig -->
<g id="node3" class="node"><title>Gig</title>
<ellipse fill="none" stroke="black" cx="253" cy="-90" rx="27" ry="18"/>
<text text-anchor="middle" x="253" y="-85.8" font-family="Times,serif" font-size="14.00">Gig</text>
</g>
<!-- Status -->
<g id="node4" class="node"><title>Status</title>
<ellipse fill="none" stroke="black" cx="253" cy="-18" rx="31.5903" ry="18"/>
<text text-anchor="middle" x="253" y="-13.8" font-family="Times,serif" font-size="14.00">Status</text>
</g>
<!-- Gig&#45;&gt;Status -->
<g id="edge2" class="edge"><title>Gig&#45;&gt;Status</title>
<path fill="none" stroke="#59a7bf" d="M253,-63.6398C253,-58.0629 253,-52.1319 253,-46.4761"/>
<ellipse fill="none" stroke="#59a7bf" cx="253" cy="-67.6966" rx="4" ry="4"/>
<polygon fill="#59a7bf" stroke="#59a7bf" points="253,-46.1043 257.5,-36.1043 253,-41.1043 253,-36.1043 253,-36.1043 253,-36.1043 253,-41.1043 248.5,-36.1044 253,-46.1043 253,-46.1043"/>
</g>
<!-- User&#45;&gt;Gig -->
<g id="edge3" class="edge"><title>User&#45;&gt;Gig</title>
<path fill="none" stroke="#f370b8" d="M253,-135.64C253,-130.063 253,-124.132 253,-118.476"/>
<ellipse fill="none" stroke="#f370b8" cx="253" cy="-139.697" rx="4" ry="4"/>
<polygon fill="#f370b8" stroke="#f370b8" points="253,-118.104 257.5,-108.104 253,-113.104 253,-108.104 253,-108.104 253,-108.104 253,-113.104 248.5,-108.104 253,-118.104 253,-118.104"/>
</g>
</g>
</svg>
