<?xml version="1.0" encoding="UTF-8" standalone="no"?>
<!DOCTYPE svg PUBLIC "-//W3C//DTD SVG 1.1//EN"
 "http://www.w3.org/Graphics/SVG/1.1/DTD/svg11.dtd">
<!-- Generated by graphviz version 2.36.0 (20140111.2315)
 -->
<!-- Title: models_diagram Pages: 1 -->
<svg width="592pt" height="914pt"
 viewBox="0.00 0.00 591.72 914.00" xmlns="http://www.w3.org/2000/svg" xmlns:xlink="http://www.w3.org/1999/xlink">
<g id="graph0" class="graph" transform="scale(1 1) rotate(0) translate(4 910)">
<title>models_diagram</title>
<polygon fill="none" stroke="none" points="-4,4 -4,-910 587.722,-910 587.722,4 -4,4"/>
<!-- _diagram_info -->
<g id="node1" class="node"><title>_diagram_info</title>
<text text-anchor="start" x="27.3123" y="-877.1" font-family="Times,serif" font-size="13.00">Models diagram</text>
<text text-anchor="start" x="27.3123" y="-864.1" font-family="Times,serif" font-size="13.00">Date: Sep 12 2016 &#45; 10:06</text>
<text text-anchor="start" x="27.3123" y="-851.1" font-family="Times,serif" font-size="13.00">Migration version: 20160910233158</text>
<text text-anchor="start" x="27.3123" y="-838.1" font-family="Times,serif" font-size="13.00">Generated by RailRoady 1.4.2</text>
<text text-anchor="start" x="27.3123" y="-825.1" font-family="Times,serif" font-size="13.00">http://railroady.prestonlee.com</text>
</g>
<!-- Band -->
<g id="node2" class="node"><title>Band</title>
<path fill="none" stroke="black" d="M256.495,-805C256.495,-805 365.505,-805 365.505,-805 371.505,-805 377.505,-811 377.505,-817 377.505,-817 377.505,-893 377.505,-893 377.505,-899 371.505,-905 365.505,-905 365.505,-905 256.495,-905 256.495,-905 250.495,-905 244.495,-899 244.495,-893 244.495,-893 244.495,-817 244.495,-817 244.495,-811 250.495,-805 256.495,-805"/>
<text text-anchor="middle" x="311" y="-889.8" font-family="Times,serif" font-size="14.00">Band</text>
<polyline fill="none" stroke="black" points="244.495,-883 377.505,-883 "/>
<text text-anchor="start" x="252.495" y="-867.8" font-family="Times,serif" font-size="14.00">id :INTEGER</text>
<text text-anchor="start" x="252.495" y="-853.8" font-family="Times,serif" font-size="14.00">tech_rider :text</text>
<text text-anchor="start" x="252.495" y="-839.8" font-family="Times,serif" font-size="14.00">created_at :datetime</text>
<text text-anchor="start" x="252.495" y="-825.8" font-family="Times,serif" font-size="14.00">updated_at :datetime</text>
<text text-anchor="start" x="252.495" y="-811.8" font-family="Times,serif" font-size="14.00">name :varchar</text>
</g>
<!-- Contact -->
<g id="node3" class="node"><title>Contact</title>
<path fill="none" stroke="black" d="M11.4946,-562C11.4946,-562 120.505,-562 120.505,-562 126.505,-562 132.505,-568 132.505,-574 132.505,-574 132.505,-692 132.505,-692 132.505,-698 126.505,-704 120.505,-704 120.505,-704 11.4946,-704 11.4946,-704 5.49463,-704 -0.505371,-698 -0.505371,-692 -0.505371,-692 -0.505371,-574 -0.505371,-574 -0.505371,-568 5.49463,-562 11.4946,-562"/>
<text text-anchor="middle" x="66" y="-688.8" font-family="Times,serif" font-size="14.00">Contact</text>
<polyline fill="none" stroke="black" points="-0.505371,-682 132.505,-682 "/>
<text text-anchor="start" x="7.49463" y="-666.8" font-family="Times,serif" font-size="14.00">id :INTEGER</text>
<text text-anchor="start" x="7.49463" y="-652.8" font-family="Times,serif" font-size="14.00">name :varchar</text>
<text text-anchor="start" x="7.49463" y="-638.8" font-family="Times,serif" font-size="14.00">email :varchar</text>
<text text-anchor="start" x="7.49463" y="-624.8" font-family="Times,serif" font-size="14.00">telephone :varchar</text>
<text text-anchor="start" x="7.49463" y="-610.8" font-family="Times,serif" font-size="14.00">info :text</text>
<text text-anchor="start" x="7.49463" y="-596.8" font-family="Times,serif" font-size="14.00">created_at :datetime</text>
<text text-anchor="start" x="7.49463" y="-582.8" font-family="Times,serif" font-size="14.00">updated_at :datetime</text>
<text text-anchor="start" x="7.49463" y="-568.8" font-family="Times,serif" font-size="14.00">band_id :integer</text>
</g>
<!-- Band&#45;&gt;Contact -->
<g id="edge4" class="edge"><title>Band&#45;&gt;Contact</title>
<path fill="none" stroke="#a15076" d="M237.033,-805.054C236.354,-804.698 235.676,-804.347 235,-804 195.192,-783.587 174.835,-797.267 141,-768 123.699,-753.035 109.571,-733.048 98.4313,-713.087"/>
<ellipse fill="none" stroke="#a15076" cx="240.822" cy="-807.11" rx="4.00002" ry="4.00002"/>
<polygon fill="#a15076" stroke="#a15076" points="98.4132,-713.054 97.6461,-702.115 96.0475,-708.649 93.6817,-704.244 93.6817,-704.244 93.6817,-704.244 96.0475,-708.649 89.7173,-706.373 98.4132,-713.054 98.4132,-713.054"/>
</g>
<!-- Location -->
<g id="node6" class="node"><title>Location</title>
<path fill="none" stroke="black" d="M162.495,-562C162.495,-562 271.505,-562 271.505,-562 277.505,-562 283.505,-568 283.505,-574 283.505,-574 283.505,-692 283.505,-692 283.505,-698 277.505,-704 271.505,-704 271.505,-704 162.495,-704 162.495,-704 156.495,-704 150.495,-698 150.495,-692 150.495,-692 150.495,-574 150.495,-574 150.495,-568 156.495,-562 162.495,-562"/>
<text text-anchor="middle" x="217" y="-688.8" font-family="Times,serif" font-size="14.00">Location</text>
<polyline fill="none" stroke="black" points="150.495,-682 283.505,-682 "/>
<text text-anchor="start" x="158.495" y="-666.8" font-family="Times,serif" font-size="14.00">id :INTEGER</text>
<text text-anchor="start" x="158.495" y="-652.8" font-family="Times,serif" font-size="14.00">name :varchar</text>
<text text-anchor="start" x="158.495" y="-638.8" font-family="Times,serif" font-size="14.00">address :varchar</text>
<text text-anchor="start" x="158.495" y="-624.8" font-family="Times,serif" font-size="14.00">website :varchar</text>
<text text-anchor="start" x="158.495" y="-610.8" font-family="Times,serif" font-size="14.00">festival :boolean</text>
<text text-anchor="start" x="158.495" y="-596.8" font-family="Times,serif" font-size="14.00">created_at :datetime</text>
<text text-anchor="start" x="158.495" y="-582.8" font-family="Times,serif" font-size="14.00">updated_at :datetime</text>
<text text-anchor="start" x="158.495" y="-568.8" font-family="Times,serif" font-size="14.00">band_id :integer</text>
</g>
<!-- Band&#45;&gt;Location -->
<g id="edge3" class="edge"><title>Band&#45;&gt;Location</title>
<path fill="none" stroke="#533b16" d="M286.835,-797.443C275.928,-771.916 262.854,-741.317 250.982,-713.533"/>
<ellipse fill="none" stroke="#533b16" cx="288.45" cy="-801.223" rx="4.00002" ry="4.00002"/>
<polygon fill="#533b16" stroke="#533b16" points="250.936,-713.425 251.145,-702.462 248.972,-708.828 247.007,-704.23 247.007,-704.23 247.007,-704.23 248.972,-708.828 242.869,-705.998 250.936,-713.425 250.936,-713.425"/>
</g>
<!-- StatusValue -->
<g id="node8" class="node"><title>StatusValue</title>
<path fill="none" stroke="black" d="M421.495,-1C421.495,-1 530.505,-1 530.505,-1 536.505,-1 542.505,-7 542.505,-13 542.505,-13 542.505,-103 542.505,-103 542.505,-109 536.505,-115 530.505,-115 530.505,-115 421.495,-115 421.495,-115 415.495,-115 409.495,-109 409.495,-103 409.495,-103 409.495,-13 409.495,-13 409.495,-7 415.495,-1 421.495,-1"/>
<text text-anchor="middle" x="476" y="-99.8" font-family="Times,serif" font-size="14.00">StatusValue</text>
<polyline fill="none" stroke="black" points="409.495,-93 542.505,-93 "/>
<text text-anchor="start" x="417.495" y="-77.8" font-family="Times,serif" font-size="14.00">id :INTEGER</text>
<text text-anchor="start" x="417.495" y="-63.8" font-family="Times,serif" font-size="14.00">text :varchar</text>
<text text-anchor="start" x="417.495" y="-49.8" font-family="Times,serif" font-size="14.00">band_id :integer</text>
<text text-anchor="start" x="417.495" y="-35.8" font-family="Times,serif" font-size="14.00">created_at :datetime</text>
<text text-anchor="start" x="417.495" y="-21.8" font-family="Times,serif" font-size="14.00">updated_at :datetime</text>
<text text-anchor="start" x="417.495" y="-7.8" font-family="Times,serif" font-size="14.00">order :integer</text>
</g>
<!-- Band&#45;&gt;StatusValue -->
<g id="edge2" class="edge"><title>Band&#45;&gt;StatusValue</title>
<path fill="none" stroke="#ab2e3c" d="M385.709,-843.429C431.386,-832.691 486.37,-811.139 515,-768 648.505,-566.835 554.912,-258.504 503.56,-124.716"/>
<ellipse fill="none" stroke="#ab2e3c" cx="381.785" cy="-844.31" rx="4.00001" ry="4.00001"/>
<polygon fill="#ab2e3c" stroke="#ab2e3c" points="503.408,-124.326 503.983,-113.375 501.598,-119.665 499.788,-115.004 499.788,-115.004 499.788,-115.004 501.598,-119.665 495.593,-116.634 503.408,-124.326 503.408,-124.326"/>
</g>
<!-- User -->
<g id="node9" class="node"><title>User</title>
<path fill="none" stroke="black" d="M313.722,-499C313.722,-499 494.278,-499 494.278,-499 500.278,-499 506.278,-505 506.278,-511 506.278,-511 506.278,-755 506.278,-755 506.278,-761 500.278,-767 494.278,-767 494.278,-767 313.722,-767 313.722,-767 307.722,-767 301.722,-761 301.722,-755 301.722,-755 301.722,-511 301.722,-511 301.722,-505 307.722,-499 313.722,-499"/>
<text text-anchor="middle" x="404" y="-751.8" font-family="Times,serif" font-size="14.00">User</text>
<polyline fill="none" stroke="black" points="301.722,-745 506.278,-745 "/>
<text text-anchor="start" x="309.722" y="-729.8" font-family="Times,serif" font-size="14.00">id :INTEGER</text>
<text text-anchor="start" x="309.722" y="-715.8" font-family="Times,serif" font-size="14.00">email :varchar</text>
<text text-anchor="start" x="309.722" y="-701.8" font-family="Times,serif" font-size="14.00">encrypted_password :varchar</text>
<text text-anchor="start" x="309.722" y="-687.8" font-family="Times,serif" font-size="14.00">reset_password_token :varchar</text>
<text text-anchor="start" x="309.722" y="-673.8" font-family="Times,serif" font-size="14.00">reset_password_sent_at :datetime</text>
<text text-anchor="start" x="309.722" y="-659.8" font-family="Times,serif" font-size="14.00">remember_created_at :datetime</text>
<text text-anchor="start" x="309.722" y="-645.8" font-family="Times,serif" font-size="14.00">sign_in_count :integer</text>
<text text-anchor="start" x="309.722" y="-631.8" font-family="Times,serif" font-size="14.00">current_sign_in_at :datetime</text>
<text text-anchor="start" x="309.722" y="-617.8" font-family="Times,serif" font-size="14.00">last_sign_in_at :datetime</text>
<text text-anchor="start" x="309.722" y="-603.8" font-family="Times,serif" font-size="14.00">current_sign_in_ip :varchar</text>
<text text-anchor="start" x="309.722" y="-589.8" font-family="Times,serif" font-size="14.00">last_sign_in_ip :varchar</text>
<text text-anchor="start" x="309.722" y="-575.8" font-family="Times,serif" font-size="14.00">name :varchar</text>
<text text-anchor="start" x="309.722" y="-561.8" font-family="Times,serif" font-size="14.00">admin :boolean</text>
<text text-anchor="start" x="309.722" y="-547.8" font-family="Times,serif" font-size="14.00">created_at :datetime</text>
<text text-anchor="start" x="309.722" y="-533.8" font-family="Times,serif" font-size="14.00">updated_at :datetime</text>
<text text-anchor="start" x="309.722" y="-519.8" font-family="Times,serif" font-size="14.00">band_id :integer</text>
<text text-anchor="start" x="309.722" y="-505.8" font-family="Times,serif" font-size="14.00">instruments :varchar</text>
</g>
<!-- Band&#45;&gt;User -->
<g id="edge1" class="edge"><title>Band&#45;&gt;User</title>
<path fill="none" stroke="#c58908" d="M334.908,-797.443C337.731,-790.765 340.701,-783.74 343.758,-776.508"/>
<ellipse fill="none" stroke="#c58908" cx="333.313" cy="-801.217" rx="4.00002" ry="4.00002"/>
<polygon fill="#c58908" stroke="#c58908" points="343.778,-776.46 351.817,-769.002 345.725,-771.855 347.672,-767.249 347.672,-767.249 347.672,-767.249 345.725,-771.855 343.527,-765.497 343.778,-776.46 343.778,-776.46"/>
</g>
<!-- Contactlocation -->
<g id="node4" class="node"><title>Contactlocation</title>
<path fill="none" stroke="black" d="M86.4946,-326C86.4946,-326 195.505,-326 195.505,-326 201.505,-326 207.505,-332 207.505,-338 207.505,-338 207.505,-414 207.505,-414 207.505,-420 201.505,-426 195.505,-426 195.505,-426 86.4946,-426 86.4946,-426 80.4946,-426 74.4946,-420 74.4946,-414 74.4946,-414 74.4946,-338 74.4946,-338 74.4946,-332 80.4946,-326 86.4946,-326"/>
<text text-anchor="middle" x="141" y="-410.8" font-family="Times,serif" font-size="14.00">Contactlocation</text>
<polyline fill="none" stroke="black" points="74.4946,-404 207.505,-404 "/>
<text text-anchor="start" x="82.4946" y="-388.8" font-family="Times,serif" font-size="14.00">id :INTEGER</text>
<text text-anchor="start" x="82.4946" y="-374.8" font-family="Times,serif" font-size="14.00">contact_id :integer</text>
<text text-anchor="start" x="82.4946" y="-360.8" font-family="Times,serif" font-size="14.00">location_id :integer</text>
<text text-anchor="start" x="82.4946" y="-346.8" font-family="Times,serif" font-size="14.00">created_at :datetime</text>
<text text-anchor="start" x="82.4946" y="-332.8" font-family="Times,serif" font-size="14.00">updated_at :datetime</text>
</g>
<!-- Contact&#45;&gt;Contactlocation -->
<g id="edge5" class="edge"><title>Contact&#45;&gt;Contactlocation</title>
<path fill="none" stroke="#bdc314" d="M88.8511,-554.306C100.052,-516.223 113.322,-471.104 123.673,-435.912"/>
<ellipse fill="none" stroke="#bdc314" cx="87.722" cy="-558.145" rx="4.00001" ry="4.00001"/>
<polygon fill="#bdc314" stroke="#bdc314" points="123.689,-435.857 130.828,-427.533 125.1,-431.06 126.511,-426.263 126.511,-426.263 126.511,-426.263 125.1,-431.06 122.194,-424.994 123.689,-435.857 123.689,-435.857"/>
</g>
<!-- Gig -->
<g id="node5" class="node"><title>Gig</title>
<path fill="none" stroke="black" d="M325.384,-291C325.384,-291 482.616,-291 482.616,-291 488.616,-291 494.616,-297 494.616,-303 494.616,-303 494.616,-449 494.616,-449 494.616,-455 488.616,-461 482.616,-461 482.616,-461 325.384,-461 325.384,-461 319.384,-461 313.384,-455 313.384,-449 313.384,-449 313.384,-303 313.384,-303 313.384,-297 319.384,-291 325.384,-291"/>
<text text-anchor="middle" x="404" y="-445.8" font-family="Times,serif" font-size="14.00">Gig</text>
<polyline fill="none" stroke="black" points="313.384,-439 494.616,-439 "/>
<text text-anchor="start" x="321.384" y="-423.8" font-family="Times,serif" font-size="14.00">id :INTEGER</text>
<text text-anchor="start" x="321.384" y="-409.8" font-family="Times,serif" font-size="14.00">created_at :datetime</text>
<text text-anchor="start" x="321.384" y="-395.8" font-family="Times,serif" font-size="14.00">updated_at :datetime</text>
<text text-anchor="start" x="321.384" y="-381.8" font-family="Times,serif" font-size="14.00">name :varchar</text>
<text text-anchor="start" x="321.384" y="-367.8" font-family="Times,serif" font-size="14.00">datetime :datetime</text>
<text text-anchor="start" x="321.384" y="-353.8" font-family="Times,serif" font-size="14.00">link_forum :varchar</text>
<text text-anchor="start" x="321.384" y="-339.8" font-family="Times,serif" font-size="14.00">vorhandenes_equipment :text</text>
<text text-anchor="start" x="321.384" y="-325.8" font-family="Times,serif" font-size="14.00">user_id :integer</text>
<text text-anchor="start" x="321.384" y="-311.8" font-family="Times,serif" font-size="14.00">stagesize :varchar</text>
<text text-anchor="start" x="321.384" y="-297.8" font-family="Times,serif" font-size="14.00">location_id :integer</text>
</g>
<!-- Status -->
<g id="node7" class="node"><title>Status</title>
<path fill="none" stroke="black" d="M355.322,-153C355.322,-153 480.678,-153 480.678,-153 486.678,-153 492.678,-159 492.678,-165 492.678,-165 492.678,-241 492.678,-241 492.678,-247 486.678,-253 480.678,-253 480.678,-253 355.322,-253 355.322,-253 349.322,-253 343.322,-247 343.322,-241 343.322,-241 343.322,-165 343.322,-165 343.322,-159 349.322,-153 355.322,-153"/>
<text text-anchor="middle" x="418" y="-237.8" font-family="Times,serif" font-size="14.00">Status</text>
<polyline fill="none" stroke="black" points="343.322,-231 492.678,-231 "/>
<text text-anchor="start" x="351.322" y="-215.8" font-family="Times,serif" font-size="14.00">id :INTEGER</text>
<text text-anchor="start" x="351.322" y="-201.8" font-family="Times,serif" font-size="14.00">created_at :datetime</text>
<text text-anchor="start" x="351.322" y="-187.8" font-family="Times,serif" font-size="14.00">updated_at :datetime</text>
<text text-anchor="start" x="351.322" y="-173.8" font-family="Times,serif" font-size="14.00">gig_id :integer</text>
<text text-anchor="start" x="351.322" y="-159.8" font-family="Times,serif" font-size="14.00">status_value_id :integer</text>
</g>
<!-- Gig&#45;&gt;Status -->
<g id="edge6" class="edge"><title>Gig&#45;&gt;Status</title>
<path fill="none" stroke="#bf1238" d="M411.561,-282.649C412.09,-276.19 412.614,-269.783 413.122,-263.577"/>
<ellipse fill="none" stroke="#bf1238" cx="411.224" cy="-286.766" rx="4" ry="4"/>
<polygon fill="#bf1238" stroke="#bf1238" points="413.144,-263.316 418.445,-253.716 413.552,-258.332 413.96,-253.349 413.96,-253.349 413.96,-253.349 413.552,-258.332 409.475,-252.982 413.144,-263.316 413.144,-263.316"/>
</g>
<!-- Location&#45;&gt;Contactlocation -->
<g id="edge8" class="edge"><title>Location&#45;&gt;Contactlocation</title>
<path fill="none" stroke="#1b41f4" d="M193.844,-554.306C182.494,-516.223 169.047,-471.104 158.558,-435.912"/>
<ellipse fill="none" stroke="#1b41f4" cx="194.99" cy="-558.149" rx="4.00001" ry="4.00001"/>
<polygon fill="#1b41f4" stroke="#1b41f4" points="158.539,-435.847 159.995,-424.978 157.111,-431.055 155.682,-426.263 155.682,-426.263 155.682,-426.263 157.111,-431.055 151.37,-427.549 158.539,-435.847 158.539,-435.847"/>
</g>
<!-- Location&#45;&gt;Gig -->
<g id="edge7" class="edge"><title>Location&#45;&gt;Gig</title>
<path fill="none" stroke="#85d241" d="M256.742,-554.969C267.679,-535.822 280.105,-515.719 293,-498 300.081,-488.27 307.846,-478.458 315.875,-468.857"/>
<ellipse fill="none" stroke="#85d241" cx="254.751" cy="-558.492" rx="4.00002" ry="4.00002"/>
<polygon fill="#85d241" stroke="#85d241" points="315.895,-468.834 325.795,-464.118 319.129,-465.021 322.363,-461.208 322.363,-461.208 322.363,-461.208 319.129,-465.021 318.932,-458.297 315.895,-468.834 315.895,-468.834"/>
</g>
<!-- Status&#45;&gt;StatusValue -->
<g id="edge9" class="edge"><title>Status&#45;&gt;StatusValue</title>
<path fill="none" stroke="#201c78" d="M440.998,-145.299C444.013,-137.865 447.119,-130.208 450.176,-122.668"/>
<ellipse fill="none" stroke="#201c78" cx="439.464" cy="-149.081" rx="4.00001" ry="4.00001"/>
<ellipse fill="#201c78" stroke="#201c78" cx="451.71" cy="-118.887" rx="4.00001" ry="4.00001"/>
</g>
<!-- User&#45;&gt;Gig -->
<g id="edge10" class="edge"><title>User&#45;&gt;Gig</title>
<path fill="none" stroke="#b94e63" d="M404,-490.813C404,-484.37 404,-477.975 404,-471.693"/>
<ellipse fill="none" stroke="#b94e63" cx="404" cy="-494.899" rx="4" ry="4"/>
<polygon fill="#b94e63" stroke="#b94e63" points="404,-471.241 408.5,-461.241 404,-466.241 404,-461.241 404,-461.241 404,-461.241 404,-466.241 399.5,-461.241 404,-471.241 404,-471.241"/>
</g>
</g>
</svg>
