<?xml version="1.0" encoding="UTF-8" standalone="no"?>
<!DOCTYPE svg PUBLIC "-//W3C//DTD SVG 1.1//EN"
 "http://www.w3.org/Graphics/SVG/1.1/DTD/svg11.dtd">
<!-- Generated by graphviz version 2.36.0 (20140111.2315)
 -->
<!-- Title: models_diagram Pages: 1 -->
<svg width="896pt" height="942pt"
 viewBox="0.00 0.00 896.00 942.00" xmlns="http://www.w3.org/2000/svg" xmlns:xlink="http://www.w3.org/1999/xlink">
<g id="graph0" class="graph" transform="scale(1 1) rotate(0) translate(4 938)">
<title>models_diagram</title>
<polygon fill="none" stroke="none" points="-4,4 -4,-938 892,-938 892,4 -4,4"/>
<!-- _diagram_info -->
<g id="node1" class="node"><title>_diagram_info</title>
<text text-anchor="start" x="7.31226" y="-898.1" font-family="Times,serif" font-size="13.00">Models diagram</text>
<text text-anchor="start" x="7.31226" y="-885.1" font-family="Times,serif" font-size="13.00">Date: Aug 14 2017 &#45; 15:33</text>
<text text-anchor="start" x="7.31226" y="-872.1" font-family="Times,serif" font-size="13.00">Migration version: 20170607091525</text>
<text text-anchor="start" x="7.31226" y="-859.1" font-family="Times,serif" font-size="13.00">Generated by RailRoady 1.5.1</text>
<text text-anchor="start" x="7.31226" y="-846.1" font-family="Times,serif" font-size="13.00">http://railroady.prestonlee.com</text>
</g>
<!-- Activity -->
<g id="node2" class="node"><title>Activity</title>
<path fill="none" stroke="black" d="M236.495,-819C236.495,-819 345.505,-819 345.505,-819 351.505,-819 357.505,-825 357.505,-831 357.505,-831 357.505,-921 357.505,-921 357.505,-927 351.505,-933 345.505,-933 345.505,-933 236.495,-933 236.495,-933 230.495,-933 224.495,-927 224.495,-921 224.495,-921 224.495,-831 224.495,-831 224.495,-825 230.495,-819 236.495,-819"/>
<text text-anchor="middle" x="291" y="-917.8" font-family="Times,serif" font-size="14.00">Activity</text>
<polyline fill="none" stroke="black" points="224.495,-911 357.505,-911 "/>
<text text-anchor="start" x="232.495" y="-895.8" font-family="Times,serif" font-size="14.00">id :INTEGER</text>
<text text-anchor="start" x="232.495" y="-881.8" font-family="Times,serif" font-size="14.00">what :varchar</text>
<text text-anchor="start" x="232.495" y="-867.8" font-family="Times,serif" font-size="14.00">url :varchar</text>
<text text-anchor="start" x="232.495" y="-853.8" font-family="Times,serif" font-size="14.00">manual :boolean</text>
<text text-anchor="start" x="232.495" y="-839.8" font-family="Times,serif" font-size="14.00">created_at :datetime</text>
<text text-anchor="start" x="232.495" y="-825.8" font-family="Times,serif" font-size="14.00">updated_at :datetime</text>
</g>
<!-- Band -->
<g id="node3" class="node"><title>Band</title>
<path fill="none" stroke="black" d="M387.495,-826C387.495,-826 496.505,-826 496.505,-826 502.505,-826 508.505,-832 508.505,-838 508.505,-838 508.505,-914 508.505,-914 508.505,-920 502.505,-926 496.505,-926 496.505,-926 387.495,-926 387.495,-926 381.495,-926 375.495,-920 375.495,-914 375.495,-914 375.495,-838 375.495,-838 375.495,-832 381.495,-826 387.495,-826"/>
<text text-anchor="middle" x="442" y="-910.8" font-family="Times,serif" font-size="14.00">Band</text>
<polyline fill="none" stroke="black" points="375.495,-904 508.505,-904 "/>
<text text-anchor="start" x="383.495" y="-888.8" font-family="Times,serif" font-size="14.00">id :INTEGER</text>
<text text-anchor="start" x="383.495" y="-874.8" font-family="Times,serif" font-size="14.00">tech_rider :text</text>
<text text-anchor="start" x="383.495" y="-860.8" font-family="Times,serif" font-size="14.00">created_at :datetime</text>
<text text-anchor="start" x="383.495" y="-846.8" font-family="Times,serif" font-size="14.00">updated_at :datetime</text>
<text text-anchor="start" x="383.495" y="-832.8" font-family="Times,serif" font-size="14.00">name :varchar</text>
</g>
<!-- User -->
<g id="node14" class="node"><title>User</title>
<path fill="none" stroke="black" d="M351.722,-513C351.722,-513 532.278,-513 532.278,-513 538.278,-513 544.278,-519 544.278,-525 544.278,-525 544.278,-769 544.278,-769 544.278,-775 538.278,-781 532.278,-781 532.278,-781 351.722,-781 351.722,-781 345.722,-781 339.722,-775 339.722,-769 339.722,-769 339.722,-525 339.722,-525 339.722,-519 345.722,-513 351.722,-513"/>
<text text-anchor="middle" x="442" y="-765.8" font-family="Times,serif" font-size="14.00">User</text>
<polyline fill="none" stroke="black" points="339.722,-759 544.278,-759 "/>
<text text-anchor="start" x="347.722" y="-743.8" font-family="Times,serif" font-size="14.00">instruments :varchar</text>
<text text-anchor="start" x="347.722" y="-729.8" font-family="Times,serif" font-size="14.00">email :varchar</text>
<text text-anchor="start" x="347.722" y="-715.8" font-family="Times,serif" font-size="14.00">encrypted_password :varchar</text>
<text text-anchor="start" x="347.722" y="-701.8" font-family="Times,serif" font-size="14.00">reset_password_token :varchar</text>
<text text-anchor="start" x="347.722" y="-687.8" font-family="Times,serif" font-size="14.00">reset_password_sent_at :datetime</text>
<text text-anchor="start" x="347.722" y="-673.8" font-family="Times,serif" font-size="14.00">remember_created_at :datetime</text>
<text text-anchor="start" x="347.722" y="-659.8" font-family="Times,serif" font-size="14.00">sign_in_count :integer</text>
<text text-anchor="start" x="347.722" y="-645.8" font-family="Times,serif" font-size="14.00">current_sign_in_at :datetime</text>
<text text-anchor="start" x="347.722" y="-631.8" font-family="Times,serif" font-size="14.00">last_sign_in_at :datetime</text>
<text text-anchor="start" x="347.722" y="-617.8" font-family="Times,serif" font-size="14.00">current_sign_in_ip :varchar</text>
<text text-anchor="start" x="347.722" y="-603.8" font-family="Times,serif" font-size="14.00">last_sign_in_ip :varchar</text>
<text text-anchor="start" x="347.722" y="-589.8" font-family="Times,serif" font-size="14.00">name :varchar</text>
<text text-anchor="start" x="347.722" y="-575.8" font-family="Times,serif" font-size="14.00">admin :boolean</text>
<text text-anchor="start" x="347.722" y="-561.8" font-family="Times,serif" font-size="14.00">created_at :datetime</text>
<text text-anchor="start" x="347.722" y="-547.8" font-family="Times,serif" font-size="14.00">updated_at :datetime</text>
<text text-anchor="start" x="347.722" y="-533.8" font-family="Times,serif" font-size="14.00">band_id :integer</text>
<text text-anchor="start" x="347.722" y="-519.8" font-family="Times,serif" font-size="14.00">id :INTEGER</text>
</g>
<!-- Band&#45;&gt;User -->
<g id="edge1" class="edge"><title>Band&#45;&gt;User</title>
<path fill="none" stroke="#4274d7" d="M442,-817.679C442,-809.358 442,-800.498 442,-791.36"/>
<ellipse fill="none" stroke="#4274d7" cx="442" cy="-821.744" rx="4" ry="4"/>
<polygon fill="#4274d7" stroke="#4274d7" points="442,-791.347 446.5,-781.347 442,-786.347 442,-781.347 442,-781.347 442,-781.347 442,-786.347 437.5,-781.347 442,-791.347 442,-791.347"/>
</g>
<!-- Contact -->
<g id="node4" class="node"><title>Contact</title>
<path fill="none" stroke="black" d="M767.495,-583C767.495,-583 876.505,-583 876.505,-583 882.505,-583 888.505,-589 888.505,-595 888.505,-595 888.505,-699 888.505,-699 888.505,-705 882.505,-711 876.505,-711 876.505,-711 767.495,-711 767.495,-711 761.495,-711 755.495,-705 755.495,-699 755.495,-699 755.495,-595 755.495,-595 755.495,-589 761.495,-583 767.495,-583"/>
<text text-anchor="middle" x="822" y="-695.8" font-family="Times,serif" font-size="14.00">Contact</text>
<polyline fill="none" stroke="black" points="755.495,-689 888.505,-689 "/>
<text text-anchor="start" x="763.495" y="-673.8" font-family="Times,serif" font-size="14.00">telephone :varchar</text>
<text text-anchor="start" x="763.495" y="-659.8" font-family="Times,serif" font-size="14.00">name :varchar</text>
<text text-anchor="start" x="763.495" y="-645.8" font-family="Times,serif" font-size="14.00">email :varchar</text>
<text text-anchor="start" x="763.495" y="-631.8" font-family="Times,serif" font-size="14.00">id :INTEGER</text>
<text text-anchor="start" x="763.495" y="-617.8" font-family="Times,serif" font-size="14.00">info :text</text>
<text text-anchor="start" x="763.495" y="-603.8" font-family="Times,serif" font-size="14.00">created_at :datetime</text>
<text text-anchor="start" x="763.495" y="-589.8" font-family="Times,serif" font-size="14.00">updated_at :datetime</text>
</g>
<!-- Contactlocation -->
<g id="node5" class="node"><title>Contactlocation</title>
<path fill="none" stroke="black" d="M681.495,-347C681.495,-347 790.505,-347 790.505,-347 796.505,-347 802.505,-353 802.505,-359 802.505,-359 802.505,-435 802.505,-435 802.505,-441 796.505,-447 790.505,-447 790.505,-447 681.495,-447 681.495,-447 675.495,-447 669.495,-441 669.495,-435 669.495,-435 669.495,-359 669.495,-359 669.495,-353 675.495,-347 681.495,-347"/>
<text text-anchor="middle" x="736" y="-431.8" font-family="Times,serif" font-size="14.00">Contactlocation</text>
<polyline fill="none" stroke="black" points="669.495,-425 802.505,-425 "/>
<text text-anchor="start" x="677.495" y="-409.8" font-family="Times,serif" font-size="14.00">id :INTEGER</text>
<text text-anchor="start" x="677.495" y="-395.8" font-family="Times,serif" font-size="14.00">contact_id :integer</text>
<text text-anchor="start" x="677.495" y="-381.8" font-family="Times,serif" font-size="14.00">location_id :integer</text>
<text text-anchor="start" x="677.495" y="-367.8" font-family="Times,serif" font-size="14.00">created_at :datetime</text>
<text text-anchor="start" x="677.495" y="-353.8" font-family="Times,serif" font-size="14.00">updated_at :datetime</text>
</g>
<!-- Contact&#45;&gt;Contactlocation -->
<g id="edge2" class="edge"><title>Contact&#45;&gt;Contactlocation</title>
<path fill="none" stroke="#1af52a" d="M797.373,-574.983C784.39,-537.544 768.656,-492.17 756.369,-456.737"/>
<ellipse fill="none" stroke="#1af52a" cx="798.765" cy="-578.998" rx="4.00001" ry="4.00001"/>
<polygon fill="#1af52a" stroke="#1af52a" points="756.276,-456.47 757.251,-445.548 754.638,-451.746 753,-447.022 753,-447.022 753,-447.022 754.638,-451.746 748.748,-448.497 756.276,-456.47 756.276,-456.47"/>
</g>
<!-- Email -->
<g id="node6" class="node"><title>Email</title>
<path fill="none" stroke="black" d="M236.339,-139C236.339,-139 361.661,-139 361.661,-139 367.661,-139 373.661,-145 373.661,-151 373.661,-151 373.661,-269 373.661,-269 373.661,-275 367.661,-281 361.661,-281 361.661,-281 236.339,-281 236.339,-281 230.339,-281 224.339,-275 224.339,-269 224.339,-269 224.339,-151 224.339,-151 224.339,-145 230.339,-139 236.339,-139"/>
<text text-anchor="middle" x="299" y="-265.8" font-family="Times,serif" font-size="14.00">Email</text>
<polyline fill="none" stroke="black" points="224.339,-259 373.661,-259 "/>
<text text-anchor="start" x="232.339" y="-243.8" font-family="Times,serif" font-size="14.00">transferred_at :datetime</text>
<text text-anchor="start" x="232.339" y="-229.8" font-family="Times,serif" font-size="14.00">subject :varchar</text>
<text text-anchor="start" x="232.339" y="-215.8" font-family="Times,serif" font-size="14.00">text :text</text>
<text text-anchor="start" x="232.339" y="-201.8" font-family="Times,serif" font-size="14.00">gig_id :integer</text>
<text text-anchor="start" x="232.339" y="-187.8" font-family="Times,serif" font-size="14.00">created_at :datetime</text>
<text text-anchor="start" x="232.339" y="-173.8" font-family="Times,serif" font-size="14.00">updated_at :datetime</text>
<text text-anchor="start" x="232.339" y="-159.8" font-family="Times,serif" font-size="14.00">email_type_id :integer</text>
<text text-anchor="start" x="232.339" y="-145.8" font-family="Times,serif" font-size="14.00">id :INTEGER</text>
</g>
<!-- EmailType -->
<g id="node7" class="node"><title>EmailType</title>
<path fill="none" stroke="black" d="M244.495,-8C244.495,-8 353.505,-8 353.505,-8 359.505,-8 365.505,-14 365.505,-20 365.505,-20 365.505,-82 365.505,-82 365.505,-88 359.505,-94 353.505,-94 353.505,-94 244.495,-94 244.495,-94 238.495,-94 232.495,-88 232.495,-82 232.495,-82 232.495,-20 232.495,-20 232.495,-14 238.495,-8 244.495,-8"/>
<text text-anchor="middle" x="299" y="-78.8" font-family="Times,serif" font-size="14.00">EmailType</text>
<polyline fill="none" stroke="black" points="232.495,-72 365.505,-72 "/>
<text text-anchor="start" x="240.495" y="-56.8" font-family="Times,serif" font-size="14.00">id :INTEGER</text>
<text text-anchor="start" x="240.495" y="-42.8" font-family="Times,serif" font-size="14.00">text :varchar</text>
<text text-anchor="start" x="240.495" y="-28.8" font-family="Times,serif" font-size="14.00">created_at :datetime</text>
<text text-anchor="start" x="240.495" y="-14.8" font-family="Times,serif" font-size="14.00">updated_at :datetime</text>
</g>
<!-- Email&#45;&gt;EmailType -->
<g id="edge3" class="edge"><title>Email&#45;&gt;EmailType</title>
<path fill="none" stroke="#07b072" d="M299,-130.552C299,-120.968 299,-111.382 299,-102.366"/>
<ellipse fill="none" stroke="#07b072" cx="299" cy="-134.766" rx="4" ry="4"/>
<ellipse fill="#07b072" stroke="#07b072" cx="299" cy="-98.2635" rx="4" ry="4"/>
</g>
<!-- Fan -->
<g id="node8" class="node"><title>Fan</title>
<path fill="none" stroke="black" d="M538.043,-819C538.043,-819 657.957,-819 657.957,-819 663.957,-819 669.957,-825 669.957,-831 669.957,-831 669.957,-921 669.957,-921 669.957,-927 663.957,-933 657.957,-933 657.957,-933 538.043,-933 538.043,-933 532.043,-933 526.043,-927 526.043,-921 526.043,-921 526.043,-831 526.043,-831 526.043,-825 532.043,-819 538.043,-819"/>
<text text-anchor="middle" x="598" y="-917.8" font-family="Times,serif" font-size="14.00">Fan</text>
<polyline fill="none" stroke="black" points="526.043,-911 669.957,-911 "/>
<text text-anchor="start" x="534.043" y="-895.8" font-family="Times,serif" font-size="14.00">id :INTEGER</text>
<text text-anchor="start" x="534.043" y="-881.8" font-family="Times,serif" font-size="14.00">name :varchar</text>
<text text-anchor="start" x="534.043" y="-867.8" font-family="Times,serif" font-size="14.00">email :varchar</text>
<text text-anchor="start" x="534.043" y="-853.8" font-family="Times,serif" font-size="14.00">responsible_id :integer</text>
<text text-anchor="start" x="534.043" y="-839.8" font-family="Times,serif" font-size="14.00">created_at :datetime</text>
<text text-anchor="start" x="534.043" y="-825.8" font-family="Times,serif" font-size="14.00">updated_at :datetime</text>
</g>
<!-- Gig -->
<g id="node9" class="node"><title>Gig</title>
<path fill="none" stroke="black" d="M379.384,-319C379.384,-319 536.616,-319 536.616,-319 542.616,-319 548.616,-325 548.616,-331 548.616,-331 548.616,-463 548.616,-463 548.616,-469 542.616,-475 536.616,-475 536.616,-475 379.384,-475 379.384,-475 373.384,-475 367.384,-469 367.384,-463 367.384,-463 367.384,-331 367.384,-331 367.384,-325 373.384,-319 379.384,-319"/>
<text text-anchor="middle" x="458" y="-459.8" font-family="Times,serif" font-size="14.00">Gig</text>
<polyline fill="none" stroke="black" points="367.384,-453 548.616,-453 "/>
<text text-anchor="start" x="375.384" y="-437.8" font-family="Times,serif" font-size="14.00">location_id :integer</text>
<text text-anchor="start" x="375.384" y="-423.8" font-family="Times,serif" font-size="14.00">created_at :datetime</text>
<text text-anchor="start" x="375.384" y="-409.8" font-family="Times,serif" font-size="14.00">updated_at :datetime</text>
<text text-anchor="start" x="375.384" y="-395.8" font-family="Times,serif" font-size="14.00">name :varchar</text>
<text text-anchor="start" x="375.384" y="-381.8" font-family="Times,serif" font-size="14.00">datetime :datetime</text>
<text text-anchor="start" x="375.384" y="-367.8" font-family="Times,serif" font-size="14.00">link_forum :varchar</text>
<text text-anchor="start" x="375.384" y="-353.8" font-family="Times,serif" font-size="14.00">vorhandenes_equipment :text</text>
<text text-anchor="start" x="375.384" y="-339.8" font-family="Times,serif" font-size="14.00">user_id :integer</text>
<text text-anchor="start" x="375.384" y="-325.8" font-family="Times,serif" font-size="14.00">id :INTEGER</text>
</g>
<!-- Gig&#45;&gt;Email -->
<g id="edge5" class="edge"><title>Gig&#45;&gt;Email</title>
<path fill="none" stroke="#b164f9" d="M386.414,-312.708C379.628,-304.812 372.765,-296.827 366.024,-288.984"/>
<ellipse fill="none" stroke="#b164f9" cx="389.114" cy="-315.849" rx="4.00002" ry="4.00002"/>
<polygon fill="#b164f9" stroke="#b164f9" points="365.85,-288.781 362.744,-278.264 362.591,-284.989 359.332,-281.197 359.332,-281.197 359.332,-281.197 362.591,-284.989 355.919,-284.13 365.85,-288.781 365.85,-288.781"/>
</g>
<!-- Reminder -->
<g id="node11" class="node"><title>Reminder</title>
<path fill="none" stroke="black" d="M403.495,-146C403.495,-146 512.505,-146 512.505,-146 518.505,-146 524.505,-152 524.505,-158 524.505,-158 524.505,-262 524.505,-262 524.505,-268 518.505,-274 512.505,-274 512.505,-274 403.495,-274 403.495,-274 397.495,-274 391.495,-268 391.495,-262 391.495,-262 391.495,-158 391.495,-158 391.495,-152 397.495,-146 403.495,-146"/>
<text text-anchor="middle" x="458" y="-258.8" font-family="Times,serif" font-size="14.00">Reminder</text>
<polyline fill="none" stroke="black" points="391.495,-252 524.505,-252 "/>
<text text-anchor="start" x="399.495" y="-236.8" font-family="Times,serif" font-size="14.00">text :text</text>
<text text-anchor="start" x="399.495" y="-222.8" font-family="Times,serif" font-size="14.00">done :boolean</text>
<text text-anchor="start" x="399.495" y="-208.8" font-family="Times,serif" font-size="14.00">due :date</text>
<text text-anchor="start" x="399.495" y="-194.8" font-family="Times,serif" font-size="14.00">id :INTEGER</text>
<text text-anchor="start" x="399.495" y="-180.8" font-family="Times,serif" font-size="14.00">gig_id :integer</text>
<text text-anchor="start" x="399.495" y="-166.8" font-family="Times,serif" font-size="14.00">created_at :datetime</text>
<text text-anchor="start" x="399.495" y="-152.8" font-family="Times,serif" font-size="14.00">updated_at :datetime</text>
</g>
<!-- Gig&#45;&gt;Reminder -->
<g id="edge6" class="edge"><title>Gig&#45;&gt;Reminder</title>
<path fill="none" stroke="#a69867" d="M458,-310.823C458,-301.969 458,-293.025 458,-284.319"/>
<ellipse fill="none" stroke="#a69867" cx="458" cy="-314.883" rx="4" ry="4"/>
<polygon fill="#a69867" stroke="#a69867" points="458,-284.227 462.5,-274.227 458,-279.227 458,-274.227 458,-274.227 458,-274.227 458,-279.227 453.5,-274.227 458,-284.227 458,-284.227"/>
</g>
<!-- Status -->
<g id="node12" class="node"><title>Status</title>
<path fill="none" stroke="black" d="M554.322,-160C554.322,-160 679.678,-160 679.678,-160 685.678,-160 691.678,-166 691.678,-172 691.678,-172 691.678,-248 691.678,-248 691.678,-254 685.678,-260 679.678,-260 679.678,-260 554.322,-260 554.322,-260 548.322,-260 542.322,-254 542.322,-248 542.322,-248 542.322,-172 542.322,-172 542.322,-166 548.322,-160 554.322,-160"/>
<text text-anchor="middle" x="617" y="-244.8" font-family="Times,serif" font-size="14.00">Status</text>
<polyline fill="none" stroke="black" points="542.322,-238 691.678,-238 "/>
<text text-anchor="start" x="550.322" y="-222.8" font-family="Times,serif" font-size="14.00">id :INTEGER</text>
<text text-anchor="start" x="550.322" y="-208.8" font-family="Times,serif" font-size="14.00">created_at :datetime</text>
<text text-anchor="start" x="550.322" y="-194.8" font-family="Times,serif" font-size="14.00">updated_at :datetime</text>
<text text-anchor="start" x="550.322" y="-180.8" font-family="Times,serif" font-size="14.00">gig_id :integer</text>
<text text-anchor="start" x="550.322" y="-166.8" font-family="Times,serif" font-size="14.00">status_value_id :integer</text>
</g>
<!-- Gig&#45;&gt;Status -->
<g id="edge4" class="edge"><title>Gig&#45;&gt;Status</title>
<path fill="none" stroke="#e15ef5" d="M529.494,-312.815C542.516,-297.664 555.827,-282.176 568.011,-268"/>
<ellipse fill="none" stroke="#e15ef5" cx="526.886" cy="-315.849" rx="4.00002" ry="4.00002"/>
<polygon fill="#e15ef5" stroke="#e15ef5" points="568.137,-267.853 578.068,-263.202 571.396,-264.061 574.655,-260.269 574.655,-260.269 574.655,-260.269 571.396,-264.061 571.242,-257.336 568.137,-267.853 568.137,-267.853"/>
</g>
<!-- Location -->
<g id="node10" class="node"><title>Location</title>
<path fill="none" stroke="black" d="M574.3,-569C574.3,-569 725.7,-569 725.7,-569 731.7,-569 737.7,-575 737.7,-581 737.7,-581 737.7,-713 737.7,-713 737.7,-719 731.7,-725 725.7,-725 725.7,-725 574.3,-725 574.3,-725 568.3,-725 562.3,-719 562.3,-713 562.3,-713 562.3,-581 562.3,-581 562.3,-575 568.3,-569 574.3,-569"/>
<text text-anchor="middle" x="650" y="-709.8" font-family="Times,serif" font-size="14.00">Location</text>
<polyline fill="none" stroke="black" points="562.3,-703 737.7,-703 "/>
<text text-anchor="start" x="570.3" y="-687.8" font-family="Times,serif" font-size="14.00">address_lng :decimal(12,10)</text>
<text text-anchor="start" x="570.3" y="-673.8" font-family="Times,serif" font-size="14.00">name :varchar</text>
<text text-anchor="start" x="570.3" y="-659.8" font-family="Times,serif" font-size="14.00">address :varchar</text>
<text text-anchor="start" x="570.3" y="-645.8" font-family="Times,serif" font-size="14.00">website :varchar</text>
<text text-anchor="start" x="570.3" y="-631.8" font-family="Times,serif" font-size="14.00">festival :boolean</text>
<text text-anchor="start" x="570.3" y="-617.8" font-family="Times,serif" font-size="14.00">created_at :datetime</text>
<text text-anchor="start" x="570.3" y="-603.8" font-family="Times,serif" font-size="14.00">updated_at :datetime</text>
<text text-anchor="start" x="570.3" y="-589.8" font-family="Times,serif" font-size="14.00">address_lat :decimal(12,10)</text>
<text text-anchor="start" x="570.3" y="-575.8" font-family="Times,serif" font-size="14.00">id :INTEGER</text>
</g>
<!-- Location&#45;&gt;Contactlocation -->
<g id="edge8" class="edge"><title>Location&#45;&gt;Contactlocation</title>
<path fill="none" stroke="#cd765e" d="M679.513,-560.894C691.367,-526.708 704.744,-488.135 715.503,-457.108"/>
<ellipse fill="none" stroke="#cd765e" cx="678.05" cy="-565.111" rx="4.00001" ry="4.00001"/>
<polygon fill="#cd765e" stroke="#cd765e" points="715.623,-456.762 723.151,-448.789 717.261,-452.038 718.899,-447.314 718.899,-447.314 718.899,-447.314 717.261,-452.038 714.647,-445.84 715.623,-456.762 715.623,-456.762"/>
</g>
<!-- Location&#45;&gt;Gig -->
<g id="edge7" class="edge"><title>Location&#45;&gt;Gig</title>
<path fill="none" stroke="#18209a" d="M590.653,-562.162C578.408,-545.393 565.446,-528.015 553,-512 545.713,-502.624 537.97,-492.928 530.172,-483.332"/>
<ellipse fill="none" stroke="#18209a" cx="593.134" cy="-565.569" rx="4.00002" ry="4.00002"/>
<polygon fill="#18209a" stroke="#18209a" points="529.942,-483.05 527.103,-472.458 526.78,-479.177 523.618,-475.304 523.618,-475.304 523.618,-475.304 526.78,-479.177 520.132,-478.15 529.942,-483.05 529.942,-483.05"/>
</g>
<!-- StatusValue -->
<g id="node13" class="node"><title>StatusValue</title>
<path fill="none" stroke="black" d="M562.495,-1C562.495,-1 671.505,-1 671.505,-1 677.505,-1 683.505,-7 683.505,-13 683.505,-13 683.505,-89 683.505,-89 683.505,-95 677.505,-101 671.505,-101 671.505,-101 562.495,-101 562.495,-101 556.495,-101 550.495,-95 550.495,-89 550.495,-89 550.495,-13 550.495,-13 550.495,-7 556.495,-1 562.495,-1"/>
<text text-anchor="middle" x="617" y="-85.8" font-family="Times,serif" font-size="14.00">StatusValue</text>
<polyline fill="none" stroke="black" points="550.495,-79 683.505,-79 "/>
<text text-anchor="start" x="558.495" y="-63.8" font-family="Times,serif" font-size="14.00">id :INTEGER</text>
<text text-anchor="start" x="558.495" y="-49.8" font-family="Times,serif" font-size="14.00">text :varchar</text>
<text text-anchor="start" x="558.495" y="-35.8" font-family="Times,serif" font-size="14.00">created_at :datetime</text>
<text text-anchor="start" x="558.495" y="-21.8" font-family="Times,serif" font-size="14.00">updated_at :datetime</text>
<text text-anchor="start" x="558.495" y="-7.8" font-family="Times,serif" font-size="14.00">order :integer</text>
</g>
<!-- Status&#45;&gt;StatusValue -->
<g id="edge9" class="edge"><title>Status&#45;&gt;StatusValue</title>
<path fill="none" stroke="#5c77f8" d="M617,-151.725C617,-137.839 617,-122.995 617,-109.116"/>
<ellipse fill="none" stroke="#5c77f8" cx="617" cy="-155.755" rx="4" ry="4"/>
<ellipse fill="#5c77f8" stroke="#5c77f8" cx="617" cy="-105.07" rx="4" ry="4"/>
</g>
<!-- User&#45;&gt;Gig -->
<g id="edge10" class="edge"><title>User&#45;&gt;Gig</title>
<path fill="none" stroke="#9b0ff4" d="M451.109,-504.804C451.527,-498.339 451.94,-491.938 452.344,-485.672"/>
<ellipse fill="none" stroke="#9b0ff4" cx="450.843" cy="-508.933" rx="4" ry="4"/>
<polygon fill="#9b0ff4" stroke="#9b0ff4" points="452.371,-485.248 457.506,-475.558 452.693,-480.258 453.015,-475.268 453.015,-475.268 453.015,-475.268 452.693,-480.258 448.524,-474.979 452.371,-485.248 452.371,-485.248"/>
</g>
</g>
</svg>
