<?xml version="1.0" encoding="UTF-8" standalone="no"?>
<!DOCTYPE svg PUBLIC "-//W3C//DTD SVG 1.1//EN"
 "http://www.w3.org/Graphics/SVG/1.1/DTD/svg11.dtd">
<!-- Generated by graphviz version 2.36.0 (20140111.2315)
 -->
<!-- Title: models_diagram Pages: 1 -->
<svg width="492pt" height="370pt"
 viewBox="0.00 0.00 492.00 370.00" xmlns="http://www.w3.org/2000/svg" xmlns:xlink="http://www.w3.org/1999/xlink">
<g id="graph0" class="graph" transform="scale(1 1) rotate(0) translate(4 366)">
<title>models_diagram</title>
<polygon fill="none" stroke="none" points="-4,4 -4,-366 488,-366 488,4 -4,4"/>
<!-- _diagram_info -->
<g id="node1" class="node"><title>_diagram_info</title>
<text text-anchor="start" x="7.31226" y="-347.1" font-family="Times,serif" font-size="13.00">Models diagram</text>
<text text-anchor="start" x="7.31226" y="-334.1" font-family="Times,serif" font-size="13.00">Date: Dec 28 2016 &#45; 09:37</text>
<text text-anchor="start" x="7.31226" y="-321.1" font-family="Times,serif" font-size="13.00">Migration version: 20161028190644</text>
<text text-anchor="start" x="7.31226" y="-308.1" font-family="Times,serif" font-size="13.00">Generated by RailRoady 1.4.2</text>
<text text-anchor="start" x="7.31226" y="-295.1" font-family="Times,serif" font-size="13.00">http://railroady.prestonlee.com</text>
</g>
<!-- Band -->
<g id="node2" class="node"><title>Band</title>
<ellipse fill="none" stroke="black" cx="253" cy="-325" rx="28.1657" ry="18"/>
<text text-anchor="middle" x="253" y="-320.8" font-family="Times,serif" font-size="14.00">Band</text>
</g>
<!-- User -->
<g id="node12" class="node"><title>User</title>
<ellipse fill="none" stroke="black" cx="253" cy="-234" rx="27" ry="18"/>
<text text-anchor="middle" x="253" y="-229.8" font-family="Times,serif" font-size="14.00">User</text>
</g>
<!-- Band&#45;&gt;User -->
<g id="edge1" class="edge"><title>Band&#45;&gt;User</title>
<path fill="none" stroke="#579e57" d="M253,-298.546C253,-287.148 253,-273.696 253,-262.11"/>
<ellipse fill="none" stroke="#579e57" cx="253" cy="-302.84" rx="4" ry="4"/>
<polygon fill="#579e57" stroke="#579e57" points="253,-262.107 257.5,-252.107 253,-257.107 253,-252.107 253,-252.107 253,-252.107 253,-257.107 248.5,-252.107 253,-262.107 253,-262.107"/>
</g>
<!-- Contact -->
<g id="node3" class="node"><title>Contact</title>
<ellipse fill="none" stroke="black" cx="437" cy="-234" rx="37.4191" ry="18"/>
<text text-anchor="middle" x="437" y="-229.8" font-family="Times,serif" font-size="14.00">Contact</text>
</g>
<!-- Contactlocation -->
<g id="node4" class="node"><title>Contactlocation</title>
<ellipse fill="none" stroke="black" cx="418" cy="-162" rx="66.1495" ry="18"/>
<text text-anchor="middle" x="418" y="-157.8" font-family="Times,serif" font-size="14.00">Contactlocation</text>
</g>
<!-- Contact&#45;&gt;Contactlocation -->
<g id="edge2" class="edge"><title>Contact&#45;&gt;Contactlocation</title>
<path fill="none" stroke="#937b1e" d="M430.287,-208.267C428.678,-202.34 426.952,-195.981 425.317,-189.959"/>
<ellipse fill="none" stroke="#937b1e" cx="431.353" cy="-212.195" rx="4.00001" ry="4.00001"/>
<polygon fill="#937b1e" stroke="#937b1e" points="425.309,-189.926 427.032,-179.096 423.999,-185.101 422.689,-180.275 422.689,-180.275 422.689,-180.275 423.999,-185.101 418.346,-181.454 425.309,-189.926 425.309,-189.926"/>
</g>
<!-- Email -->
<g id="node5" class="node"><title>Email</title>
<ellipse fill="none" stroke="black" cx="177" cy="-90" rx="31.3408" ry="18"/>
<text text-anchor="middle" x="177" y="-85.8" font-family="Times,serif" font-size="14.00">Email</text>
</g>
<!-- EmailType -->
<g id="node6" class="node"><title>EmailType</title>
<ellipse fill="none" stroke="black" cx="177" cy="-18" rx="48.1723" ry="18"/>
<text text-anchor="middle" x="177" y="-13.8" font-family="Times,serif" font-size="14.00">EmailType</text>
</g>
<!-- Email&#45;&gt;EmailType -->
<g id="edge3" class="edge"><title>Email&#45;&gt;EmailType</title>
<path fill="none" stroke="#546c92" d="M177,-63.6398C177,-57.348 177,-50.6053 177,-44.3156"/>
<ellipse fill="none" stroke="#546c92" cx="177" cy="-67.6966" rx="4" ry="4"/>
<ellipse fill="#546c92" stroke="#546c92" cx="177" cy="-40.1043" rx="4" ry="4"/>
</g>
<!-- Gig -->
<g id="node7" class="node"><title>Gig</title>
<ellipse fill="none" stroke="black" cx="271" cy="-162" rx="27" ry="18"/>
<text text-anchor="middle" x="271" y="-157.8" font-family="Times,serif" font-size="14.00">Gig</text>
</g>
<!-- Gig&#45;&gt;Email -->
<g id="edge5" class="edge"><title>Gig&#45;&gt;Email</title>
<path fill="none" stroke="#fadb12" d="M246.748,-142.94C233.436,-133.027 216.915,-120.724 203.294,-110.581"/>
<ellipse fill="none" stroke="#fadb12" cx="250.111" cy="-145.444" rx="4.00002" ry="4.00002"/>
<polygon fill="#fadb12" stroke="#fadb12" points="203.263,-110.558 197.93,-100.976 199.253,-107.571 195.243,-104.585 195.243,-104.585 195.243,-104.585 199.253,-107.571 192.555,-108.194 203.263,-110.558 203.263,-110.558"/>
</g>
<!-- Reminder -->
<g id="node9" class="node"><title>Reminder</title>
<ellipse fill="none" stroke="black" cx="271" cy="-90" rx="44.4699" ry="18"/>
<text text-anchor="middle" x="271" y="-85.8" font-family="Times,serif" font-size="14.00">Reminder</text>
</g>
<!-- Gig&#45;&gt;Reminder -->
<g id="edge6" class="edge"><title>Gig&#45;&gt;Reminder</title>
<path fill="none" stroke="#109517" d="M271,-135.64C271,-130.063 271,-124.132 271,-118.476"/>
<ellipse fill="none" stroke="#109517" cx="271" cy="-139.697" rx="4" ry="4"/>
<polygon fill="#109517" stroke="#109517" points="271,-118.104 275.5,-108.104 271,-113.104 271,-108.104 271,-108.104 271,-108.104 271,-113.104 266.5,-108.104 271,-118.104 271,-118.104"/>
</g>
<!-- Status -->
<g id="node10" class="node"><title>Status</title>
<ellipse fill="none" stroke="black" cx="366" cy="-90" rx="31.5903" ry="18"/>
<text text-anchor="middle" x="366" y="-85.8" font-family="Times,serif" font-size="14.00">Status</text>
</g>
<!-- Gig&#45;&gt;Status -->
<g id="edge4" class="edge"><title>Gig&#45;&gt;Status</title>
<path fill="none" stroke="#1d7a84" d="M295.055,-143.275C308.507,-133.363 325.307,-120.984 339.182,-110.761"/>
<ellipse fill="none" stroke="#1d7a84" cx="291.645" cy="-145.788" rx="4.00002" ry="4.00002"/>
<polygon fill="#1d7a84" stroke="#1d7a84" points="339.336,-110.647 350.056,-108.338 343.362,-107.681 347.387,-104.715 347.387,-104.715 347.387,-104.715 343.362,-107.681 344.717,-101.092 339.336,-110.647 339.336,-110.647"/>
</g>
<!-- Location -->
<g id="node8" class="node"><title>Location</title>
<ellipse fill="none" stroke="black" cx="340" cy="-234" rx="41.3072" ry="18"/>
<text text-anchor="middle" x="340" y="-229.8" font-family="Times,serif" font-size="14.00">Location</text>
</g>
<!-- Location&#45;&gt;Contactlocation -->
<g id="edge8" class="edge"><title>Location&#45;&gt;Contactlocation</title>
<path fill="none" stroke="#8206ef" d="M363.491,-211.918C372.545,-203.793 382.93,-194.473 392.19,-186.162"/>
<ellipse fill="none" stroke="#8206ef" cx="360.288" cy="-214.793" rx="4.00002" ry="4.00002"/>
<polygon fill="#8206ef" stroke="#8206ef" points="392.208,-186.146 402.656,-182.816 395.93,-182.807 399.651,-179.467 399.651,-179.467 399.651,-179.467 395.93,-182.807 396.645,-176.118 392.208,-186.146 392.208,-186.146"/>
</g>
<!-- Location&#45;&gt;Gig -->
<g id="edge7" class="edge"><title>Location&#45;&gt;Gig</title>
<path fill="none" stroke="#d63d45" d="M318.55,-211.24C310.234,-202.803 300.732,-193.163 292.419,-184.729"/>
<ellipse fill="none" stroke="#d63d45" cx="321.535" cy="-214.267" rx="4.00002" ry="4.00002"/>
<polygon fill="#d63d45" stroke="#d63d45" points="292.207,-184.514 288.392,-174.234 288.697,-180.954 285.187,-177.393 285.187,-177.393 285.187,-177.393 288.697,-180.954 281.982,-180.552 292.207,-184.514 292.207,-184.514"/>
</g>
<!-- StatusValue -->
<g id="node11" class="node"><title>StatusValue</title>
<ellipse fill="none" stroke="black" cx="366" cy="-18" rx="51.2958" ry="18"/>
<text text-anchor="middle" x="366" y="-13.8" font-family="Times,serif" font-size="14.00">StatusValue</text>
</g>
<!-- Status&#45;&gt;StatusValue -->
<g id="edge9" class="edge"><title>Status&#45;&gt;StatusValue</title>
<path fill="none" stroke="#4db88a" d="M366,-63.6398C366,-57.348 366,-50.6053 366,-44.3156"/>
<ellipse fill="none" stroke="#4db88a" cx="366" cy="-67.6966" rx="4" ry="4"/>
<ellipse fill="#4db88a" stroke="#4db88a" cx="366" cy="-40.1043" rx="4" ry="4"/>
</g>
<!-- User&#45;&gt;Gig -->
<g id="edge10" class="edge"><title>User&#45;&gt;Gig</title>
<path fill="none" stroke="#2dcc75" d="M259.391,-208.146C260.94,-202.124 262.601,-195.664 264.169,-189.566"/>
<ellipse fill="none" stroke="#2dcc75" cx="258.353" cy="-212.181" rx="4.00001" ry="4.00001"/>
<polygon fill="#2dcc75" stroke="#2dcc75" points="264.192,-189.474 271.041,-180.91 265.438,-184.631 266.683,-179.789 266.683,-179.789 266.683,-179.789 265.438,-184.631 262.325,-178.668 264.192,-189.474 264.192,-189.474"/>
</g>
</g>
</svg>
