<?xml version="1.0" encoding="UTF-8" standalone="no"?>
<!DOCTYPE svg PUBLIC "-//W3C//DTD SVG 1.1//EN"
 "http://www.w3.org/Graphics/SVG/1.1/DTD/svg11.dtd">
<!-- Generated by graphviz version 2.36.0 (20140111.2315)
 -->
<!-- Title: models_diagram Pages: 1 -->
<svg width="401pt" height="720pt"
 viewBox="0.00 0.00 401.00 720.00" xmlns="http://www.w3.org/2000/svg" xmlns:xlink="http://www.w3.org/1999/xlink">
<g id="graph0" class="graph" transform="scale(1 1) rotate(0) translate(4 716)">
<title>models_diagram</title>
<polygon fill="none" stroke="none" points="-4,4 -4,-716 397,-716 397,4 -4,4"/>
<!-- _diagram_info -->
<g id="node1" class="node"><title>_diagram_info</title>
<text text-anchor="start" x="7.78833" y="-690.1" font-family="Times,serif" font-size="13.00">Models diagram</text>
<text text-anchor="start" x="7.78833" y="-677.1" font-family="Times,serif" font-size="13.00">Date: Sep 10 2016 &#45; 10:34</text>
<text text-anchor="start" x="7.78833" y="-664.1" font-family="Times,serif" font-size="13.00">Migration version: 20160910081116</text>
<text text-anchor="start" x="7.78833" y="-651.1" font-family="Times,serif" font-size="13.00">Generated by RailRoady 1.4.2</text>
<text text-anchor="start" x="7.78833" y="-638.1" font-family="Times,serif" font-size="13.00">http://railroady.prestonlee.com</text>
</g>
<!-- Band -->
<g id="node2" class="node"><title>Band</title>
<path fill="none" stroke="black" d="M236.495,-625C236.495,-625 345.505,-625 345.505,-625 351.505,-625 357.505,-631 357.505,-637 357.505,-637 357.505,-699 357.505,-699 357.505,-705 351.505,-711 345.505,-711 345.505,-711 236.495,-711 236.495,-711 230.495,-711 224.495,-705 224.495,-699 224.495,-699 224.495,-637 224.495,-637 224.495,-631 230.495,-625 236.495,-625"/>
<text text-anchor="middle" x="291" y="-695.8" font-family="Times,serif" font-size="14.00">Band</text>
<polyline fill="none" stroke="black" points="224.495,-689 357.505,-689 "/>
<text text-anchor="start" x="232.495" y="-673.8" font-family="Times,serif" font-size="14.00">id :INTEGER</text>
<text text-anchor="start" x="232.495" y="-659.8" font-family="Times,serif" font-size="14.00">tech_rider :text</text>
<text text-anchor="start" x="232.495" y="-645.8" font-family="Times,serif" font-size="14.00">created_at :datetime</text>
<text text-anchor="start" x="232.495" y="-631.8" font-family="Times,serif" font-size="14.00">updated_at :datetime</text>
</g>
<!-- User -->
<g id="node5" class="node"><title>User</title>
<path fill="none" stroke="black" d="M200.722,-319C200.722,-319 381.278,-319 381.278,-319 387.278,-319 393.278,-325 393.278,-331 393.278,-331 393.278,-575 393.278,-575 393.278,-581 387.278,-587 381.278,-587 381.278,-587 200.722,-587 200.722,-587 194.722,-587 188.722,-581 188.722,-575 188.722,-575 188.722,-331 188.722,-331 188.722,-325 194.722,-319 200.722,-319"/>
<text text-anchor="middle" x="291" y="-571.8" font-family="Times,serif" font-size="14.00">User</text>
<polyline fill="none" stroke="black" points="188.722,-565 393.278,-565 "/>
<text text-anchor="start" x="196.722" y="-549.8" font-family="Times,serif" font-size="14.00">id :INTEGER</text>
<text text-anchor="start" x="196.722" y="-535.8" font-family="Times,serif" font-size="14.00">email :varchar</text>
<text text-anchor="start" x="196.722" y="-521.8" font-family="Times,serif" font-size="14.00">encrypted_password :varchar</text>
<text text-anchor="start" x="196.722" y="-507.8" font-family="Times,serif" font-size="14.00">reset_password_token :varchar</text>
<text text-anchor="start" x="196.722" y="-493.8" font-family="Times,serif" font-size="14.00">reset_password_sent_at :datetime</text>
<text text-anchor="start" x="196.722" y="-479.8" font-family="Times,serif" font-size="14.00">remember_created_at :datetime</text>
<text text-anchor="start" x="196.722" y="-465.8" font-family="Times,serif" font-size="14.00">sign_in_count :integer</text>
<text text-anchor="start" x="196.722" y="-451.8" font-family="Times,serif" font-size="14.00">current_sign_in_at :datetime</text>
<text text-anchor="start" x="196.722" y="-437.8" font-family="Times,serif" font-size="14.00">last_sign_in_at :datetime</text>
<text text-anchor="start" x="196.722" y="-423.8" font-family="Times,serif" font-size="14.00">current_sign_in_ip :varchar</text>
<text text-anchor="start" x="196.722" y="-409.8" font-family="Times,serif" font-size="14.00">last_sign_in_ip :varchar</text>
<text text-anchor="start" x="196.722" y="-395.8" font-family="Times,serif" font-size="14.00">name :varchar</text>
<text text-anchor="start" x="196.722" y="-381.8" font-family="Times,serif" font-size="14.00">admin :boolean</text>
<text text-anchor="start" x="196.722" y="-367.8" font-family="Times,serif" font-size="14.00">created_at :datetime</text>
<text text-anchor="start" x="196.722" y="-353.8" font-family="Times,serif" font-size="14.00">updated_at :datetime</text>
<text text-anchor="start" x="196.722" y="-339.8" font-family="Times,serif" font-size="14.00">instrumente :varchar</text>
<text text-anchor="start" x="196.722" y="-325.8" font-family="Times,serif" font-size="14.00">band_id :integer</text>
</g>
<!-- Band&#45;&gt;User -->
<g id="edge1" class="edge"><title>Band&#45;&gt;User</title>
<path fill="none" stroke="#7da703" d="M291,-616.748C291,-610.745 291,-604.408 291,-597.854"/>
<ellipse fill="none" stroke="#7da703" cx="291" cy="-620.918" rx="4" ry="4"/>
<polygon fill="#7da703" stroke="#7da703" points="291,-597.396 295.5,-587.396 291,-592.396 291,-587.396 291,-587.396 291,-587.396 291,-592.396 286.5,-587.396 291,-597.396 291,-597.396"/>
</g>
<!-- Gig -->
<g id="node3" class="node"><title>Gig</title>
<path fill="none" stroke="black" d="M212.384,-125C212.384,-125 369.616,-125 369.616,-125 375.616,-125 381.616,-131 381.616,-137 381.616,-137 381.616,-269 381.616,-269 381.616,-275 375.616,-281 369.616,-281 369.616,-281 212.384,-281 212.384,-281 206.384,-281 200.384,-275 200.384,-269 200.384,-269 200.384,-137 200.384,-137 200.384,-131 206.384,-125 212.384,-125"/>
<text text-anchor="middle" x="291" y="-265.8" font-family="Times,serif" font-size="14.00">Gig</text>
<polyline fill="none" stroke="black" points="200.384,-259 381.616,-259 "/>
<text text-anchor="start" x="208.384" y="-243.8" font-family="Times,serif" font-size="14.00">id :INTEGER</text>
<text text-anchor="start" x="208.384" y="-229.8" font-family="Times,serif" font-size="14.00">created_at :datetime</text>
<text text-anchor="start" x="208.384" y="-215.8" font-family="Times,serif" font-size="14.00">updated_at :datetime</text>
<text text-anchor="start" x="208.384" y="-201.8" font-family="Times,serif" font-size="14.00">name :varchar</text>
<text text-anchor="start" x="208.384" y="-187.8" font-family="Times,serif" font-size="14.00">datetime :datetime</text>
<text text-anchor="start" x="208.384" y="-173.8" font-family="Times,serif" font-size="14.00">link_forum :varchar</text>
<text text-anchor="start" x="208.384" y="-159.8" font-family="Times,serif" font-size="14.00">vorhandenes_equipment :text</text>
<text text-anchor="start" x="208.384" y="-145.8" font-family="Times,serif" font-size="14.00">status_id :integer</text>
<text text-anchor="start" x="208.384" y="-131.8" font-family="Times,serif" font-size="14.00">user_id :integer</text>
</g>
<!-- Status -->
<g id="node4" class="node"><title>Status</title>
<path fill="none" stroke="black" d="M236.495,-1C236.495,-1 345.505,-1 345.505,-1 351.505,-1 357.505,-7 357.505,-13 357.505,-13 357.505,-75 357.505,-75 357.505,-81 351.505,-87 345.505,-87 345.505,-87 236.495,-87 236.495,-87 230.495,-87 224.495,-81 224.495,-75 224.495,-75 224.495,-13 224.495,-13 224.495,-7 230.495,-1 236.495,-1"/>
<text text-anchor="middle" x="291" y="-71.8" font-family="Times,serif" font-size="14.00">Status</text>
<polyline fill="none" stroke="black" points="224.495,-65 357.505,-65 "/>
<text text-anchor="start" x="232.495" y="-49.8" font-family="Times,serif" font-size="14.00">id :INTEGER</text>
<text text-anchor="start" x="232.495" y="-35.8" font-family="Times,serif" font-size="14.00">text :varchar</text>
<text text-anchor="start" x="232.495" y="-21.8" font-family="Times,serif" font-size="14.00">created_at :datetime</text>
<text text-anchor="start" x="232.495" y="-7.8" font-family="Times,serif" font-size="14.00">updated_at :datetime</text>
</g>
<!-- Gig&#45;&gt;Status -->
<g id="edge2" class="edge"><title>Gig&#45;&gt;Status</title>
<path fill="none" stroke="#856d35" d="M291,-116.642C291,-110.078 291,-103.578 291,-97.3287"/>
<ellipse fill="none" stroke="#856d35" cx="291" cy="-120.88" rx="4" ry="4"/>
<polygon fill="#856d35" stroke="#856d35" points="291,-97.0796 295.5,-87.0795 291,-92.0796 291,-87.0796 291,-87.0796 291,-87.0796 291,-92.0796 286.5,-87.0796 291,-97.0796 291,-97.0796"/>
</g>
<!-- User&#45;&gt;Gig -->
<g id="edge3" class="edge"><title>User&#45;&gt;Gig</title>
<path fill="none" stroke="#e244ad" d="M291,-310.804C291,-304.339 291,-297.938 291,-291.672"/>
<ellipse fill="none" stroke="#e244ad" cx="291" cy="-314.925" rx="4" ry="4"/>
<polygon fill="#e244ad" stroke="#e244ad" points="291,-291.268 295.5,-281.268 291,-286.268 291,-281.268 291,-281.268 291,-281.268 291,-286.268 286.5,-281.268 291,-291.268 291,-291.268"/>
</g>
</g>
</svg>
