<?xml version="1.0" encoding="UTF-8" standalone="no"?>
<!DOCTYPE svg PUBLIC "-//W3C//DTD SVG 1.1//EN"
 "http://www.w3.org/Graphics/SVG/1.1/DTD/svg11.dtd">
<!-- Generated by graphviz version 2.36.0 (20140111.2315)
 -->
<!-- Title: models_diagram Pages: 1 -->
<svg width="466pt" height="886pt"
 viewBox="0.00 0.00 466.00 886.00" xmlns="http://www.w3.org/2000/svg" xmlns:xlink="http://www.w3.org/1999/xlink">
<g id="graph0" class="graph" transform="scale(1 1) rotate(0) translate(4 882)">
<title>models_diagram</title>
<polygon fill="none" stroke="none" points="-4,4 -4,-882 462,-882 462,4 -4,4"/>
<!-- _diagram_info -->
<g id="node1" class="node"><title>_diagram_info</title>
<text text-anchor="start" x="7.31226" y="-849.1" font-family="Times,serif" font-size="13.00">Models diagram</text>
<text text-anchor="start" x="7.31226" y="-836.1" font-family="Times,serif" font-size="13.00">Date: Sep 10 2016 &#45; 19:15</text>
<text text-anchor="start" x="7.31226" y="-823.1" font-family="Times,serif" font-size="13.00">Migration version: 20160910090754</text>
<text text-anchor="start" x="7.31226" y="-810.1" font-family="Times,serif" font-size="13.00">Generated by RailRoady 1.4.2</text>
<text text-anchor="start" x="7.31226" y="-797.1" font-family="Times,serif" font-size="13.00">http://railroady.prestonlee.com</text>
</g>
<!-- Band -->
<g id="node2" class="node"><title>Band</title>
<path fill="none" stroke="black" d="M236.495,-777C236.495,-777 345.505,-777 345.505,-777 351.505,-777 357.505,-783 357.505,-789 357.505,-789 357.505,-865 357.505,-865 357.505,-871 351.505,-877 345.505,-877 345.505,-877 236.495,-877 236.495,-877 230.495,-877 224.495,-871 224.495,-865 224.495,-865 224.495,-789 224.495,-789 224.495,-783 230.495,-777 236.495,-777"/>
<text text-anchor="middle" x="291" y="-861.8" font-family="Times,serif" font-size="14.00">Band</text>
<polyline fill="none" stroke="black" points="224.495,-855 357.505,-855 "/>
<text text-anchor="start" x="232.495" y="-839.8" font-family="Times,serif" font-size="14.00">id :INTEGER</text>
<text text-anchor="start" x="232.495" y="-825.8" font-family="Times,serif" font-size="14.00">tech_rider :text</text>
<text text-anchor="start" x="232.495" y="-811.8" font-family="Times,serif" font-size="14.00">created_at :datetime</text>
<text text-anchor="start" x="232.495" y="-797.8" font-family="Times,serif" font-size="14.00">updated_at :datetime</text>
<text text-anchor="start" x="232.495" y="-783.8" font-family="Times,serif" font-size="14.00">name :varchar</text>
</g>
<!-- StatusValue -->
<g id="node5" class="node"><title>StatusValue</title>
<path fill="none" stroke="black" d="M227.495,-1C227.495,-1 336.505,-1 336.505,-1 342.505,-1 348.505,-7 348.505,-13 348.505,-13 348.505,-89 348.505,-89 348.505,-95 342.505,-101 336.505,-101 336.505,-101 227.495,-101 227.495,-101 221.495,-101 215.495,-95 215.495,-89 215.495,-89 215.495,-13 215.495,-13 215.495,-7 221.495,-1 227.495,-1"/>
<text text-anchor="middle" x="282" y="-85.8" font-family="Times,serif" font-size="14.00">StatusValue</text>
<polyline fill="none" stroke="black" points="215.495,-79 348.505,-79 "/>
<text text-anchor="start" x="223.495" y="-63.8" font-family="Times,serif" font-size="14.00">id :INTEGER</text>
<text text-anchor="start" x="223.495" y="-49.8" font-family="Times,serif" font-size="14.00">text :varchar</text>
<text text-anchor="start" x="223.495" y="-35.8" font-family="Times,serif" font-size="14.00">band_id :integer</text>
<text text-anchor="start" x="223.495" y="-21.8" font-family="Times,serif" font-size="14.00">created_at :datetime</text>
<text text-anchor="start" x="223.495" y="-7.8" font-family="Times,serif" font-size="14.00">updated_at :datetime</text>
</g>
<!-- Band&#45;&gt;StatusValue -->
<g id="edge2" class="edge"><title>Band&#45;&gt;StatusValue</title>
<path fill="none" stroke="#aa70be" d="M255.864,-769.554C251.381,-760.001 247.493,-749.947 245,-740 194.86,-539.954 243.609,-482.135 250,-276 251.902,-214.656 244.604,-198.487 255,-138 256.538,-129.052 258.765,-119.743 261.291,-110.696"/>
<ellipse fill="none" stroke="#aa70be" cx="257.634" cy="-773.161" rx="4.00002" ry="4.00002"/>
<polygon fill="#aa70be" stroke="#aa70be" points="261.317,-110.608 268.448,-102.278 262.723,-105.81 264.13,-101.012 264.13,-101.012 264.13,-101.012 262.723,-105.81 259.812,-99.7458 261.317,-110.608 261.317,-110.608"/>
</g>
<!-- User -->
<g id="node6" class="node"><title>User</title>
<path fill="none" stroke="black" d="M265.722,-471C265.722,-471 446.278,-471 446.278,-471 452.278,-471 458.278,-477 458.278,-483 458.278,-483 458.278,-727 458.278,-727 458.278,-733 452.278,-739 446.278,-739 446.278,-739 265.722,-739 265.722,-739 259.722,-739 253.722,-733 253.722,-727 253.722,-727 253.722,-483 253.722,-483 253.722,-477 259.722,-471 265.722,-471"/>
<text text-anchor="middle" x="356" y="-723.8" font-family="Times,serif" font-size="14.00">User</text>
<polyline fill="none" stroke="black" points="253.722,-717 458.278,-717 "/>
<text text-anchor="start" x="261.722" y="-701.8" font-family="Times,serif" font-size="14.00">id :INTEGER</text>
<text text-anchor="start" x="261.722" y="-687.8" font-family="Times,serif" font-size="14.00">email :varchar</text>
<text text-anchor="start" x="261.722" y="-673.8" font-family="Times,serif" font-size="14.00">encrypted_password :varchar</text>
<text text-anchor="start" x="261.722" y="-659.8" font-family="Times,serif" font-size="14.00">reset_password_token :varchar</text>
<text text-anchor="start" x="261.722" y="-645.8" font-family="Times,serif" font-size="14.00">reset_password_sent_at :datetime</text>
<text text-anchor="start" x="261.722" y="-631.8" font-family="Times,serif" font-size="14.00">remember_created_at :datetime</text>
<text text-anchor="start" x="261.722" y="-617.8" font-family="Times,serif" font-size="14.00">sign_in_count :integer</text>
<text text-anchor="start" x="261.722" y="-603.8" font-family="Times,serif" font-size="14.00">current_sign_in_at :datetime</text>
<text text-anchor="start" x="261.722" y="-589.8" font-family="Times,serif" font-size="14.00">last_sign_in_at :datetime</text>
<text text-anchor="start" x="261.722" y="-575.8" font-family="Times,serif" font-size="14.00">current_sign_in_ip :varchar</text>
<text text-anchor="start" x="261.722" y="-561.8" font-family="Times,serif" font-size="14.00">last_sign_in_ip :varchar</text>
<text text-anchor="start" x="261.722" y="-547.8" font-family="Times,serif" font-size="14.00">name :varchar</text>
<text text-anchor="start" x="261.722" y="-533.8" font-family="Times,serif" font-size="14.00">admin :boolean</text>
<text text-anchor="start" x="261.722" y="-519.8" font-family="Times,serif" font-size="14.00">created_at :datetime</text>
<text text-anchor="start" x="261.722" y="-505.8" font-family="Times,serif" font-size="14.00">updated_at :datetime</text>
<text text-anchor="start" x="261.722" y="-491.8" font-family="Times,serif" font-size="14.00">band_id :integer</text>
<text text-anchor="start" x="261.722" y="-477.8" font-family="Times,serif" font-size="14.00">instruments :varchar</text>
</g>
<!-- Band&#45;&gt;User -->
<g id="edge1" class="edge"><title>Band&#45;&gt;User</title>
<path fill="none" stroke="#2e762f" d="M307.793,-769.161C309.706,-762.686 311.715,-755.888 313.781,-748.895"/>
<ellipse fill="none" stroke="#2e762f" cx="306.64" cy="-773.065" rx="4.00001" ry="4.00001"/>
<polygon fill="#2e762f" stroke="#2e762f" points="313.797,-748.84 320.946,-740.525 315.214,-744.045 316.631,-739.249 316.631,-739.249 316.631,-739.249 315.214,-744.045 312.315,-737.974 313.797,-748.84 313.797,-748.84"/>
</g>
<!-- Gig -->
<g id="node3" class="node"><title>Gig</title>
<path fill="none" stroke="black" d="M271.384,-277C271.384,-277 428.616,-277 428.616,-277 434.616,-277 440.616,-283 440.616,-289 440.616,-289 440.616,-421 440.616,-421 440.616,-427 434.616,-433 428.616,-433 428.616,-433 271.384,-433 271.384,-433 265.384,-433 259.384,-427 259.384,-421 259.384,-421 259.384,-289 259.384,-289 259.384,-283 265.384,-277 271.384,-277"/>
<text text-anchor="middle" x="350" y="-417.8" font-family="Times,serif" font-size="14.00">Gig</text>
<polyline fill="none" stroke="black" points="259.384,-411 440.616,-411 "/>
<text text-anchor="start" x="267.384" y="-395.8" font-family="Times,serif" font-size="14.00">id :INTEGER</text>
<text text-anchor="start" x="267.384" y="-381.8" font-family="Times,serif" font-size="14.00">created_at :datetime</text>
<text text-anchor="start" x="267.384" y="-367.8" font-family="Times,serif" font-size="14.00">updated_at :datetime</text>
<text text-anchor="start" x="267.384" y="-353.8" font-family="Times,serif" font-size="14.00">name :varchar</text>
<text text-anchor="start" x="267.384" y="-339.8" font-family="Times,serif" font-size="14.00">datetime :datetime</text>
<text text-anchor="start" x="267.384" y="-325.8" font-family="Times,serif" font-size="14.00">link_forum :varchar</text>
<text text-anchor="start" x="267.384" y="-311.8" font-family="Times,serif" font-size="14.00">vorhandenes_equipment :text</text>
<text text-anchor="start" x="267.384" y="-297.8" font-family="Times,serif" font-size="14.00">status_id :integer</text>
<text text-anchor="start" x="267.384" y="-283.8" font-family="Times,serif" font-size="14.00">user_id :integer</text>
</g>
<!-- Status -->
<g id="node4" class="node"><title>Status</title>
<path fill="none" stroke="black" d="M276.322,-139C276.322,-139 401.678,-139 401.678,-139 407.678,-139 413.678,-145 413.678,-151 413.678,-151 413.678,-227 413.678,-227 413.678,-233 407.678,-239 401.678,-239 401.678,-239 276.322,-239 276.322,-239 270.322,-239 264.322,-233 264.322,-227 264.322,-227 264.322,-151 264.322,-151 264.322,-145 270.322,-139 276.322,-139"/>
<text text-anchor="middle" x="339" y="-223.8" font-family="Times,serif" font-size="14.00">Status</text>
<polyline fill="none" stroke="black" points="264.322,-217 413.678,-217 "/>
<text text-anchor="start" x="272.322" y="-201.8" font-family="Times,serif" font-size="14.00">id :INTEGER</text>
<text text-anchor="start" x="272.322" y="-187.8" font-family="Times,serif" font-size="14.00">created_at :datetime</text>
<text text-anchor="start" x="272.322" y="-173.8" font-family="Times,serif" font-size="14.00">updated_at :datetime</text>
<text text-anchor="start" x="272.322" y="-159.8" font-family="Times,serif" font-size="14.00">gig_id :integer</text>
<text text-anchor="start" x="272.322" y="-145.8" font-family="Times,serif" font-size="14.00">status_value_id :integer</text>
</g>
<!-- Gig&#45;&gt;Status -->
<g id="edge3" class="edge"><title>Gig&#45;&gt;Status</title>
<path fill="none" stroke="#472b89" d="M344.278,-268.697C343.844,-262.224 343.412,-255.779 342.992,-249.523"/>
<ellipse fill="none" stroke="#472b89" cx="344.554" cy="-272.811" rx="4" ry="4"/>
<polygon fill="#472b89" stroke="#472b89" points="342.969,-249.18 346.79,-238.901 342.635,-244.191 342.3,-239.202 342.3,-239.202 342.3,-239.202 342.635,-244.191 337.81,-239.503 342.969,-249.18 342.969,-249.18"/>
</g>
<!-- Status&#45;&gt;StatusValue -->
<g id="edge4" class="edge"><title>Status&#45;&gt;StatusValue</title>
<path fill="none" stroke="#516e07" d="M315.233,-131.294C312.073,-123.753 308.833,-116.022 305.674,-108.485"/>
<ellipse fill="none" stroke="#516e07" cx="316.875" cy="-135.212" rx="4.00001" ry="4.00001"/>
<ellipse fill="#516e07" stroke="#516e07" cx="304.094" cy="-104.716" rx="4.00002" ry="4.00002"/>
</g>
<!-- User&#45;&gt;Gig -->
<g id="edge5" class="edge"><title>User&#45;&gt;Gig</title>
<path fill="none" stroke="#86da2f" d="M352.584,-462.804C352.428,-456.339 352.273,-449.938 352.121,-443.672"/>
<ellipse fill="none" stroke="#86da2f" cx="352.684" cy="-466.926" rx="4" ry="4"/>
<polygon fill="#86da2f" stroke="#86da2f" points="352.111,-443.265 356.368,-433.159 351.99,-438.267 351.869,-433.268 351.869,-433.268 351.869,-433.268 351.99,-438.267 347.371,-433.377 352.111,-443.265 352.111,-443.265"/>
</g>
</g>
</svg>
