<?xml version="1.0" encoding="UTF-8" standalone="no"?>
<!DOCTYPE svg PUBLIC "-//W3C//DTD SVG 1.1//EN"
 "http://www.w3.org/Graphics/SVG/1.1/DTD/svg11.dtd">
<!-- Generated by graphviz version 2.36.0 (20140111.2315)
 -->
<!-- Title: models_diagram Pages: 1 -->
<svg width="854pt" height="942pt"
 viewBox="0.00 0.00 854.00 942.00" xmlns="http://www.w3.org/2000/svg" xmlns:xlink="http://www.w3.org/1999/xlink">
<g id="graph0" class="graph" transform="scale(1 1) rotate(0) translate(4 938)">
<title>models_diagram</title>
<polygon fill="none" stroke="none" points="-4,4 -4,-938 850,-938 850,4 -4,4"/>
<!-- _diagram_info -->
<g id="node1" class="node"><title>_diagram_info</title>
<text text-anchor="start" x="7.31226" y="-898.1" font-family="Times,serif" font-size="13.00">Models diagram</text>
<text text-anchor="start" x="7.31226" y="-885.1" font-family="Times,serif" font-size="13.00">Date: May 07 2017 &#45; 15:42</text>
<text text-anchor="start" x="7.31226" y="-872.1" font-family="Times,serif" font-size="13.00">Migration version: 20170317095150</text>
<text text-anchor="start" x="7.31226" y="-859.1" font-family="Times,serif" font-size="13.00">Generated by RailRoady 1.4.2</text>
<text text-anchor="start" x="7.31226" y="-846.1" font-family="Times,serif" font-size="13.00">http://railroady.prestonlee.com</text>
</g>
<!-- Activity -->
<g id="node2" class="node"><title>Activity</title>
<path fill="none" stroke="black" d="M236.495,-819C236.495,-819 345.505,-819 345.505,-819 351.505,-819 357.505,-825 357.505,-831 357.505,-831 357.505,-921 357.505,-921 357.505,-927 351.505,-933 345.505,-933 345.505,-933 236.495,-933 236.495,-933 230.495,-933 224.495,-927 224.495,-921 224.495,-921 224.495,-831 224.495,-831 224.495,-825 230.495,-819 236.495,-819"/>
<text text-anchor="middle" x="291" y="-917.8" font-family="Times,serif" font-size="14.00">Activity</text>
<polyline fill="none" stroke="black" points="224.495,-911 357.505,-911 "/>
<text text-anchor="start" x="232.495" y="-895.8" font-family="Times,serif" font-size="14.00">id :INTEGER</text>
<text text-anchor="start" x="232.495" y="-881.8" font-family="Times,serif" font-size="14.00">what :varchar</text>
<text text-anchor="start" x="232.495" y="-867.8" font-family="Times,serif" font-size="14.00">url :varchar</text>
<text text-anchor="start" x="232.495" y="-853.8" font-family="Times,serif" font-size="14.00">manual :boolean</text>
<text text-anchor="start" x="232.495" y="-839.8" font-family="Times,serif" font-size="14.00">created_at :datetime</text>
<text text-anchor="start" x="232.495" y="-825.8" font-family="Times,serif" font-size="14.00">updated_at :datetime</text>
</g>
<!-- Band -->
<g id="node3" class="node"><title>Band</title>
<path fill="none" stroke="black" d="M387.495,-826C387.495,-826 496.505,-826 496.505,-826 502.505,-826 508.505,-832 508.505,-838 508.505,-838 508.505,-914 508.505,-914 508.505,-920 502.505,-926 496.505,-926 496.505,-926 387.495,-926 387.495,-926 381.495,-926 375.495,-920 375.495,-914 375.495,-914 375.495,-838 375.495,-838 375.495,-832 381.495,-826 387.495,-826"/>
<text text-anchor="middle" x="442" y="-910.8" font-family="Times,serif" font-size="14.00">Band</text>
<polyline fill="none" stroke="black" points="375.495,-904 508.505,-904 "/>
<text text-anchor="start" x="383.495" y="-888.8" font-family="Times,serif" font-size="14.00">id :INTEGER</text>
<text text-anchor="start" x="383.495" y="-874.8" font-family="Times,serif" font-size="14.00">tech_rider :text</text>
<text text-anchor="start" x="383.495" y="-860.8" font-family="Times,serif" font-size="14.00">created_at :datetime</text>
<text text-anchor="start" x="383.495" y="-846.8" font-family="Times,serif" font-size="14.00">updated_at :datetime</text>
<text text-anchor="start" x="383.495" y="-832.8" font-family="Times,serif" font-size="14.00">name :varchar</text>
</g>
<!-- User -->
<g id="node14" class="node"><title>User</title>
<path fill="none" stroke="black" d="M351.722,-513C351.722,-513 532.278,-513 532.278,-513 538.278,-513 544.278,-519 544.278,-525 544.278,-525 544.278,-769 544.278,-769 544.278,-775 538.278,-781 532.278,-781 532.278,-781 351.722,-781 351.722,-781 345.722,-781 339.722,-775 339.722,-769 339.722,-769 339.722,-525 339.722,-525 339.722,-519 345.722,-513 351.722,-513"/>
<text text-anchor="middle" x="442" y="-765.8" font-family="Times,serif" font-size="14.00">User</text>
<polyline fill="none" stroke="black" points="339.722,-759 544.278,-759 "/>
<text text-anchor="start" x="347.722" y="-743.8" font-family="Times,serif" font-size="14.00">id :INTEGER</text>
<text text-anchor="start" x="347.722" y="-729.8" font-family="Times,serif" font-size="14.00">email :varchar</text>
<text text-anchor="start" x="347.722" y="-715.8" font-family="Times,serif" font-size="14.00">encrypted_password :varchar</text>
<text text-anchor="start" x="347.722" y="-701.8" font-family="Times,serif" font-size="14.00">reset_password_token :varchar</text>
<text text-anchor="start" x="347.722" y="-687.8" font-family="Times,serif" font-size="14.00">reset_password_sent_at :datetime</text>
<text text-anchor="start" x="347.722" y="-673.8" font-family="Times,serif" font-size="14.00">remember_created_at :datetime</text>
<text text-anchor="start" x="347.722" y="-659.8" font-family="Times,serif" font-size="14.00">sign_in_count :integer</text>
<text text-anchor="start" x="347.722" y="-645.8" font-family="Times,serif" font-size="14.00">current_sign_in_at :datetime</text>
<text text-anchor="start" x="347.722" y="-631.8" font-family="Times,serif" font-size="14.00">last_sign_in_at :datetime</text>
<text text-anchor="start" x="347.722" y="-617.8" font-family="Times,serif" font-size="14.00">current_sign_in_ip :varchar</text>
<text text-anchor="start" x="347.722" y="-603.8" font-family="Times,serif" font-size="14.00">last_sign_in_ip :varchar</text>
<text text-anchor="start" x="347.722" y="-589.8" font-family="Times,serif" font-size="14.00">name :varchar</text>
<text text-anchor="start" x="347.722" y="-575.8" font-family="Times,serif" font-size="14.00">admin :boolean</text>
<text text-anchor="start" x="347.722" y="-561.8" font-family="Times,serif" font-size="14.00">created_at :datetime</text>
<text text-anchor="start" x="347.722" y="-547.8" font-family="Times,serif" font-size="14.00">updated_at :datetime</text>
<text text-anchor="start" x="347.722" y="-533.8" font-family="Times,serif" font-size="14.00">band_id :integer</text>
<text text-anchor="start" x="347.722" y="-519.8" font-family="Times,serif" font-size="14.00">instruments :varchar</text>
</g>
<!-- Band&#45;&gt;User -->
<g id="edge1" class="edge"><title>Band&#45;&gt;User</title>
<path fill="none" stroke="#f5c2c5" d="M442,-817.679C442,-809.358 442,-800.498 442,-791.36"/>
<ellipse fill="none" stroke="#f5c2c5" cx="442" cy="-821.744" rx="4" ry="4"/>
<polygon fill="#f5c2c5" stroke="#f5c2c5" points="442,-791.347 446.5,-781.347 442,-786.347 442,-781.347 442,-781.347 442,-781.347 442,-786.347 437.5,-781.347 442,-791.347 442,-791.347"/>
</g>
<!-- Contact -->
<g id="node4" class="node"><title>Contact</title>
<path fill="none" stroke="black" d="M725.495,-583C725.495,-583 834.505,-583 834.505,-583 840.505,-583 846.505,-589 846.505,-595 846.505,-595 846.505,-699 846.505,-699 846.505,-705 840.505,-711 834.505,-711 834.505,-711 725.495,-711 725.495,-711 719.495,-711 713.495,-705 713.495,-699 713.495,-699 713.495,-595 713.495,-595 713.495,-589 719.495,-583 725.495,-583"/>
<text text-anchor="middle" x="780" y="-695.8" font-family="Times,serif" font-size="14.00">Contact</text>
<polyline fill="none" stroke="black" points="713.495,-689 846.505,-689 "/>
<text text-anchor="start" x="721.495" y="-673.8" font-family="Times,serif" font-size="14.00">id :INTEGER</text>
<text text-anchor="start" x="721.495" y="-659.8" font-family="Times,serif" font-size="14.00">name :varchar</text>
<text text-anchor="start" x="721.495" y="-645.8" font-family="Times,serif" font-size="14.00">email :varchar</text>
<text text-anchor="start" x="721.495" y="-631.8" font-family="Times,serif" font-size="14.00">telephone :varchar</text>
<text text-anchor="start" x="721.495" y="-617.8" font-family="Times,serif" font-size="14.00">info :text</text>
<text text-anchor="start" x="721.495" y="-603.8" font-family="Times,serif" font-size="14.00">created_at :datetime</text>
<text text-anchor="start" x="721.495" y="-589.8" font-family="Times,serif" font-size="14.00">updated_at :datetime</text>
</g>
<!-- Contactlocation -->
<g id="node5" class="node"><title>Contactlocation</title>
<path fill="none" stroke="black" d="M649.495,-347C649.495,-347 758.505,-347 758.505,-347 764.505,-347 770.505,-353 770.505,-359 770.505,-359 770.505,-435 770.505,-435 770.505,-441 764.505,-447 758.505,-447 758.505,-447 649.495,-447 649.495,-447 643.495,-447 637.495,-441 637.495,-435 637.495,-435 637.495,-359 637.495,-359 637.495,-353 643.495,-347 649.495,-347"/>
<text text-anchor="middle" x="704" y="-431.8" font-family="Times,serif" font-size="14.00">Contactlocation</text>
<polyline fill="none" stroke="black" points="637.495,-425 770.505,-425 "/>
<text text-anchor="start" x="645.495" y="-409.8" font-family="Times,serif" font-size="14.00">id :INTEGER</text>
<text text-anchor="start" x="645.495" y="-395.8" font-family="Times,serif" font-size="14.00">contact_id :integer</text>
<text text-anchor="start" x="645.495" y="-381.8" font-family="Times,serif" font-size="14.00">location_id :integer</text>
<text text-anchor="start" x="645.495" y="-367.8" font-family="Times,serif" font-size="14.00">created_at :datetime</text>
<text text-anchor="start" x="645.495" y="-353.8" font-family="Times,serif" font-size="14.00">updated_at :datetime</text>
</g>
<!-- Contact&#45;&gt;Contactlocation -->
<g id="edge2" class="edge"><title>Contact&#45;&gt;Contactlocation</title>
<path fill="none" stroke="#65fb5a" d="M758.237,-574.983C746.764,-537.544 732.858,-492.17 722,-456.737"/>
<ellipse fill="none" stroke="#65fb5a" cx="759.453" cy="-578.953" rx="4.00001" ry="4.00001"/>
<polygon fill="#65fb5a" stroke="#65fb5a" points="721.953,-456.583 723.325,-445.704 720.488,-451.803 719.023,-447.022 719.023,-447.022 719.023,-447.022 720.488,-451.803 714.72,-448.341 721.953,-456.583 721.953,-456.583"/>
</g>
<!-- Email -->
<g id="node6" class="node"><title>Email</title>
<path fill="none" stroke="black" d="M226.339,-139C226.339,-139 351.661,-139 351.661,-139 357.661,-139 363.661,-145 363.661,-151 363.661,-151 363.661,-269 363.661,-269 363.661,-275 357.661,-281 351.661,-281 351.661,-281 226.339,-281 226.339,-281 220.339,-281 214.339,-275 214.339,-269 214.339,-269 214.339,-151 214.339,-151 214.339,-145 220.339,-139 226.339,-139"/>
<text text-anchor="middle" x="289" y="-265.8" font-family="Times,serif" font-size="14.00">Email</text>
<polyline fill="none" stroke="black" points="214.339,-259 363.661,-259 "/>
<text text-anchor="start" x="222.339" y="-243.8" font-family="Times,serif" font-size="14.00">id :INTEGER</text>
<text text-anchor="start" x="222.339" y="-229.8" font-family="Times,serif" font-size="14.00">subject :varchar</text>
<text text-anchor="start" x="222.339" y="-215.8" font-family="Times,serif" font-size="14.00">text :text</text>
<text text-anchor="start" x="222.339" y="-201.8" font-family="Times,serif" font-size="14.00">gig_id :integer</text>
<text text-anchor="start" x="222.339" y="-187.8" font-family="Times,serif" font-size="14.00">created_at :datetime</text>
<text text-anchor="start" x="222.339" y="-173.8" font-family="Times,serif" font-size="14.00">updated_at :datetime</text>
<text text-anchor="start" x="222.339" y="-159.8" font-family="Times,serif" font-size="14.00">email_type_id :integer</text>
<text text-anchor="start" x="222.339" y="-145.8" font-family="Times,serif" font-size="14.00">transferred_at :datetime</text>
</g>
<!-- EmailType -->
<g id="node7" class="node"><title>EmailType</title>
<path fill="none" stroke="black" d="M234.495,-8C234.495,-8 343.505,-8 343.505,-8 349.505,-8 355.505,-14 355.505,-20 355.505,-20 355.505,-82 355.505,-82 355.505,-88 349.505,-94 343.505,-94 343.505,-94 234.495,-94 234.495,-94 228.495,-94 222.495,-88 222.495,-82 222.495,-82 222.495,-20 222.495,-20 222.495,-14 228.495,-8 234.495,-8"/>
<text text-anchor="middle" x="289" y="-78.8" font-family="Times,serif" font-size="14.00">EmailType</text>
<polyline fill="none" stroke="black" points="222.495,-72 355.505,-72 "/>
<text text-anchor="start" x="230.495" y="-56.8" font-family="Times,serif" font-size="14.00">id :INTEGER</text>
<text text-anchor="start" x="230.495" y="-42.8" font-family="Times,serif" font-size="14.00">text :varchar</text>
<text text-anchor="start" x="230.495" y="-28.8" font-family="Times,serif" font-size="14.00">created_at :datetime</text>
<text text-anchor="start" x="230.495" y="-14.8" font-family="Times,serif" font-size="14.00">updated_at :datetime</text>
</g>
<!-- Email&#45;&gt;EmailType -->
<g id="edge3" class="edge"><title>Email&#45;&gt;EmailType</title>
<path fill="none" stroke="#bdb659" d="M289,-130.552C289,-120.968 289,-111.382 289,-102.366"/>
<ellipse fill="none" stroke="#bdb659" cx="289" cy="-134.766" rx="4" ry="4"/>
<ellipse fill="#bdb659" stroke="#bdb659" cx="289" cy="-98.2635" rx="4" ry="4"/>
</g>
<!-- Fan -->
<g id="node8" class="node"><title>Fan</title>
<path fill="none" stroke="black" d="M538.043,-819C538.043,-819 657.957,-819 657.957,-819 663.957,-819 669.957,-825 669.957,-831 669.957,-831 669.957,-921 669.957,-921 669.957,-927 663.957,-933 657.957,-933 657.957,-933 538.043,-933 538.043,-933 532.043,-933 526.043,-927 526.043,-921 526.043,-921 526.043,-831 526.043,-831 526.043,-825 532.043,-819 538.043,-819"/>
<text text-anchor="middle" x="598" y="-917.8" font-family="Times,serif" font-size="14.00">Fan</text>
<polyline fill="none" stroke="black" points="526.043,-911 669.957,-911 "/>
<text text-anchor="start" x="534.043" y="-895.8" font-family="Times,serif" font-size="14.00">id :INTEGER</text>
<text text-anchor="start" x="534.043" y="-881.8" font-family="Times,serif" font-size="14.00">name :varchar</text>
<text text-anchor="start" x="534.043" y="-867.8" font-family="Times,serif" font-size="14.00">email :varchar</text>
<text text-anchor="start" x="534.043" y="-853.8" font-family="Times,serif" font-size="14.00">responsible_id :integer</text>
<text text-anchor="start" x="534.043" y="-839.8" font-family="Times,serif" font-size="14.00">created_at :datetime</text>
<text text-anchor="start" x="534.043" y="-825.8" font-family="Times,serif" font-size="14.00">updated_at :datetime</text>
</g>
<!-- Gig -->
<g id="node9" class="node"><title>Gig</title>
<path fill="none" stroke="black" d="M369.384,-319C369.384,-319 526.616,-319 526.616,-319 532.616,-319 538.616,-325 538.616,-331 538.616,-331 538.616,-463 538.616,-463 538.616,-469 532.616,-475 526.616,-475 526.616,-475 369.384,-475 369.384,-475 363.384,-475 357.384,-469 357.384,-463 357.384,-463 357.384,-331 357.384,-331 357.384,-325 363.384,-319 369.384,-319"/>
<text text-anchor="middle" x="448" y="-459.8" font-family="Times,serif" font-size="14.00">Gig</text>
<polyline fill="none" stroke="black" points="357.384,-453 538.616,-453 "/>
<text text-anchor="start" x="365.384" y="-437.8" font-family="Times,serif" font-size="14.00">id :INTEGER</text>
<text text-anchor="start" x="365.384" y="-423.8" font-family="Times,serif" font-size="14.00">created_at :datetime</text>
<text text-anchor="start" x="365.384" y="-409.8" font-family="Times,serif" font-size="14.00">updated_at :datetime</text>
<text text-anchor="start" x="365.384" y="-395.8" font-family="Times,serif" font-size="14.00">name :varchar</text>
<text text-anchor="start" x="365.384" y="-381.8" font-family="Times,serif" font-size="14.00">datetime :datetime</text>
<text text-anchor="start" x="365.384" y="-367.8" font-family="Times,serif" font-size="14.00">link_forum :varchar</text>
<text text-anchor="start" x="365.384" y="-353.8" font-family="Times,serif" font-size="14.00">vorhandenes_equipment :text</text>
<text text-anchor="start" x="365.384" y="-339.8" font-family="Times,serif" font-size="14.00">user_id :integer</text>
<text text-anchor="start" x="365.384" y="-325.8" font-family="Times,serif" font-size="14.00">location_id :integer</text>
</g>
<!-- Gig&#45;&gt;Email -->
<g id="edge5" class="edge"><title>Gig&#45;&gt;Email</title>
<path fill="none" stroke="#261fef" d="M376.414,-312.708C369.628,-304.812 362.765,-296.827 356.024,-288.984"/>
<ellipse fill="none" stroke="#261fef" cx="379.114" cy="-315.849" rx="4.00002" ry="4.00002"/>
<polygon fill="#261fef" stroke="#261fef" points="355.85,-288.781 352.744,-278.264 352.591,-284.989 349.332,-281.197 349.332,-281.197 349.332,-281.197 352.591,-284.989 345.919,-284.13 355.85,-288.781 355.85,-288.781"/>
</g>
<!-- Reminder -->
<g id="node11" class="node"><title>Reminder</title>
<path fill="none" stroke="black" d="M393.495,-146C393.495,-146 502.505,-146 502.505,-146 508.505,-146 514.505,-152 514.505,-158 514.505,-158 514.505,-262 514.505,-262 514.505,-268 508.505,-274 502.505,-274 502.505,-274 393.495,-274 393.495,-274 387.495,-274 381.495,-268 381.495,-262 381.495,-262 381.495,-158 381.495,-158 381.495,-152 387.495,-146 393.495,-146"/>
<text text-anchor="middle" x="448" y="-258.8" font-family="Times,serif" font-size="14.00">Reminder</text>
<polyline fill="none" stroke="black" points="381.495,-252 514.505,-252 "/>
<text text-anchor="start" x="389.495" y="-236.8" font-family="Times,serif" font-size="14.00">id :INTEGER</text>
<text text-anchor="start" x="389.495" y="-222.8" font-family="Times,serif" font-size="14.00">done :boolean</text>
<text text-anchor="start" x="389.495" y="-208.8" font-family="Times,serif" font-size="14.00">due :date</text>
<text text-anchor="start" x="389.495" y="-194.8" font-family="Times,serif" font-size="14.00">text :text</text>
<text text-anchor="start" x="389.495" y="-180.8" font-family="Times,serif" font-size="14.00">gig_id :integer</text>
<text text-anchor="start" x="389.495" y="-166.8" font-family="Times,serif" font-size="14.00">created_at :datetime</text>
<text text-anchor="start" x="389.495" y="-152.8" font-family="Times,serif" font-size="14.00">updated_at :datetime</text>
</g>
<!-- Gig&#45;&gt;Reminder -->
<g id="edge6" class="edge"><title>Gig&#45;&gt;Reminder</title>
<path fill="none" stroke="#00bff2" d="M448,-310.823C448,-301.969 448,-293.025 448,-284.319"/>
<ellipse fill="none" stroke="#00bff2" cx="448" cy="-314.883" rx="4" ry="4"/>
<polygon fill="#00bff2" stroke="#00bff2" points="448,-284.227 452.5,-274.227 448,-279.227 448,-274.227 448,-274.227 448,-274.227 448,-279.227 443.5,-274.227 448,-284.227 448,-284.227"/>
</g>
<!-- Status -->
<g id="node12" class="node"><title>Status</title>
<path fill="none" stroke="black" d="M544.322,-160C544.322,-160 669.678,-160 669.678,-160 675.678,-160 681.678,-166 681.678,-172 681.678,-172 681.678,-248 681.678,-248 681.678,-254 675.678,-260 669.678,-260 669.678,-260 544.322,-260 544.322,-260 538.322,-260 532.322,-254 532.322,-248 532.322,-248 532.322,-172 532.322,-172 532.322,-166 538.322,-160 544.322,-160"/>
<text text-anchor="middle" x="607" y="-244.8" font-family="Times,serif" font-size="14.00">Status</text>
<polyline fill="none" stroke="black" points="532.322,-238 681.678,-238 "/>
<text text-anchor="start" x="540.322" y="-222.8" font-family="Times,serif" font-size="14.00">id :INTEGER</text>
<text text-anchor="start" x="540.322" y="-208.8" font-family="Times,serif" font-size="14.00">created_at :datetime</text>
<text text-anchor="start" x="540.322" y="-194.8" font-family="Times,serif" font-size="14.00">updated_at :datetime</text>
<text text-anchor="start" x="540.322" y="-180.8" font-family="Times,serif" font-size="14.00">gig_id :integer</text>
<text text-anchor="start" x="540.322" y="-166.8" font-family="Times,serif" font-size="14.00">status_value_id :integer</text>
</g>
<!-- Gig&#45;&gt;Status -->
<g id="edge4" class="edge"><title>Gig&#45;&gt;Status</title>
<path fill="none" stroke="#c4d667" d="M519.494,-312.815C532.516,-297.664 545.827,-282.176 558.011,-268"/>
<ellipse fill="none" stroke="#c4d667" cx="516.886" cy="-315.849" rx="4.00002" ry="4.00002"/>
<polygon fill="#c4d667" stroke="#c4d667" points="558.137,-267.853 568.068,-263.202 561.396,-264.061 564.655,-260.269 564.655,-260.269 564.655,-260.269 561.396,-264.061 561.242,-257.336 558.137,-267.853 558.137,-267.853"/>
</g>
<!-- Location -->
<g id="node10" class="node"><title>Location</title>
<path fill="none" stroke="black" d="M574.495,-583C574.495,-583 683.505,-583 683.505,-583 689.505,-583 695.505,-589 695.505,-595 695.505,-595 695.505,-699 695.505,-699 695.505,-705 689.505,-711 683.505,-711 683.505,-711 574.495,-711 574.495,-711 568.495,-711 562.495,-705 562.495,-699 562.495,-699 562.495,-595 562.495,-595 562.495,-589 568.495,-583 574.495,-583"/>
<text text-anchor="middle" x="629" y="-695.8" font-family="Times,serif" font-size="14.00">Location</text>
<polyline fill="none" stroke="black" points="562.495,-689 695.505,-689 "/>
<text text-anchor="start" x="570.495" y="-673.8" font-family="Times,serif" font-size="14.00">id :INTEGER</text>
<text text-anchor="start" x="570.495" y="-659.8" font-family="Times,serif" font-size="14.00">name :varchar</text>
<text text-anchor="start" x="570.495" y="-645.8" font-family="Times,serif" font-size="14.00">address :varchar</text>
<text text-anchor="start" x="570.495" y="-631.8" font-family="Times,serif" font-size="14.00">website :varchar</text>
<text text-anchor="start" x="570.495" y="-617.8" font-family="Times,serif" font-size="14.00">festival :boolean</text>
<text text-anchor="start" x="570.495" y="-603.8" font-family="Times,serif" font-size="14.00">created_at :datetime</text>
<text text-anchor="start" x="570.495" y="-589.8" font-family="Times,serif" font-size="14.00">updated_at :datetime</text>
</g>
<!-- Location&#45;&gt;Contactlocation -->
<g id="edge8" class="edge"><title>Location&#45;&gt;Contactlocation</title>
<path fill="none" stroke="#1a24bd" d="M650.477,-574.983C661.799,-537.544 675.521,-492.17 686.237,-456.737"/>
<ellipse fill="none" stroke="#1a24bd" cx="649.278" cy="-578.949" rx="4.00001" ry="4.00001"/>
<polygon fill="#1a24bd" stroke="#1a24bd" points="686.28,-456.594 693.482,-448.325 687.727,-451.808 689.175,-447.022 689.175,-447.022 689.175,-447.022 687.727,-451.808 684.867,-445.72 686.28,-456.594 686.28,-456.594"/>
</g>
<!-- Location&#45;&gt;Gig -->
<g id="edge7" class="edge"><title>Location&#45;&gt;Gig</title>
<path fill="none" stroke="#267cf9" d="M593.103,-575.708C581.283,-554.599 567.442,-531.802 553,-512 545.869,-502.222 538.003,-492.361 529.879,-482.748"/>
<ellipse fill="none" stroke="#267cf9" cx="595.093" cy="-579.297" rx="4.00002" ry="4.00002"/>
<polygon fill="#267cf9" stroke="#267cf9" points="529.829,-482.689 526.735,-472.169 526.574,-478.894 523.319,-475.098 523.319,-475.098 523.319,-475.098 526.574,-478.894 519.903,-478.028 529.829,-482.689 529.829,-482.689"/>
</g>
<!-- StatusValue -->
<g id="node13" class="node"><title>StatusValue</title>
<path fill="none" stroke="black" d="M552.495,-1C552.495,-1 661.505,-1 661.505,-1 667.505,-1 673.505,-7 673.505,-13 673.505,-13 673.505,-89 673.505,-89 673.505,-95 667.505,-101 661.505,-101 661.505,-101 552.495,-101 552.495,-101 546.495,-101 540.495,-95 540.495,-89 540.495,-89 540.495,-13 540.495,-13 540.495,-7 546.495,-1 552.495,-1"/>
<text text-anchor="middle" x="607" y="-85.8" font-family="Times,serif" font-size="14.00">StatusValue</text>
<polyline fill="none" stroke="black" points="540.495,-79 673.505,-79 "/>
<text text-anchor="start" x="548.495" y="-63.8" font-family="Times,serif" font-size="14.00">id :INTEGER</text>
<text text-anchor="start" x="548.495" y="-49.8" font-family="Times,serif" font-size="14.00">text :varchar</text>
<text text-anchor="start" x="548.495" y="-35.8" font-family="Times,serif" font-size="14.00">created_at :datetime</text>
<text text-anchor="start" x="548.495" y="-21.8" font-family="Times,serif" font-size="14.00">updated_at :datetime</text>
<text text-anchor="start" x="548.495" y="-7.8" font-family="Times,serif" font-size="14.00">order :integer</text>
</g>
<!-- Status&#45;&gt;StatusValue -->
<g id="edge9" class="edge"><title>Status&#45;&gt;StatusValue</title>
<path fill="none" stroke="#582721" d="M607,-151.725C607,-137.839 607,-122.995 607,-109.116"/>
<ellipse fill="none" stroke="#582721" cx="607" cy="-155.755" rx="4" ry="4"/>
<ellipse fill="#582721" stroke="#582721" cx="607" cy="-105.07" rx="4" ry="4"/>
</g>
<!-- User&#45;&gt;Gig -->
<g id="edge10" class="edge"><title>User&#45;&gt;Gig</title>
<path fill="none" stroke="#d57c18" d="M445.416,-504.804C445.572,-498.339 445.727,-491.938 445.879,-485.672"/>
<ellipse fill="none" stroke="#d57c18" cx="445.316" cy="-508.926" rx="4" ry="4"/>
<polygon fill="#d57c18" stroke="#d57c18" points="445.889,-485.265 450.629,-475.377 446.01,-480.267 446.131,-475.268 446.131,-475.268 446.131,-475.268 446.01,-480.267 441.632,-475.159 445.889,-485.265 445.889,-485.265"/>
</g>
</g>
</svg>
