<?xml version="1.0" encoding="UTF-8" standalone="no"?>
<!DOCTYPE svg PUBLIC "-//W3C//DTD SVG 1.1//EN"
 "http://www.w3.org/Graphics/SVG/1.1/DTD/svg11.dtd">
<!-- Generated by graphviz version 2.36.0 (20140111.2315)
 -->
<!-- Title: models_diagram Pages: 1 -->
<svg width="703pt" height="942pt"
 viewBox="0.00 0.00 703.00 942.00" xmlns="http://www.w3.org/2000/svg" xmlns:xlink="http://www.w3.org/1999/xlink">
<g id="graph0" class="graph" transform="scale(1 1) rotate(0) translate(4 938)">
<title>models_diagram</title>
<polygon fill="none" stroke="none" points="-4,4 -4,-938 699,-938 699,4 -4,4"/>
<!-- _diagram_info -->
<g id="node1" class="node"><title>_diagram_info</title>
<text text-anchor="start" x="7.31226" y="-905.1" font-family="Times,serif" font-size="13.00">Models diagram</text>
<text text-anchor="start" x="7.31226" y="-892.1" font-family="Times,serif" font-size="13.00">Date: Oct 28 2016 &#45; 21:13</text>
<text text-anchor="start" x="7.31226" y="-879.1" font-family="Times,serif" font-size="13.00">Migration version: 20161028190644</text>
<text text-anchor="start" x="7.31226" y="-866.1" font-family="Times,serif" font-size="13.00">Generated by RailRoady 1.4.2</text>
<text text-anchor="start" x="7.31226" y="-853.1" font-family="Times,serif" font-size="13.00">http://railroady.prestonlee.com</text>
</g>
<!-- Band -->
<g id="node2" class="node"><title>Band</title>
<path fill="none" stroke="black" d="M236.495,-833C236.495,-833 345.505,-833 345.505,-833 351.505,-833 357.505,-839 357.505,-845 357.505,-845 357.505,-921 357.505,-921 357.505,-927 351.505,-933 345.505,-933 345.505,-933 236.495,-933 236.495,-933 230.495,-933 224.495,-927 224.495,-921 224.495,-921 224.495,-845 224.495,-845 224.495,-839 230.495,-833 236.495,-833"/>
<text text-anchor="middle" x="291" y="-917.8" font-family="Times,serif" font-size="14.00">Band</text>
<polyline fill="none" stroke="black" points="224.495,-911 357.505,-911 "/>
<text text-anchor="start" x="232.495" y="-895.8" font-family="Times,serif" font-size="14.00">id :INTEGER</text>
<text text-anchor="start" x="232.495" y="-881.8" font-family="Times,serif" font-size="14.00">tech_rider :text</text>
<text text-anchor="start" x="232.495" y="-867.8" font-family="Times,serif" font-size="14.00">created_at :datetime</text>
<text text-anchor="start" x="232.495" y="-853.8" font-family="Times,serif" font-size="14.00">updated_at :datetime</text>
<text text-anchor="start" x="232.495" y="-839.8" font-family="Times,serif" font-size="14.00">name :varchar</text>
</g>
<!-- User -->
<g id="node12" class="node"><title>User</title>
<path fill="none" stroke="black" d="M200.722,-527C200.722,-527 381.278,-527 381.278,-527 387.278,-527 393.278,-533 393.278,-539 393.278,-539 393.278,-783 393.278,-783 393.278,-789 387.278,-795 381.278,-795 381.278,-795 200.722,-795 200.722,-795 194.722,-795 188.722,-789 188.722,-783 188.722,-783 188.722,-539 188.722,-539 188.722,-533 194.722,-527 200.722,-527"/>
<text text-anchor="middle" x="291" y="-779.8" font-family="Times,serif" font-size="14.00">User</text>
<polyline fill="none" stroke="black" points="188.722,-773 393.278,-773 "/>
<text text-anchor="start" x="196.722" y="-757.8" font-family="Times,serif" font-size="14.00">id :INTEGER</text>
<text text-anchor="start" x="196.722" y="-743.8" font-family="Times,serif" font-size="14.00">email :varchar</text>
<text text-anchor="start" x="196.722" y="-729.8" font-family="Times,serif" font-size="14.00">encrypted_password :varchar</text>
<text text-anchor="start" x="196.722" y="-715.8" font-family="Times,serif" font-size="14.00">reset_password_token :varchar</text>
<text text-anchor="start" x="196.722" y="-701.8" font-family="Times,serif" font-size="14.00">reset_password_sent_at :datetime</text>
<text text-anchor="start" x="196.722" y="-687.8" font-family="Times,serif" font-size="14.00">remember_created_at :datetime</text>
<text text-anchor="start" x="196.722" y="-673.8" font-family="Times,serif" font-size="14.00">sign_in_count :integer</text>
<text text-anchor="start" x="196.722" y="-659.8" font-family="Times,serif" font-size="14.00">current_sign_in_at :datetime</text>
<text text-anchor="start" x="196.722" y="-645.8" font-family="Times,serif" font-size="14.00">last_sign_in_at :datetime</text>
<text text-anchor="start" x="196.722" y="-631.8" font-family="Times,serif" font-size="14.00">current_sign_in_ip :varchar</text>
<text text-anchor="start" x="196.722" y="-617.8" font-family="Times,serif" font-size="14.00">last_sign_in_ip :varchar</text>
<text text-anchor="start" x="196.722" y="-603.8" font-family="Times,serif" font-size="14.00">name :varchar</text>
<text text-anchor="start" x="196.722" y="-589.8" font-family="Times,serif" font-size="14.00">admin :boolean</text>
<text text-anchor="start" x="196.722" y="-575.8" font-family="Times,serif" font-size="14.00">created_at :datetime</text>
<text text-anchor="start" x="196.722" y="-561.8" font-family="Times,serif" font-size="14.00">updated_at :datetime</text>
<text text-anchor="start" x="196.722" y="-547.8" font-family="Times,serif" font-size="14.00">band_id :integer</text>
<text text-anchor="start" x="196.722" y="-533.8" font-family="Times,serif" font-size="14.00">instruments :varchar</text>
</g>
<!-- Band&#45;&gt;User -->
<g id="edge1" class="edge"><title>Band&#45;&gt;User</title>
<path fill="none" stroke="#931795" d="M291,-824.878C291,-818.605 291,-812.031 291,-805.271"/>
<ellipse fill="none" stroke="#931795" cx="291" cy="-828.902" rx="4" ry="4"/>
<polygon fill="#931795" stroke="#931795" points="291,-805.249 295.5,-795.249 291,-800.249 291,-795.249 291,-795.249 291,-795.249 291,-800.249 286.5,-795.249 291,-805.249 291,-805.249"/>
</g>
<!-- Contact -->
<g id="node3" class="node"><title>Contact</title>
<path fill="none" stroke="black" d="M574.495,-597C574.495,-597 683.505,-597 683.505,-597 689.505,-597 695.505,-603 695.505,-609 695.505,-609 695.505,-713 695.505,-713 695.505,-719 689.505,-725 683.505,-725 683.505,-725 574.495,-725 574.495,-725 568.495,-725 562.495,-719 562.495,-713 562.495,-713 562.495,-609 562.495,-609 562.495,-603 568.495,-597 574.495,-597"/>
<text text-anchor="middle" x="629" y="-709.8" font-family="Times,serif" font-size="14.00">Contact</text>
<polyline fill="none" stroke="black" points="562.495,-703 695.505,-703 "/>
<text text-anchor="start" x="570.495" y="-687.8" font-family="Times,serif" font-size="14.00">id :INTEGER</text>
<text text-anchor="start" x="570.495" y="-673.8" font-family="Times,serif" font-size="14.00">name :varchar</text>
<text text-anchor="start" x="570.495" y="-659.8" font-family="Times,serif" font-size="14.00">email :varchar</text>
<text text-anchor="start" x="570.495" y="-645.8" font-family="Times,serif" font-size="14.00">telephone :varchar</text>
<text text-anchor="start" x="570.495" y="-631.8" font-family="Times,serif" font-size="14.00">info :text</text>
<text text-anchor="start" x="570.495" y="-617.8" font-family="Times,serif" font-size="14.00">created_at :datetime</text>
<text text-anchor="start" x="570.495" y="-603.8" font-family="Times,serif" font-size="14.00">updated_at :datetime</text>
</g>
<!-- Contactlocation -->
<g id="node4" class="node"><title>Contactlocation</title>
<path fill="none" stroke="black" d="M498.495,-354C498.495,-354 607.505,-354 607.505,-354 613.505,-354 619.505,-360 619.505,-366 619.505,-366 619.505,-442 619.505,-442 619.505,-448 613.505,-454 607.505,-454 607.505,-454 498.495,-454 498.495,-454 492.495,-454 486.495,-448 486.495,-442 486.495,-442 486.495,-366 486.495,-366 486.495,-360 492.495,-354 498.495,-354"/>
<text text-anchor="middle" x="553" y="-438.8" font-family="Times,serif" font-size="14.00">Contactlocation</text>
<polyline fill="none" stroke="black" points="486.495,-432 619.505,-432 "/>
<text text-anchor="start" x="494.495" y="-416.8" font-family="Times,serif" font-size="14.00">id :INTEGER</text>
<text text-anchor="start" x="494.495" y="-402.8" font-family="Times,serif" font-size="14.00">contact_id :integer</text>
<text text-anchor="start" x="494.495" y="-388.8" font-family="Times,serif" font-size="14.00">location_id :integer</text>
<text text-anchor="start" x="494.495" y="-374.8" font-family="Times,serif" font-size="14.00">created_at :datetime</text>
<text text-anchor="start" x="494.495" y="-360.8" font-family="Times,serif" font-size="14.00">updated_at :datetime</text>
</g>
<!-- Contact&#45;&gt;Contactlocation -->
<g id="edge2" class="edge"><title>Contact&#45;&gt;Contactlocation</title>
<path fill="none" stroke="#a93ecb" d="M607.862,-589.077C596.111,-549.647 581.66,-501.162 570.54,-463.851"/>
<ellipse fill="none" stroke="#a93ecb" cx="609.071" cy="-593.133" rx="4.00001" ry="4.00001"/>
<polygon fill="#a93ecb" stroke="#a93ecb" points="570.499,-463.715 571.956,-452.846 569.071,-458.923 567.643,-454.131 567.643,-454.131 567.643,-454.131 569.071,-458.923 563.33,-455.417 570.499,-463.715 570.499,-463.715"/>
</g>
<!-- Email -->
<g id="node5" class="node"><title>Email</title>
<path fill="none" stroke="black" d="M75.3394,-139C75.3394,-139 200.661,-139 200.661,-139 206.661,-139 212.661,-145 212.661,-151 212.661,-151 212.661,-269 212.661,-269 212.661,-275 206.661,-281 200.661,-281 200.661,-281 75.3394,-281 75.3394,-281 69.3394,-281 63.3394,-275 63.3394,-269 63.3394,-269 63.3394,-151 63.3394,-151 63.3394,-145 69.3394,-139 75.3394,-139"/>
<text text-anchor="middle" x="138" y="-265.8" font-family="Times,serif" font-size="14.00">Email</text>
<polyline fill="none" stroke="black" points="63.3394,-259 212.661,-259 "/>
<text text-anchor="start" x="71.3394" y="-243.8" font-family="Times,serif" font-size="14.00">id :INTEGER</text>
<text text-anchor="start" x="71.3394" y="-229.8" font-family="Times,serif" font-size="14.00">subject :varchar</text>
<text text-anchor="start" x="71.3394" y="-215.8" font-family="Times,serif" font-size="14.00">text :text</text>
<text text-anchor="start" x="71.3394" y="-201.8" font-family="Times,serif" font-size="14.00">gig_id :integer</text>
<text text-anchor="start" x="71.3394" y="-187.8" font-family="Times,serif" font-size="14.00">created_at :datetime</text>
<text text-anchor="start" x="71.3394" y="-173.8" font-family="Times,serif" font-size="14.00">updated_at :datetime</text>
<text text-anchor="start" x="71.3394" y="-159.8" font-family="Times,serif" font-size="14.00">email_type_id :integer</text>
<text text-anchor="start" x="71.3394" y="-145.8" font-family="Times,serif" font-size="14.00">transferred_at :datetime</text>
</g>
<!-- EmailType -->
<g id="node6" class="node"><title>EmailType</title>
<path fill="none" stroke="black" d="M83.4946,-8C83.4946,-8 192.505,-8 192.505,-8 198.505,-8 204.505,-14 204.505,-20 204.505,-20 204.505,-82 204.505,-82 204.505,-88 198.505,-94 192.505,-94 192.505,-94 83.4946,-94 83.4946,-94 77.4946,-94 71.4946,-88 71.4946,-82 71.4946,-82 71.4946,-20 71.4946,-20 71.4946,-14 77.4946,-8 83.4946,-8"/>
<text text-anchor="middle" x="138" y="-78.8" font-family="Times,serif" font-size="14.00">EmailType</text>
<polyline fill="none" stroke="black" points="71.4946,-72 204.505,-72 "/>
<text text-anchor="start" x="79.4946" y="-56.8" font-family="Times,serif" font-size="14.00">id :INTEGER</text>
<text text-anchor="start" x="79.4946" y="-42.8" font-family="Times,serif" font-size="14.00">text :varchar</text>
<text text-anchor="start" x="79.4946" y="-28.8" font-family="Times,serif" font-size="14.00">created_at :datetime</text>
<text text-anchor="start" x="79.4946" y="-14.8" font-family="Times,serif" font-size="14.00">updated_at :datetime</text>
</g>
<!-- Email&#45;&gt;EmailType -->
<g id="edge3" class="edge"><title>Email&#45;&gt;EmailType</title>
<path fill="none" stroke="#22cb58" d="M138,-130.552C138,-120.968 138,-111.382 138,-102.366"/>
<ellipse fill="none" stroke="#22cb58" cx="138" cy="-134.766" rx="4" ry="4"/>
<ellipse fill="#22cb58" stroke="#22cb58" cx="138" cy="-98.2635" rx="4" ry="4"/>
</g>
<!-- Gig -->
<g id="node7" class="node"><title>Gig</title>
<path fill="none" stroke="black" d="M218.384,-319C218.384,-319 375.616,-319 375.616,-319 381.616,-319 387.616,-325 387.616,-331 387.616,-331 387.616,-477 387.616,-477 387.616,-483 381.616,-489 375.616,-489 375.616,-489 218.384,-489 218.384,-489 212.384,-489 206.384,-483 206.384,-477 206.384,-477 206.384,-331 206.384,-331 206.384,-325 212.384,-319 218.384,-319"/>
<text text-anchor="middle" x="297" y="-473.8" font-family="Times,serif" font-size="14.00">Gig</text>
<polyline fill="none" stroke="black" points="206.384,-467 387.616,-467 "/>
<text text-anchor="start" x="214.384" y="-451.8" font-family="Times,serif" font-size="14.00">id :INTEGER</text>
<text text-anchor="start" x="214.384" y="-437.8" font-family="Times,serif" font-size="14.00">created_at :datetime</text>
<text text-anchor="start" x="214.384" y="-423.8" font-family="Times,serif" font-size="14.00">updated_at :datetime</text>
<text text-anchor="start" x="214.384" y="-409.8" font-family="Times,serif" font-size="14.00">name :varchar</text>
<text text-anchor="start" x="214.384" y="-395.8" font-family="Times,serif" font-size="14.00">datetime :datetime</text>
<text text-anchor="start" x="214.384" y="-381.8" font-family="Times,serif" font-size="14.00">link_forum :varchar</text>
<text text-anchor="start" x="214.384" y="-367.8" font-family="Times,serif" font-size="14.00">vorhandenes_equipment :text</text>
<text text-anchor="start" x="214.384" y="-353.8" font-family="Times,serif" font-size="14.00">user_id :integer</text>
<text text-anchor="start" x="214.384" y="-339.8" font-family="Times,serif" font-size="14.00">stagesize :varchar</text>
<text text-anchor="start" x="214.384" y="-325.8" font-family="Times,serif" font-size="14.00">location_id :integer</text>
</g>
<!-- Gig&#45;&gt;Email -->
<g id="edge5" class="edge"><title>Gig&#45;&gt;Email</title>
<path fill="none" stroke="#cab82c" d="M222.112,-312.569C215.538,-304.631 208.922,-296.642 202.445,-288.82"/>
<ellipse fill="none" stroke="#cab82c" cx="224.709" cy="-315.705" rx="4.00002" ry="4.00002"/>
<polygon fill="#cab82c" stroke="#cab82c" points="202.399,-288.764 199.486,-278.192 199.209,-284.913 196.02,-281.062 196.02,-281.062 196.02,-281.062 199.209,-284.913 192.555,-283.933 202.399,-288.764 202.399,-288.764"/>
</g>
<!-- Reminder -->
<g id="node9" class="node"><title>Reminder</title>
<path fill="none" stroke="black" d="M242.495,-146C242.495,-146 351.505,-146 351.505,-146 357.505,-146 363.505,-152 363.505,-158 363.505,-158 363.505,-262 363.505,-262 363.505,-268 357.505,-274 351.505,-274 351.505,-274 242.495,-274 242.495,-274 236.495,-274 230.495,-268 230.495,-262 230.495,-262 230.495,-158 230.495,-158 230.495,-152 236.495,-146 242.495,-146"/>
<text text-anchor="middle" x="297" y="-258.8" font-family="Times,serif" font-size="14.00">Reminder</text>
<polyline fill="none" stroke="black" points="230.495,-252 363.505,-252 "/>
<text text-anchor="start" x="238.495" y="-236.8" font-family="Times,serif" font-size="14.00">id :INTEGER</text>
<text text-anchor="start" x="238.495" y="-222.8" font-family="Times,serif" font-size="14.00">done :boolean</text>
<text text-anchor="start" x="238.495" y="-208.8" font-family="Times,serif" font-size="14.00">due :date</text>
<text text-anchor="start" x="238.495" y="-194.8" font-family="Times,serif" font-size="14.00">text :text</text>
<text text-anchor="start" x="238.495" y="-180.8" font-family="Times,serif" font-size="14.00">gig_id :integer</text>
<text text-anchor="start" x="238.495" y="-166.8" font-family="Times,serif" font-size="14.00">created_at :datetime</text>
<text text-anchor="start" x="238.495" y="-152.8" font-family="Times,serif" font-size="14.00">updated_at :datetime</text>
</g>
<!-- Gig&#45;&gt;Reminder -->
<g id="edge6" class="edge"><title>Gig&#45;&gt;Reminder</title>
<path fill="none" stroke="#462f3c" d="M297,-310.664C297,-301.758 297,-292.81 297,-284.127"/>
<ellipse fill="none" stroke="#462f3c" cx="297" cy="-314.786" rx="4" ry="4"/>
<polygon fill="#462f3c" stroke="#462f3c" points="297,-284.075 301.5,-274.075 297,-279.075 297,-274.075 297,-274.075 297,-274.075 297,-279.075 292.5,-274.075 297,-284.075 297,-284.075"/>
</g>
<!-- Status -->
<g id="node10" class="node"><title>Status</title>
<path fill="none" stroke="black" d="M393.322,-160C393.322,-160 518.678,-160 518.678,-160 524.678,-160 530.678,-166 530.678,-172 530.678,-172 530.678,-248 530.678,-248 530.678,-254 524.678,-260 518.678,-260 518.678,-260 393.322,-260 393.322,-260 387.322,-260 381.322,-254 381.322,-248 381.322,-248 381.322,-172 381.322,-172 381.322,-166 387.322,-160 393.322,-160"/>
<text text-anchor="middle" x="456" y="-244.8" font-family="Times,serif" font-size="14.00">Status</text>
<polyline fill="none" stroke="black" points="381.322,-238 530.678,-238 "/>
<text text-anchor="start" x="389.322" y="-222.8" font-family="Times,serif" font-size="14.00">id :INTEGER</text>
<text text-anchor="start" x="389.322" y="-208.8" font-family="Times,serif" font-size="14.00">created_at :datetime</text>
<text text-anchor="start" x="389.322" y="-194.8" font-family="Times,serif" font-size="14.00">updated_at :datetime</text>
<text text-anchor="start" x="389.322" y="-180.8" font-family="Times,serif" font-size="14.00">gig_id :integer</text>
<text text-anchor="start" x="389.322" y="-166.8" font-family="Times,serif" font-size="14.00">status_value_id :integer</text>
</g>
<!-- Gig&#45;&gt;Status -->
<g id="edge4" class="edge"><title>Gig&#45;&gt;Status</title>
<path fill="none" stroke="#89f6d4" d="M372.205,-312.187C384.635,-297.177 397.205,-281.998 408.695,-268.122"/>
<ellipse fill="none" stroke="#89f6d4" cx="369.291" cy="-315.705" rx="4.00002" ry="4.00002"/>
<polygon fill="#89f6d4" stroke="#89f6d4" points="408.949,-267.817 418.793,-262.985 412.138,-263.966 415.327,-260.115 415.327,-260.115 415.327,-260.115 412.138,-263.966 411.861,-257.245 408.949,-267.817 408.949,-267.817"/>
</g>
<!-- Location -->
<g id="node8" class="node"><title>Location</title>
<path fill="none" stroke="black" d="M423.495,-597C423.495,-597 532.505,-597 532.505,-597 538.505,-597 544.505,-603 544.505,-609 544.505,-609 544.505,-713 544.505,-713 544.505,-719 538.505,-725 532.505,-725 532.505,-725 423.495,-725 423.495,-725 417.495,-725 411.495,-719 411.495,-713 411.495,-713 411.495,-609 411.495,-609 411.495,-603 417.495,-597 423.495,-597"/>
<text text-anchor="middle" x="478" y="-709.8" font-family="Times,serif" font-size="14.00">Location</text>
<polyline fill="none" stroke="black" points="411.495,-703 544.505,-703 "/>
<text text-anchor="start" x="419.495" y="-687.8" font-family="Times,serif" font-size="14.00">id :INTEGER</text>
<text text-anchor="start" x="419.495" y="-673.8" font-family="Times,serif" font-size="14.00">name :varchar</text>
<text text-anchor="start" x="419.495" y="-659.8" font-family="Times,serif" font-size="14.00">address :varchar</text>
<text text-anchor="start" x="419.495" y="-645.8" font-family="Times,serif" font-size="14.00">website :varchar</text>
<text text-anchor="start" x="419.495" y="-631.8" font-family="Times,serif" font-size="14.00">festival :boolean</text>
<text text-anchor="start" x="419.495" y="-617.8" font-family="Times,serif" font-size="14.00">created_at :datetime</text>
<text text-anchor="start" x="419.495" y="-603.8" font-family="Times,serif" font-size="14.00">updated_at :datetime</text>
</g>
<!-- Location&#45;&gt;Contactlocation -->
<g id="edge8" class="edge"><title>Location&#45;&gt;Contactlocation</title>
<path fill="none" stroke="#624622" d="M498.86,-589.077C510.457,-549.647 524.717,-501.162 535.691,-463.851"/>
<ellipse fill="none" stroke="#624622" cx="497.668" cy="-593.129" rx="4.00001" ry="4.00001"/>
<polygon fill="#624622" stroke="#624622" points="535.728,-463.725 542.867,-455.401 537.139,-458.928 538.55,-454.131 538.55,-454.131 538.55,-454.131 537.139,-458.928 534.233,-452.861 535.728,-463.725 535.728,-463.725"/>
</g>
<!-- Location&#45;&gt;Gig -->
<g id="edge7" class="edge"><title>Location&#45;&gt;Gig</title>
<path fill="none" stroke="#7c1300" d="M441.565,-589.659C429.77,-568.646 416.078,-545.916 402,-526 395.227,-516.418 387.835,-506.709 380.211,-497.173"/>
<ellipse fill="none" stroke="#7c1300" cx="443.545" cy="-593.217" rx="4.00002" ry="4.00002"/>
<polygon fill="#7c1300" stroke="#7c1300" points="380.056,-496.982 377.259,-486.379 376.909,-493.097 373.762,-489.211 373.762,-489.211 373.762,-489.211 376.909,-493.097 370.265,-492.044 380.056,-496.982 380.056,-496.982"/>
</g>
<!-- StatusValue -->
<g id="node11" class="node"><title>StatusValue</title>
<path fill="none" stroke="black" d="M401.495,-1C401.495,-1 510.505,-1 510.505,-1 516.505,-1 522.505,-7 522.505,-13 522.505,-13 522.505,-89 522.505,-89 522.505,-95 516.505,-101 510.505,-101 510.505,-101 401.495,-101 401.495,-101 395.495,-101 389.495,-95 389.495,-89 389.495,-89 389.495,-13 389.495,-13 389.495,-7 395.495,-1 401.495,-1"/>
<text text-anchor="middle" x="456" y="-85.8" font-family="Times,serif" font-size="14.00">StatusValue</text>
<polyline fill="none" stroke="black" points="389.495,-79 522.505,-79 "/>
<text text-anchor="start" x="397.495" y="-63.8" font-family="Times,serif" font-size="14.00">id :INTEGER</text>
<text text-anchor="start" x="397.495" y="-49.8" font-family="Times,serif" font-size="14.00">text :varchar</text>
<text text-anchor="start" x="397.495" y="-35.8" font-family="Times,serif" font-size="14.00">created_at :datetime</text>
<text text-anchor="start" x="397.495" y="-21.8" font-family="Times,serif" font-size="14.00">updated_at :datetime</text>
<text text-anchor="start" x="397.495" y="-7.8" font-family="Times,serif" font-size="14.00">order :integer</text>
</g>
<!-- Status&#45;&gt;StatusValue -->
<g id="edge9" class="edge"><title>Status&#45;&gt;StatusValue</title>
<path fill="none" stroke="#7e4e97" d="M456,-151.725C456,-137.839 456,-122.995 456,-109.116"/>
<ellipse fill="none" stroke="#7e4e97" cx="456" cy="-155.755" rx="4" ry="4"/>
<ellipse fill="#7e4e97" stroke="#7e4e97" cx="456" cy="-105.07" rx="4" ry="4"/>
</g>
<!-- User&#45;&gt;Gig -->
<g id="edge10" class="edge"><title>User&#45;&gt;Gig</title>
<path fill="none" stroke="#fe1921" d="M294.322,-518.813C294.474,-512.37 294.624,-505.975 294.772,-499.693"/>
<ellipse fill="none" stroke="#fe1921" cx="294.226" cy="-522.9" rx="4" ry="4"/>
<polygon fill="#fe1921" stroke="#fe1921" points="294.783,-499.238 299.517,-489.346 294.9,-494.239 295.018,-489.241 295.018,-489.241 295.018,-489.241 294.9,-494.239 290.519,-489.135 294.783,-499.238 294.783,-499.238"/>
</g>
</g>
</svg>
