<?xml version="1.0" encoding="UTF-8" standalone="no"?>
<!DOCTYPE svg PUBLIC "-//W3C//DTD SVG 1.1//EN"
 "http://www.w3.org/Graphics/SVG/1.1/DTD/svg11.dtd">
<!-- Generated by graphviz version 2.36.0 (20140111.2315)
 -->
<!-- Title: models_diagram Pages: 1 -->
<svg width="324pt" height="370pt"
 viewBox="0.00 0.00 324.00 370.00" xmlns="http://www.w3.org/2000/svg" xmlns:xlink="http://www.w3.org/1999/xlink">
<g id="graph0" class="graph" transform="scale(1 1) rotate(0) translate(4 366)">
<title>models_diagram</title>
<polygon fill="none" stroke="none" points="-4,4 -4,-366 320,-366 320,4 -4,4"/>
<!-- _diagram_info -->
<g id="node1" class="node"><title>_diagram_info</title>
<text text-anchor="start" x="7.31226" y="-347.1" font-family="Times,serif" font-size="13.00">Models diagram</text>
<text text-anchor="start" x="7.31226" y="-334.1" font-family="Times,serif" font-size="13.00">Date: Sep 10 2016 &#45; 19:15</text>
<text text-anchor="start" x="7.31226" y="-321.1" font-family="Times,serif" font-size="13.00">Migration version: 20160910090754</text>
<text text-anchor="start" x="7.31226" y="-308.1" font-family="Times,serif" font-size="13.00">Generated by RailRoady 1.4.2</text>
<text text-anchor="start" x="7.31226" y="-295.1" font-family="Times,serif" font-size="13.00">http://railroady.prestonlee.com</text>
</g>
<!-- Band -->
<g id="node2" class="node"><title>Band</title>
<ellipse fill="none" stroke="black" cx="253" cy="-325" rx="28.1657" ry="18"/>
<text text-anchor="middle" x="253" y="-320.8" font-family="Times,serif" font-size="14.00">Band</text>
</g>
<!-- StatusValue -->
<g id="node5" class="node"><title>StatusValue</title>
<ellipse fill="none" stroke="black" cx="255" cy="-18" rx="51.2958" ry="18"/>
<text text-anchor="middle" x="255" y="-13.8" font-family="Times,serif" font-size="14.00">StatusValue</text>
</g>
<!-- Band&#45;&gt;StatusValue -->
<g id="edge2" class="edge"><title>Band&#45;&gt;StatusValue</title>
<path fill="none" stroke="#e89449" d="M249.074,-298.821C247.12,-285.032 244.972,-267.618 244,-252 239.029,-172.155 235.829,-151.582 244,-72 244.877,-63.455 246.531,-54.2552 248.294,-45.9576"/>
<ellipse fill="none" stroke="#e89449" cx="249.674" cy="-302.932" rx="4.00001" ry="4.00001"/>
<polygon fill="#e89449" stroke="#e89449" points="248.329,-45.8005 254.925,-37.0399 249.432,-40.9237 250.536,-36.0469 250.536,-36.0469 250.536,-36.0469 249.432,-40.9237 246.147,-35.054 248.329,-45.8005 248.329,-45.8005"/>
</g>
<!-- User -->
<g id="node6" class="node"><title>User</title>
<ellipse fill="none" stroke="black" cx="280" cy="-234" rx="27" ry="18"/>
<text text-anchor="middle" x="280" y="-229.8" font-family="Times,serif" font-size="14.00">User</text>
</g>
<!-- Band&#45;&gt;User -->
<g id="edge1" class="edge"><title>Band&#45;&gt;User</title>
<path fill="none" stroke="#d05649" d="M260.482,-299.337C264.019,-287.678 268.249,-273.736 271.865,-261.815"/>
<ellipse fill="none" stroke="#d05649" cx="259.24" cy="-303.432" rx="4.00001" ry="4.00001"/>
<polygon fill="#d05649" stroke="#d05649" points="271.949,-261.537 279.159,-253.274 273.401,-256.752 274.852,-251.968 274.852,-251.968 274.852,-251.968 273.401,-256.752 270.546,-250.661 271.949,-261.537 271.949,-261.537"/>
</g>
<!-- Gig -->
<g id="node3" class="node"><title>Gig</title>
<ellipse fill="none" stroke="black" cx="282" cy="-162" rx="27" ry="18"/>
<text text-anchor="middle" x="282" y="-157.8" font-family="Times,serif" font-size="14.00">Gig</text>
</g>
<!-- Status -->
<g id="node4" class="node"><title>Status</title>
<ellipse fill="none" stroke="black" cx="285" cy="-90" rx="31.5903" ry="18"/>
<text text-anchor="middle" x="285" y="-85.8" font-family="Times,serif" font-size="14.00">Status</text>
</g>
<!-- Gig&#45;&gt;Status -->
<g id="edge3" class="edge"><title>Gig&#45;&gt;Status</title>
<path fill="none" stroke="#2e5b82" d="M283.087,-135.64C283.326,-130.063 283.58,-124.132 283.822,-118.476"/>
<ellipse fill="none" stroke="#2e5b82" cx="282.913" cy="-139.7" rx="4" ry="4"/>
<polygon fill="#2e5b82" stroke="#2e5b82" points="283.839,-118.095 288.763,-108.297 284.053,-113.1 284.267,-108.104 284.267,-108.104 284.267,-108.104 284.053,-113.1 279.771,-107.912 283.839,-118.095 283.839,-118.095"/>
</g>
<!-- Status&#45;&gt;StatusValue -->
<g id="edge4" class="edge"><title>Status&#45;&gt;StatusValue</title>
<path fill="none" stroke="#07b0c4" d="M274.619,-64.7779C271.693,-57.9503 268.507,-50.5163 265.57,-43.6632"/>
<ellipse fill="none" stroke="#07b0c4" cx="276.315" cy="-68.7344" rx="4.00002" ry="4.00002"/>
<ellipse fill="#07b0c4" stroke="#07b0c4" cx="263.843" cy="-39.6328" rx="4.00001" ry="4.00001"/>
</g>
<!-- User&#45;&gt;Gig -->
<g id="edge5" class="edge"><title>User&#45;&gt;Gig</title>
<path fill="none" stroke="#103a03" d="M280.725,-207.64C280.884,-202.063 281.053,-196.132 281.215,-190.476"/>
<ellipse fill="none" stroke="#103a03" cx="280.609" cy="-211.698" rx="4" ry="4"/>
<polygon fill="#103a03" stroke="#103a03" points="281.226,-190.1 286.009,-180.233 281.368,-185.102 281.511,-180.104 281.511,-180.104 281.511,-180.104 281.368,-185.102 277.013,-179.976 281.226,-190.1 281.226,-190.1"/>
</g>
</g>
</svg>
