<?xml version="1.0" encoding="UTF-8" standalone="no"?>
<!DOCTYPE svg PUBLIC "-//W3C//DTD SVG 1.1//EN"
 "http://www.w3.org/Graphics/SVG/1.1/DTD/svg11.dtd">
<!-- Generated by graphviz version 2.36.0 (20140111.2315)
 -->
<!-- Title: models_diagram Pages: 1 -->
<svg width="492pt" height="370pt"
 viewBox="0.00 0.00 492.00 370.00" xmlns="http://www.w3.org/2000/svg" xmlns:xlink="http://www.w3.org/1999/xlink">
<g id="graph0" class="graph" transform="scale(1 1) rotate(0) translate(4 366)">
<title>models_diagram</title>
<polygon fill="none" stroke="none" points="-4,4 -4,-366 488,-366 488,4 -4,4"/>
<!-- _diagram_info -->
<g id="node1" class="node"><title>_diagram_info</title>
<text text-anchor="start" x="7.31226" y="-347.1" font-family="Times,serif" font-size="13.00">Models diagram</text>
<text text-anchor="start" x="7.31226" y="-334.1" font-family="Times,serif" font-size="13.00">Date: Oct 17 2016 &#45; 23:21</text>
<text text-anchor="start" x="7.31226" y="-321.1" font-family="Times,serif" font-size="13.00">Migration version: 20160926173133</text>
<text text-anchor="start" x="7.31226" y="-308.1" font-family="Times,serif" font-size="13.00">Generated by RailRoady 1.4.2</text>
<text text-anchor="start" x="7.31226" y="-295.1" font-family="Times,serif" font-size="13.00">http://railroady.prestonlee.com</text>
</g>
<!-- Band -->
<g id="node2" class="node"><title>Band</title>
<ellipse fill="none" stroke="black" cx="253" cy="-325" rx="28.1657" ry="18"/>
<text text-anchor="middle" x="253" y="-320.8" font-family="Times,serif" font-size="14.00">Band</text>
</g>
<!-- User -->
<g id="node11" class="node"><title>User</title>
<ellipse fill="none" stroke="black" cx="253" cy="-234" rx="27" ry="18"/>
<text text-anchor="middle" x="253" y="-229.8" font-family="Times,serif" font-size="14.00">User</text>
</g>
<!-- Band&#45;&gt;User -->
<g id="edge1" class="edge"><title>Band&#45;&gt;User</title>
<path fill="none" stroke="#6b0cfa" d="M253,-298.546C253,-287.148 253,-273.696 253,-262.11"/>
<ellipse fill="none" stroke="#6b0cfa" cx="253" cy="-302.84" rx="4" ry="4"/>
<polygon fill="#6b0cfa" stroke="#6b0cfa" points="253,-262.107 257.5,-252.107 253,-257.107 253,-252.107 253,-252.107 253,-252.107 253,-257.107 248.5,-252.107 253,-262.107 253,-262.107"/>
</g>
<!-- Contact -->
<g id="node3" class="node"><title>Contact</title>
<ellipse fill="none" stroke="black" cx="437" cy="-234" rx="37.4191" ry="18"/>
<text text-anchor="middle" x="437" y="-229.8" font-family="Times,serif" font-size="14.00">Contact</text>
</g>
<!-- Contactlocation -->
<g id="node4" class="node"><title>Contactlocation</title>
<ellipse fill="none" stroke="black" cx="418" cy="-162" rx="66.1495" ry="18"/>
<text text-anchor="middle" x="418" y="-157.8" font-family="Times,serif" font-size="14.00">Contactlocation</text>
</g>
<!-- Contact&#45;&gt;Contactlocation -->
<g id="edge2" class="edge"><title>Contact&#45;&gt;Contactlocation</title>
<path fill="none" stroke="#1d5dec" d="M430.287,-208.267C428.678,-202.34 426.952,-195.981 425.317,-189.959"/>
<ellipse fill="none" stroke="#1d5dec" cx="431.353" cy="-212.195" rx="4.00001" ry="4.00001"/>
<polygon fill="#1d5dec" stroke="#1d5dec" points="425.309,-189.926 427.032,-179.096 423.999,-185.101 422.689,-180.275 422.689,-180.275 422.689,-180.275 423.999,-185.101 418.346,-181.454 425.309,-189.926 425.309,-189.926"/>
</g>
<!-- Email -->
<g id="node5" class="node"><title>Email</title>
<ellipse fill="none" stroke="black" cx="231" cy="-90" rx="31.3408" ry="18"/>
<text text-anchor="middle" x="231" y="-85.8" font-family="Times,serif" font-size="14.00">Email</text>
</g>
<!-- EmailType -->
<g id="node6" class="node"><title>EmailType</title>
<ellipse fill="none" stroke="black" cx="222" cy="-18" rx="48.1723" ry="18"/>
<text text-anchor="middle" x="222" y="-13.8" font-family="Times,serif" font-size="14.00">EmailType</text>
</g>
<!-- Email&#45;&gt;EmailType -->
<g id="edge3" class="edge"><title>Email&#45;&gt;EmailType</title>
<path fill="none" stroke="#b484b1" d="M227.739,-63.6398C226.93,-57.348 226.064,-50.6053 225.255,-44.3156"/>
<ellipse fill="none" stroke="#b484b1" cx="228.265" cy="-67.7293" rx="4.00001" ry="4.00001"/>
<ellipse fill="#b484b1" stroke="#b484b1" cx="224.709" cy="-40.0717" rx="4.00001" ry="4.00001"/>
</g>
<!-- Gig -->
<g id="node7" class="node"><title>Gig</title>
<ellipse fill="none" stroke="black" cx="271" cy="-162" rx="27" ry="18"/>
<text text-anchor="middle" x="271" y="-157.8" font-family="Times,serif" font-size="14.00">Gig</text>
</g>
<!-- Gig&#45;&gt;Email -->
<g id="edge5" class="edge"><title>Gig&#45;&gt;Email</title>
<path fill="none" stroke="#a74bed" d="M257.62,-137.585C253.764,-130.837 249.538,-123.441 245.611,-116.569"/>
<ellipse fill="none" stroke="#a74bed" cx="259.738" cy="-141.292" rx="4.00002" ry="4.00002"/>
<polygon fill="#a74bed" stroke="#a74bed" points="245.466,-116.316 244.412,-105.401 242.986,-111.975 240.505,-107.633 240.505,-107.633 240.505,-107.633 242.986,-111.975 236.598,-109.866 245.466,-116.316 245.466,-116.316"/>
</g>
<!-- Status -->
<g id="node9" class="node"><title>Status</title>
<ellipse fill="none" stroke="black" cx="331" cy="-90" rx="31.5903" ry="18"/>
<text text-anchor="middle" x="331" y="-85.8" font-family="Times,serif" font-size="14.00">Status</text>
</g>
<!-- Gig&#45;&gt;Status -->
<g id="edge4" class="edge"><title>Gig&#45;&gt;Status</title>
<path fill="none" stroke="#7ac434" d="M289.428,-139.501C296.249,-131.543 304.012,-122.486 310.968,-114.37"/>
<ellipse fill="none" stroke="#7ac434" cx="286.622" cy="-142.774" rx="4.00002" ry="4.00002"/>
<polygon fill="#7ac434" stroke="#7ac434" points="311.083,-114.237 321.008,-109.573 314.337,-110.44 317.591,-106.644 317.591,-106.644 317.591,-106.644 314.337,-110.44 314.174,-103.715 311.083,-114.237 311.083,-114.237"/>
</g>
<!-- Location -->
<g id="node8" class="node"><title>Location</title>
<ellipse fill="none" stroke="black" cx="340" cy="-234" rx="41.3072" ry="18"/>
<text text-anchor="middle" x="340" y="-229.8" font-family="Times,serif" font-size="14.00">Location</text>
</g>
<!-- Location&#45;&gt;Contactlocation -->
<g id="edge7" class="edge"><title>Location&#45;&gt;Contactlocation</title>
<path fill="none" stroke="#c5996d" d="M363.491,-211.918C372.545,-203.793 382.93,-194.473 392.19,-186.162"/>
<ellipse fill="none" stroke="#c5996d" cx="360.288" cy="-214.793" rx="4.00002" ry="4.00002"/>
<polygon fill="#c5996d" stroke="#c5996d" points="392.208,-186.146 402.656,-182.816 395.93,-182.807 399.651,-179.467 399.651,-179.467 399.651,-179.467 395.93,-182.807 396.645,-176.118 392.208,-186.146 392.208,-186.146"/>
</g>
<!-- Location&#45;&gt;Gig -->
<g id="edge6" class="edge"><title>Location&#45;&gt;Gig</title>
<path fill="none" stroke="#957f64" d="M318.55,-211.24C310.234,-202.803 300.732,-193.163 292.419,-184.729"/>
<ellipse fill="none" stroke="#957f64" cx="321.535" cy="-214.267" rx="4.00002" ry="4.00002"/>
<polygon fill="#957f64" stroke="#957f64" points="292.207,-184.514 288.392,-174.234 288.697,-180.954 285.187,-177.393 285.187,-177.393 285.187,-177.393 288.697,-180.954 281.982,-180.552 292.207,-184.514 292.207,-184.514"/>
</g>
<!-- StatusValue -->
<g id="node10" class="node"><title>StatusValue</title>
<ellipse fill="none" stroke="black" cx="341" cy="-18" rx="51.2958" ry="18"/>
<text text-anchor="middle" x="341" y="-13.8" font-family="Times,serif" font-size="14.00">StatusValue</text>
</g>
<!-- Status&#45;&gt;StatusValue -->
<g id="edge8" class="edge"><title>Status&#45;&gt;StatusValue</title>
<path fill="none" stroke="#14acce" d="M334.623,-63.6398C335.522,-57.348 336.485,-50.6053 337.383,-44.3156"/>
<ellipse fill="none" stroke="#14acce" cx="334.038" cy="-67.7368" rx="4.00001" ry="4.00001"/>
<ellipse fill="#14acce" stroke="#14acce" cx="337.991" cy="-40.0641" rx="4.00001" ry="4.00001"/>
</g>
<!-- User&#45;&gt;Gig -->
<g id="edge9" class="edge"><title>User&#45;&gt;Gig</title>
<path fill="none" stroke="#2da87d" d="M259.391,-208.146C260.94,-202.124 262.601,-195.664 264.169,-189.566"/>
<ellipse fill="none" stroke="#2da87d" cx="258.353" cy="-212.181" rx="4.00001" ry="4.00001"/>
<polygon fill="#2da87d" stroke="#2da87d" points="264.192,-189.474 271.041,-180.91 265.438,-184.631 266.683,-179.789 266.683,-179.789 266.683,-179.789 265.438,-184.631 262.325,-178.668 264.192,-189.474 264.192,-189.474"/>
</g>
</g>
</svg>
