<?xml version="1.0" encoding="UTF-8" standalone="no"?>
<!DOCTYPE svg PUBLIC "-//W3C//DTD SVG 1.1//EN"
 "http://www.w3.org/Graphics/SVG/1.1/DTD/svg11.dtd">
<!-- Generated by graphviz version 2.36.0 (20140111.2315)
 -->
<!-- Title: models_diagram Pages: 1 -->
<svg width="703pt" height="942pt"
 viewBox="0.00 0.00 703.00 942.00" xmlns="http://www.w3.org/2000/svg" xmlns:xlink="http://www.w3.org/1999/xlink">
<g id="graph0" class="graph" transform="scale(1 1) rotate(0) translate(4 938)">
<title>models_diagram</title>
<polygon fill="none" stroke="none" points="-4,4 -4,-938 699,-938 699,4 -4,4"/>
<!-- _diagram_info -->
<g id="node1" class="node"><title>_diagram_info</title>
<text text-anchor="start" x="7.31226" y="-905.1" font-family="Times,serif" font-size="13.00">Models diagram</text>
<text text-anchor="start" x="7.31226" y="-892.1" font-family="Times,serif" font-size="13.00">Date: Oct 28 2016 &#45; 20:01</text>
<text text-anchor="start" x="7.31226" y="-879.1" font-family="Times,serif" font-size="13.00">Migration version: 20161028175226</text>
<text text-anchor="start" x="7.31226" y="-866.1" font-family="Times,serif" font-size="13.00">Generated by RailRoady 1.4.2</text>
<text text-anchor="start" x="7.31226" y="-853.1" font-family="Times,serif" font-size="13.00">http://railroady.prestonlee.com</text>
</g>
<!-- Band -->
<g id="node2" class="node"><title>Band</title>
<path fill="none" stroke="black" d="M236.495,-833C236.495,-833 345.505,-833 345.505,-833 351.505,-833 357.505,-839 357.505,-845 357.505,-845 357.505,-921 357.505,-921 357.505,-927 351.505,-933 345.505,-933 345.505,-933 236.495,-933 236.495,-933 230.495,-933 224.495,-927 224.495,-921 224.495,-921 224.495,-845 224.495,-845 224.495,-839 230.495,-833 236.495,-833"/>
<text text-anchor="middle" x="291" y="-917.8" font-family="Times,serif" font-size="14.00">Band</text>
<polyline fill="none" stroke="black" points="224.495,-911 357.505,-911 "/>
<text text-anchor="start" x="232.495" y="-895.8" font-family="Times,serif" font-size="14.00">id :INTEGER</text>
<text text-anchor="start" x="232.495" y="-881.8" font-family="Times,serif" font-size="14.00">tech_rider :text</text>
<text text-anchor="start" x="232.495" y="-867.8" font-family="Times,serif" font-size="14.00">created_at :datetime</text>
<text text-anchor="start" x="232.495" y="-853.8" font-family="Times,serif" font-size="14.00">updated_at :datetime</text>
<text text-anchor="start" x="232.495" y="-839.8" font-family="Times,serif" font-size="14.00">name :varchar</text>
</g>
<!-- User -->
<g id="node11" class="node"><title>User</title>
<path fill="none" stroke="black" d="M200.722,-527C200.722,-527 381.278,-527 381.278,-527 387.278,-527 393.278,-533 393.278,-539 393.278,-539 393.278,-783 393.278,-783 393.278,-789 387.278,-795 381.278,-795 381.278,-795 200.722,-795 200.722,-795 194.722,-795 188.722,-789 188.722,-783 188.722,-783 188.722,-539 188.722,-539 188.722,-533 194.722,-527 200.722,-527"/>
<text text-anchor="middle" x="291" y="-779.8" font-family="Times,serif" font-size="14.00">User</text>
<polyline fill="none" stroke="black" points="188.722,-773 393.278,-773 "/>
<text text-anchor="start" x="196.722" y="-757.8" font-family="Times,serif" font-size="14.00">id :INTEGER</text>
<text text-anchor="start" x="196.722" y="-743.8" font-family="Times,serif" font-size="14.00">email :varchar</text>
<text text-anchor="start" x="196.722" y="-729.8" font-family="Times,serif" font-size="14.00">encrypted_password :varchar</text>
<text text-anchor="start" x="196.722" y="-715.8" font-family="Times,serif" font-size="14.00">reset_password_token :varchar</text>
<text text-anchor="start" x="196.722" y="-701.8" font-family="Times,serif" font-size="14.00">reset_password_sent_at :datetime</text>
<text text-anchor="start" x="196.722" y="-687.8" font-family="Times,serif" font-size="14.00">remember_created_at :datetime</text>
<text text-anchor="start" x="196.722" y="-673.8" font-family="Times,serif" font-size="14.00">sign_in_count :integer</text>
<text text-anchor="start" x="196.722" y="-659.8" font-family="Times,serif" font-size="14.00">current_sign_in_at :datetime</text>
<text text-anchor="start" x="196.722" y="-645.8" font-family="Times,serif" font-size="14.00">last_sign_in_at :datetime</text>
<text text-anchor="start" x="196.722" y="-631.8" font-family="Times,serif" font-size="14.00">current_sign_in_ip :varchar</text>
<text text-anchor="start" x="196.722" y="-617.8" font-family="Times,serif" font-size="14.00">last_sign_in_ip :varchar</text>
<text text-anchor="start" x="196.722" y="-603.8" font-family="Times,serif" font-size="14.00">name :varchar</text>
<text text-anchor="start" x="196.722" y="-589.8" font-family="Times,serif" font-size="14.00">admin :boolean</text>
<text text-anchor="start" x="196.722" y="-575.8" font-family="Times,serif" font-size="14.00">created_at :datetime</text>
<text text-anchor="start" x="196.722" y="-561.8" font-family="Times,serif" font-size="14.00">updated_at :datetime</text>
<text text-anchor="start" x="196.722" y="-547.8" font-family="Times,serif" font-size="14.00">band_id :integer</text>
<text text-anchor="start" x="196.722" y="-533.8" font-family="Times,serif" font-size="14.00">instruments :varchar</text>
</g>
<!-- Band&#45;&gt;User -->
<g id="edge1" class="edge"><title>Band&#45;&gt;User</title>
<path fill="none" stroke="#18c310" d="M291,-824.878C291,-818.605 291,-812.031 291,-805.271"/>
<ellipse fill="none" stroke="#18c310" cx="291" cy="-828.902" rx="4" ry="4"/>
<polygon fill="#18c310" stroke="#18c310" points="291,-805.249 295.5,-795.249 291,-800.249 291,-795.249 291,-795.249 291,-795.249 291,-800.249 286.5,-795.249 291,-805.249 291,-805.249"/>
</g>
<!-- Contact -->
<g id="node3" class="node"><title>Contact</title>
<path fill="none" stroke="black" d="M574.495,-597C574.495,-597 683.505,-597 683.505,-597 689.505,-597 695.505,-603 695.505,-609 695.505,-609 695.505,-713 695.505,-713 695.505,-719 689.505,-725 683.505,-725 683.505,-725 574.495,-725 574.495,-725 568.495,-725 562.495,-719 562.495,-713 562.495,-713 562.495,-609 562.495,-609 562.495,-603 568.495,-597 574.495,-597"/>
<text text-anchor="middle" x="629" y="-709.8" font-family="Times,serif" font-size="14.00">Contact</text>
<polyline fill="none" stroke="black" points="562.495,-703 695.505,-703 "/>
<text text-anchor="start" x="570.495" y="-687.8" font-family="Times,serif" font-size="14.00">id :INTEGER</text>
<text text-anchor="start" x="570.495" y="-673.8" font-family="Times,serif" font-size="14.00">name :varchar</text>
<text text-anchor="start" x="570.495" y="-659.8" font-family="Times,serif" font-size="14.00">email :varchar</text>
<text text-anchor="start" x="570.495" y="-645.8" font-family="Times,serif" font-size="14.00">telephone :varchar</text>
<text text-anchor="start" x="570.495" y="-631.8" font-family="Times,serif" font-size="14.00">info :text</text>
<text text-anchor="start" x="570.495" y="-617.8" font-family="Times,serif" font-size="14.00">created_at :datetime</text>
<text text-anchor="start" x="570.495" y="-603.8" font-family="Times,serif" font-size="14.00">updated_at :datetime</text>
</g>
<!-- Contactlocation -->
<g id="node4" class="node"><title>Contactlocation</title>
<path fill="none" stroke="black" d="M498.495,-354C498.495,-354 607.505,-354 607.505,-354 613.505,-354 619.505,-360 619.505,-366 619.505,-366 619.505,-442 619.505,-442 619.505,-448 613.505,-454 607.505,-454 607.505,-454 498.495,-454 498.495,-454 492.495,-454 486.495,-448 486.495,-442 486.495,-442 486.495,-366 486.495,-366 486.495,-360 492.495,-354 498.495,-354"/>
<text text-anchor="middle" x="553" y="-438.8" font-family="Times,serif" font-size="14.00">Contactlocation</text>
<polyline fill="none" stroke="black" points="486.495,-432 619.505,-432 "/>
<text text-anchor="start" x="494.495" y="-416.8" font-family="Times,serif" font-size="14.00">id :INTEGER</text>
<text text-anchor="start" x="494.495" y="-402.8" font-family="Times,serif" font-size="14.00">contact_id :integer</text>
<text text-anchor="start" x="494.495" y="-388.8" font-family="Times,serif" font-size="14.00">location_id :integer</text>
<text text-anchor="start" x="494.495" y="-374.8" font-family="Times,serif" font-size="14.00">created_at :datetime</text>
<text text-anchor="start" x="494.495" y="-360.8" font-family="Times,serif" font-size="14.00">updated_at :datetime</text>
</g>
<!-- Contact&#45;&gt;Contactlocation -->
<g id="edge2" class="edge"><title>Contact&#45;&gt;Contactlocation</title>
<path fill="none" stroke="#a2ca6c" d="M607.862,-589.077C596.111,-549.647 581.66,-501.162 570.54,-463.851"/>
<ellipse fill="none" stroke="#a2ca6c" cx="609.071" cy="-593.133" rx="4.00001" ry="4.00001"/>
<polygon fill="#a2ca6c" stroke="#a2ca6c" points="570.499,-463.715 571.956,-452.846 569.071,-458.923 567.643,-454.131 567.643,-454.131 567.643,-454.131 569.071,-458.923 563.33,-455.417 570.499,-463.715 570.499,-463.715"/>
</g>
<!-- Email -->
<g id="node5" class="node"><title>Email</title>
<path fill="none" stroke="black" d="M151.339,-139C151.339,-139 276.661,-139 276.661,-139 282.661,-139 288.661,-145 288.661,-151 288.661,-151 288.661,-269 288.661,-269 288.661,-275 282.661,-281 276.661,-281 276.661,-281 151.339,-281 151.339,-281 145.339,-281 139.339,-275 139.339,-269 139.339,-269 139.339,-151 139.339,-151 139.339,-145 145.339,-139 151.339,-139"/>
<text text-anchor="middle" x="214" y="-265.8" font-family="Times,serif" font-size="14.00">Email</text>
<polyline fill="none" stroke="black" points="139.339,-259 288.661,-259 "/>
<text text-anchor="start" x="147.339" y="-243.8" font-family="Times,serif" font-size="14.00">id :INTEGER</text>
<text text-anchor="start" x="147.339" y="-229.8" font-family="Times,serif" font-size="14.00">subject :varchar</text>
<text text-anchor="start" x="147.339" y="-215.8" font-family="Times,serif" font-size="14.00">text :text</text>
<text text-anchor="start" x="147.339" y="-201.8" font-family="Times,serif" font-size="14.00">gig_id :integer</text>
<text text-anchor="start" x="147.339" y="-187.8" font-family="Times,serif" font-size="14.00">created_at :datetime</text>
<text text-anchor="start" x="147.339" y="-173.8" font-family="Times,serif" font-size="14.00">updated_at :datetime</text>
<text text-anchor="start" x="147.339" y="-159.8" font-family="Times,serif" font-size="14.00">email_type_id :integer</text>
<text text-anchor="start" x="147.339" y="-145.8" font-family="Times,serif" font-size="14.00">transferred_at :datetime</text>
</g>
<!-- EmailType -->
<g id="node6" class="node"><title>EmailType</title>
<path fill="none" stroke="black" d="M159.495,-8C159.495,-8 268.505,-8 268.505,-8 274.505,-8 280.505,-14 280.505,-20 280.505,-20 280.505,-82 280.505,-82 280.505,-88 274.505,-94 268.505,-94 268.505,-94 159.495,-94 159.495,-94 153.495,-94 147.495,-88 147.495,-82 147.495,-82 147.495,-20 147.495,-20 147.495,-14 153.495,-8 159.495,-8"/>
<text text-anchor="middle" x="214" y="-78.8" font-family="Times,serif" font-size="14.00">EmailType</text>
<polyline fill="none" stroke="black" points="147.495,-72 280.505,-72 "/>
<text text-anchor="start" x="155.495" y="-56.8" font-family="Times,serif" font-size="14.00">id :INTEGER</text>
<text text-anchor="start" x="155.495" y="-42.8" font-family="Times,serif" font-size="14.00">text :varchar</text>
<text text-anchor="start" x="155.495" y="-28.8" font-family="Times,serif" font-size="14.00">created_at :datetime</text>
<text text-anchor="start" x="155.495" y="-14.8" font-family="Times,serif" font-size="14.00">updated_at :datetime</text>
</g>
<!-- Email&#45;&gt;EmailType -->
<g id="edge3" class="edge"><title>Email&#45;&gt;EmailType</title>
<path fill="none" stroke="#9dee75" d="M214,-130.552C214,-120.968 214,-111.382 214,-102.366"/>
<ellipse fill="none" stroke="#9dee75" cx="214" cy="-134.766" rx="4" ry="4"/>
<ellipse fill="#9dee75" stroke="#9dee75" cx="214" cy="-98.2635" rx="4" ry="4"/>
</g>
<!-- Gig -->
<g id="node7" class="node"><title>Gig</title>
<path fill="none" stroke="black" d="M218.384,-319C218.384,-319 375.616,-319 375.616,-319 381.616,-319 387.616,-325 387.616,-331 387.616,-331 387.616,-477 387.616,-477 387.616,-483 381.616,-489 375.616,-489 375.616,-489 218.384,-489 218.384,-489 212.384,-489 206.384,-483 206.384,-477 206.384,-477 206.384,-331 206.384,-331 206.384,-325 212.384,-319 218.384,-319"/>
<text text-anchor="middle" x="297" y="-473.8" font-family="Times,serif" font-size="14.00">Gig</text>
<polyline fill="none" stroke="black" points="206.384,-467 387.616,-467 "/>
<text text-anchor="start" x="214.384" y="-451.8" font-family="Times,serif" font-size="14.00">id :INTEGER</text>
<text text-anchor="start" x="214.384" y="-437.8" font-family="Times,serif" font-size="14.00">created_at :datetime</text>
<text text-anchor="start" x="214.384" y="-423.8" font-family="Times,serif" font-size="14.00">updated_at :datetime</text>
<text text-anchor="start" x="214.384" y="-409.8" font-family="Times,serif" font-size="14.00">name :varchar</text>
<text text-anchor="start" x="214.384" y="-395.8" font-family="Times,serif" font-size="14.00">datetime :datetime</text>
<text text-anchor="start" x="214.384" y="-381.8" font-family="Times,serif" font-size="14.00">link_forum :varchar</text>
<text text-anchor="start" x="214.384" y="-367.8" font-family="Times,serif" font-size="14.00">vorhandenes_equipment :text</text>
<text text-anchor="start" x="214.384" y="-353.8" font-family="Times,serif" font-size="14.00">user_id :integer</text>
<text text-anchor="start" x="214.384" y="-339.8" font-family="Times,serif" font-size="14.00">stagesize :varchar</text>
<text text-anchor="start" x="214.384" y="-325.8" font-family="Times,serif" font-size="14.00">location_id :integer</text>
</g>
<!-- Gig&#45;&gt;Email -->
<g id="edge5" class="edge"><title>Gig&#45;&gt;Email</title>
<path fill="none" stroke="#522231" d="M257.394,-311.381C254.364,-304.373 251.321,-297.333 248.329,-290.412"/>
<ellipse fill="none" stroke="#522231" cx="259.008" cy="-315.114" rx="4.00002" ry="4.00002"/>
<polygon fill="#522231" stroke="#522231" points="248.255,-290.241 248.418,-279.277 246.271,-285.652 244.287,-281.062 244.287,-281.062 244.287,-281.062 246.271,-285.652 240.157,-282.848 248.255,-290.241 248.255,-290.241"/>
</g>
<!-- Status -->
<g id="node9" class="node"><title>Status</title>
<path fill="none" stroke="black" d="M318.322,-160C318.322,-160 443.678,-160 443.678,-160 449.678,-160 455.678,-166 455.678,-172 455.678,-172 455.678,-248 455.678,-248 455.678,-254 449.678,-260 443.678,-260 443.678,-260 318.322,-260 318.322,-260 312.322,-260 306.322,-254 306.322,-248 306.322,-248 306.322,-172 306.322,-172 306.322,-166 312.322,-160 318.322,-160"/>
<text text-anchor="middle" x="381" y="-244.8" font-family="Times,serif" font-size="14.00">Status</text>
<polyline fill="none" stroke="black" points="306.322,-238 455.678,-238 "/>
<text text-anchor="start" x="314.322" y="-222.8" font-family="Times,serif" font-size="14.00">id :INTEGER</text>
<text text-anchor="start" x="314.322" y="-208.8" font-family="Times,serif" font-size="14.00">created_at :datetime</text>
<text text-anchor="start" x="314.322" y="-194.8" font-family="Times,serif" font-size="14.00">updated_at :datetime</text>
<text text-anchor="start" x="314.322" y="-180.8" font-family="Times,serif" font-size="14.00">gig_id :integer</text>
<text text-anchor="start" x="314.322" y="-166.8" font-family="Times,serif" font-size="14.00">status_value_id :integer</text>
</g>
<!-- Gig&#45;&gt;Status -->
<g id="edge4" class="edge"><title>Gig&#45;&gt;Status</title>
<path fill="none" stroke="#7510bd" d="M337.144,-311.241C343.357,-297.04 349.625,-282.715 355.401,-269.512"/>
<ellipse fill="none" stroke="#7510bd" cx="335.447" cy="-315.121" rx="4.00002" ry="4.00002"/>
<polygon fill="#7510bd" stroke="#7510bd" points="355.504,-269.276 363.635,-261.918 357.508,-264.695 359.512,-260.115 359.512,-260.115 359.512,-260.115 357.508,-264.695 355.39,-258.311 355.504,-269.276 355.504,-269.276"/>
</g>
<!-- Location -->
<g id="node8" class="node"><title>Location</title>
<path fill="none" stroke="black" d="M423.495,-597C423.495,-597 532.505,-597 532.505,-597 538.505,-597 544.505,-603 544.505,-609 544.505,-609 544.505,-713 544.505,-713 544.505,-719 538.505,-725 532.505,-725 532.505,-725 423.495,-725 423.495,-725 417.495,-725 411.495,-719 411.495,-713 411.495,-713 411.495,-609 411.495,-609 411.495,-603 417.495,-597 423.495,-597"/>
<text text-anchor="middle" x="478" y="-709.8" font-family="Times,serif" font-size="14.00">Location</text>
<polyline fill="none" stroke="black" points="411.495,-703 544.505,-703 "/>
<text text-anchor="start" x="419.495" y="-687.8" font-family="Times,serif" font-size="14.00">id :INTEGER</text>
<text text-anchor="start" x="419.495" y="-673.8" font-family="Times,serif" font-size="14.00">name :varchar</text>
<text text-anchor="start" x="419.495" y="-659.8" font-family="Times,serif" font-size="14.00">address :varchar</text>
<text text-anchor="start" x="419.495" y="-645.8" font-family="Times,serif" font-size="14.00">website :varchar</text>
<text text-anchor="start" x="419.495" y="-631.8" font-family="Times,serif" font-size="14.00">festival :boolean</text>
<text text-anchor="start" x="419.495" y="-617.8" font-family="Times,serif" font-size="14.00">created_at :datetime</text>
<text text-anchor="start" x="419.495" y="-603.8" font-family="Times,serif" font-size="14.00">updated_at :datetime</text>
</g>
<!-- Location&#45;&gt;Contactlocation -->
<g id="edge7" class="edge"><title>Location&#45;&gt;Contactlocation</title>
<path fill="none" stroke="#d39c94" d="M498.86,-589.077C510.457,-549.647 524.717,-501.162 535.691,-463.851"/>
<ellipse fill="none" stroke="#d39c94" cx="497.668" cy="-593.129" rx="4.00001" ry="4.00001"/>
<polygon fill="#d39c94" stroke="#d39c94" points="535.728,-463.725 542.867,-455.401 537.139,-458.928 538.55,-454.131 538.55,-454.131 538.55,-454.131 537.139,-458.928 534.233,-452.861 535.728,-463.725 535.728,-463.725"/>
</g>
<!-- Location&#45;&gt;Gig -->
<g id="edge6" class="edge"><title>Location&#45;&gt;Gig</title>
<path fill="none" stroke="#6a686b" d="M441.565,-589.659C429.77,-568.646 416.078,-545.916 402,-526 395.227,-516.418 387.835,-506.709 380.211,-497.173"/>
<ellipse fill="none" stroke="#6a686b" cx="443.545" cy="-593.217" rx="4.00002" ry="4.00002"/>
<polygon fill="#6a686b" stroke="#6a686b" points="380.056,-496.982 377.259,-486.379 376.909,-493.097 373.762,-489.211 373.762,-489.211 373.762,-489.211 376.909,-493.097 370.265,-492.044 380.056,-496.982 380.056,-496.982"/>
</g>
<!-- StatusValue -->
<g id="node10" class="node"><title>StatusValue</title>
<path fill="none" stroke="black" d="M326.495,-1C326.495,-1 435.505,-1 435.505,-1 441.505,-1 447.505,-7 447.505,-13 447.505,-13 447.505,-89 447.505,-89 447.505,-95 441.505,-101 435.505,-101 435.505,-101 326.495,-101 326.495,-101 320.495,-101 314.495,-95 314.495,-89 314.495,-89 314.495,-13 314.495,-13 314.495,-7 320.495,-1 326.495,-1"/>
<text text-anchor="middle" x="381" y="-85.8" font-family="Times,serif" font-size="14.00">StatusValue</text>
<polyline fill="none" stroke="black" points="314.495,-79 447.505,-79 "/>
<text text-anchor="start" x="322.495" y="-63.8" font-family="Times,serif" font-size="14.00">id :INTEGER</text>
<text text-anchor="start" x="322.495" y="-49.8" font-family="Times,serif" font-size="14.00">text :varchar</text>
<text text-anchor="start" x="322.495" y="-35.8" font-family="Times,serif" font-size="14.00">created_at :datetime</text>
<text text-anchor="start" x="322.495" y="-21.8" font-family="Times,serif" font-size="14.00">updated_at :datetime</text>
<text text-anchor="start" x="322.495" y="-7.8" font-family="Times,serif" font-size="14.00">order :integer</text>
</g>
<!-- Status&#45;&gt;StatusValue -->
<g id="edge8" class="edge"><title>Status&#45;&gt;StatusValue</title>
<path fill="none" stroke="#1d1600" d="M381,-151.725C381,-137.839 381,-122.995 381,-109.116"/>
<ellipse fill="none" stroke="#1d1600" cx="381" cy="-155.755" rx="4" ry="4"/>
<ellipse fill="#1d1600" stroke="#1d1600" cx="381" cy="-105.07" rx="4" ry="4"/>
</g>
<!-- User&#45;&gt;Gig -->
<g id="edge9" class="edge"><title>User&#45;&gt;Gig</title>
<path fill="none" stroke="#7e5082" d="M294.322,-518.813C294.474,-512.37 294.624,-505.975 294.772,-499.693"/>
<ellipse fill="none" stroke="#7e5082" cx="294.226" cy="-522.9" rx="4" ry="4"/>
<polygon fill="#7e5082" stroke="#7e5082" points="294.783,-499.238 299.517,-489.346 294.9,-494.239 295.018,-489.241 295.018,-489.241 295.018,-489.241 294.9,-494.239 290.519,-489.135 294.783,-499.238 294.783,-499.238"/>
</g>
</g>
</svg>
