<?xml version="1.0" encoding="UTF-8" standalone="no"?>
<!DOCTYPE svg PUBLIC "-//W3C//DTD SVG 1.1//EN"
 "http://www.w3.org/Graphics/SVG/1.1/DTD/svg11.dtd">
<!-- Generated by graphviz version 2.36.0 (20140111.2315)
 -->
<!-- Title: models_diagram Pages: 1 -->
<svg width="589pt" height="370pt"
 viewBox="0.00 0.00 589.00 370.00" xmlns="http://www.w3.org/2000/svg" xmlns:xlink="http://www.w3.org/1999/xlink">
<g id="graph0" class="graph" transform="scale(1 1) rotate(0) translate(4 366)">
<title>models_diagram</title>
<polygon fill="none" stroke="none" points="-4,4 -4,-366 585,-366 585,4 -4,4"/>
<!-- _diagram_info -->
<g id="node1" class="node"><title>_diagram_info</title>
<text text-anchor="start" x="7.31226" y="-347.1" font-family="Times,serif" font-size="13.00">Models diagram</text>
<text text-anchor="start" x="7.31226" y="-334.1" font-family="Times,serif" font-size="13.00">Date: Aug 14 2017 &#45; 15:33</text>
<text text-anchor="start" x="7.31226" y="-321.1" font-family="Times,serif" font-size="13.00">Migration version: 20170607091525</text>
<text text-anchor="start" x="7.31226" y="-308.1" font-family="Times,serif" font-size="13.00">Generated by RailRoady 1.5.1</text>
<text text-anchor="start" x="7.31226" y="-295.1" font-family="Times,serif" font-size="13.00">http://railroady.prestonlee.com</text>
</g>
<!-- Activity -->
<g id="node2" class="node"><title>Activity</title>
<ellipse fill="none" stroke="black" cx="264" cy="-325" rx="39.135" ry="18"/>
<text text-anchor="middle" x="264" y="-320.8" font-family="Times,serif" font-size="14.00">Activity</text>
</g>
<!-- Band -->
<g id="node3" class="node"><title>Band</title>
<ellipse fill="none" stroke="black" cx="350" cy="-325" rx="28.1657" ry="18"/>
<text text-anchor="middle" x="350" y="-320.8" font-family="Times,serif" font-size="14.00">Band</text>
</g>
<!-- User -->
<g id="node14" class="node"><title>User</title>
<ellipse fill="none" stroke="black" cx="350" cy="-234" rx="27" ry="18"/>
<text text-anchor="middle" x="350" y="-229.8" font-family="Times,serif" font-size="14.00">User</text>
</g>
<!-- Band&#45;&gt;User -->
<g id="edge1" class="edge"><title>Band&#45;&gt;User</title>
<path fill="none" stroke="#ac82e1" d="M350,-298.546C350,-287.148 350,-273.696 350,-262.11"/>
<ellipse fill="none" stroke="#ac82e1" cx="350" cy="-302.84" rx="4" ry="4"/>
<polygon fill="#ac82e1" stroke="#ac82e1" points="350,-262.107 354.5,-252.107 350,-257.107 350,-252.107 350,-252.107 350,-252.107 350,-257.107 345.5,-252.107 350,-262.107 350,-262.107"/>
</g>
<!-- Contact -->
<g id="node4" class="node"><title>Contact</title>
<ellipse fill="none" stroke="black" cx="534" cy="-234" rx="37.4191" ry="18"/>
<text text-anchor="middle" x="534" y="-229.8" font-family="Times,serif" font-size="14.00">Contact</text>
</g>
<!-- Contactlocation -->
<g id="node5" class="node"><title>Contactlocation</title>
<ellipse fill="none" stroke="black" cx="515" cy="-162" rx="66.1495" ry="18"/>
<text text-anchor="middle" x="515" y="-157.8" font-family="Times,serif" font-size="14.00">Contactlocation</text>
</g>
<!-- Contact&#45;&gt;Contactlocation -->
<g id="edge2" class="edge"><title>Contact&#45;&gt;Contactlocation</title>
<path fill="none" stroke="#567e72" d="M527.287,-208.267C525.678,-202.34 523.952,-195.981 522.317,-189.959"/>
<ellipse fill="none" stroke="#567e72" cx="528.353" cy="-212.195" rx="4.00001" ry="4.00001"/>
<polygon fill="#567e72" stroke="#567e72" points="522.309,-189.926 524.032,-179.096 520.999,-185.101 519.689,-180.275 519.689,-180.275 519.689,-180.275 520.999,-185.101 515.346,-181.454 522.309,-189.926 522.309,-189.926"/>
</g>
<!-- Email -->
<g id="node6" class="node"><title>Email</title>
<ellipse fill="none" stroke="black" cx="274" cy="-90" rx="31.3408" ry="18"/>
<text text-anchor="middle" x="274" y="-85.8" font-family="Times,serif" font-size="14.00">Email</text>
</g>
<!-- EmailType -->
<g id="node7" class="node"><title>EmailType</title>
<ellipse fill="none" stroke="black" cx="274" cy="-18" rx="48.1723" ry="18"/>
<text text-anchor="middle" x="274" y="-13.8" font-family="Times,serif" font-size="14.00">EmailType</text>
</g>
<!-- Email&#45;&gt;EmailType -->
<g id="edge3" class="edge"><title>Email&#45;&gt;EmailType</title>
<path fill="none" stroke="#2f02d4" d="M274,-63.6398C274,-57.348 274,-50.6053 274,-44.3156"/>
<ellipse fill="none" stroke="#2f02d4" cx="274" cy="-67.6966" rx="4" ry="4"/>
<ellipse fill="#2f02d4" stroke="#2f02d4" cx="274" cy="-40.1043" rx="4" ry="4"/>
</g>
<!-- Fan -->
<g id="node8" class="node"><title>Fan</title>
<ellipse fill="none" stroke="black" cx="424" cy="-325" rx="27" ry="18"/>
<text text-anchor="middle" x="424" y="-320.8" font-family="Times,serif" font-size="14.00">Fan</text>
</g>
<!-- Gig -->
<g id="node9" class="node"><title>Gig</title>
<ellipse fill="none" stroke="black" cx="368" cy="-162" rx="27" ry="18"/>
<text text-anchor="middle" x="368" y="-157.8" font-family="Times,serif" font-size="14.00">Gig</text>
</g>
<!-- Gig&#45;&gt;Email -->
<g id="edge5" class="edge"><title>Gig&#45;&gt;Email</title>
<path fill="none" stroke="#b27a2b" d="M343.748,-142.94C330.436,-133.027 313.915,-120.724 300.294,-110.581"/>
<ellipse fill="none" stroke="#b27a2b" cx="347.111" cy="-145.444" rx="4.00002" ry="4.00002"/>
<polygon fill="#b27a2b" stroke="#b27a2b" points="300.263,-110.558 294.93,-100.976 296.253,-107.571 292.243,-104.585 292.243,-104.585 292.243,-104.585 296.253,-107.571 289.555,-108.194 300.263,-110.558 300.263,-110.558"/>
</g>
<!-- Reminder -->
<g id="node11" class="node"><title>Reminder</title>
<ellipse fill="none" stroke="black" cx="368" cy="-90" rx="44.4699" ry="18"/>
<text text-anchor="middle" x="368" y="-85.8" font-family="Times,serif" font-size="14.00">Reminder</text>
</g>
<!-- Gig&#45;&gt;Reminder -->
<g id="edge6" class="edge"><title>Gig&#45;&gt;Reminder</title>
<path fill="none" stroke="#7b61e5" d="M368,-135.64C368,-130.063 368,-124.132 368,-118.476"/>
<ellipse fill="none" stroke="#7b61e5" cx="368" cy="-139.697" rx="4" ry="4"/>
<polygon fill="#7b61e5" stroke="#7b61e5" points="368,-118.104 372.5,-108.104 368,-113.104 368,-108.104 368,-108.104 368,-108.104 368,-113.104 363.5,-108.104 368,-118.104 368,-118.104"/>
</g>
<!-- Status -->
<g id="node12" class="node"><title>Status</title>
<ellipse fill="none" stroke="black" cx="463" cy="-90" rx="31.5903" ry="18"/>
<text text-anchor="middle" x="463" y="-85.8" font-family="Times,serif" font-size="14.00">Status</text>
</g>
<!-- Gig&#45;&gt;Status -->
<g id="edge4" class="edge"><title>Gig&#45;&gt;Status</title>
<path fill="none" stroke="#a78e84" d="M392.055,-143.275C405.507,-133.363 422.307,-120.984 436.182,-110.761"/>
<ellipse fill="none" stroke="#a78e84" cx="388.645" cy="-145.788" rx="4.00002" ry="4.00002"/>
<polygon fill="#a78e84" stroke="#a78e84" points="436.336,-110.647 447.056,-108.338 440.362,-107.681 444.387,-104.715 444.387,-104.715 444.387,-104.715 440.362,-107.681 441.717,-101.092 436.336,-110.647 436.336,-110.647"/>
</g>
<!-- Location -->
<g id="node10" class="node"><title>Location</title>
<ellipse fill="none" stroke="black" cx="437" cy="-234" rx="41.3072" ry="18"/>
<text text-anchor="middle" x="437" y="-229.8" font-family="Times,serif" font-size="14.00">Location</text>
</g>
<!-- Location&#45;&gt;Contactlocation -->
<g id="edge8" class="edge"><title>Location&#45;&gt;Contactlocation</title>
<path fill="none" stroke="#3318c3" d="M460.491,-211.918C469.545,-203.793 479.93,-194.473 489.19,-186.162"/>
<ellipse fill="none" stroke="#3318c3" cx="457.288" cy="-214.793" rx="4.00002" ry="4.00002"/>
<polygon fill="#3318c3" stroke="#3318c3" points="489.208,-186.146 499.656,-182.816 492.93,-182.807 496.651,-179.467 496.651,-179.467 496.651,-179.467 492.93,-182.807 493.645,-176.118 489.208,-186.146 489.208,-186.146"/>
</g>
<!-- Location&#45;&gt;Gig -->
<g id="edge7" class="edge"><title>Location&#45;&gt;Gig</title>
<path fill="none" stroke="#0d0b1e" d="M415.55,-211.24C407.234,-202.803 397.732,-193.163 389.419,-184.729"/>
<ellipse fill="none" stroke="#0d0b1e" cx="418.535" cy="-214.267" rx="4.00002" ry="4.00002"/>
<polygon fill="#0d0b1e" stroke="#0d0b1e" points="389.207,-184.514 385.392,-174.234 385.697,-180.954 382.187,-177.393 382.187,-177.393 382.187,-177.393 385.697,-180.954 378.982,-180.552 389.207,-184.514 389.207,-184.514"/>
</g>
<!-- StatusValue -->
<g id="node13" class="node"><title>StatusValue</title>
<ellipse fill="none" stroke="black" cx="463" cy="-18" rx="51.2958" ry="18"/>
<text text-anchor="middle" x="463" y="-13.8" font-family="Times,serif" font-size="14.00">StatusValue</text>
</g>
<!-- Status&#45;&gt;StatusValue -->
<g id="edge9" class="edge"><title>Status&#45;&gt;StatusValue</title>
<path fill="none" stroke="#87e426" d="M463,-63.6398C463,-57.348 463,-50.6053 463,-44.3156"/>
<ellipse fill="none" stroke="#87e426" cx="463" cy="-67.6966" rx="4" ry="4"/>
<ellipse fill="#87e426" stroke="#87e426" cx="463" cy="-40.1043" rx="4" ry="4"/>
</g>
<!-- User&#45;&gt;Gig -->
<g id="edge10" class="edge"><title>User&#45;&gt;Gig</title>
<path fill="none" stroke="#c14b68" d="M356.391,-208.146C357.94,-202.124 359.601,-195.664 361.169,-189.566"/>
<ellipse fill="none" stroke="#c14b68" cx="355.353" cy="-212.181" rx="4.00001" ry="4.00001"/>
<polygon fill="#c14b68" stroke="#c14b68" points="361.192,-189.474 368.041,-180.91 362.438,-184.631 363.683,-179.789 363.683,-179.789 363.683,-179.789 362.438,-184.631 359.325,-178.668 361.192,-189.474 361.192,-189.474"/>
</g>
</g>
</svg>
