<?xml version="1.0" encoding="UTF-8" standalone="no"?>
<!DOCTYPE svg PUBLIC "-//W3C//DTD SVG 1.1//EN"
 "http://www.w3.org/Graphics/SVG/1.1/DTD/svg11.dtd">
<!-- Generated by graphviz version 2.36.0 (20140111.2315)
 -->
<!-- Title: models_diagram Pages: 1 -->
<svg width="380pt" height="370pt"
 viewBox="0.00 0.00 380.00 370.00" xmlns="http://www.w3.org/2000/svg" xmlns:xlink="http://www.w3.org/1999/xlink">
<g id="graph0" class="graph" transform="scale(1 1) rotate(0) translate(4 366)">
<title>models_diagram</title>
<polygon fill="none" stroke="none" points="-4,4 -4,-366 376,-366 376,4 -4,4"/>
<!-- _diagram_info -->
<g id="node1" class="node"><title>_diagram_info</title>
<text text-anchor="start" x="7.31226" y="-347.1" font-family="Times,serif" font-size="13.00">Models diagram</text>
<text text-anchor="start" x="7.31226" y="-334.1" font-family="Times,serif" font-size="13.00">Date: Sep 23 2016 &#45; 10:48</text>
<text text-anchor="start" x="7.31226" y="-321.1" font-family="Times,serif" font-size="13.00">Migration version: 20160910233158</text>
<text text-anchor="start" x="7.31226" y="-308.1" font-family="Times,serif" font-size="13.00">Generated by RailRoady 1.4.2</text>
<text text-anchor="start" x="7.31226" y="-295.1" font-family="Times,serif" font-size="13.00">http://railroady.prestonlee.com</text>
</g>
<!-- Band -->
<g id="node2" class="node"><title>Band</title>
<ellipse fill="none" stroke="black" cx="253" cy="-325" rx="28.1657" ry="18"/>
<text text-anchor="middle" x="253" y="-320.8" font-family="Times,serif" font-size="14.00">Band</text>
</g>
<!-- Contact -->
<g id="node3" class="node"><title>Contact</title>
<ellipse fill="none" stroke="black" cx="112" cy="-234" rx="37.4191" ry="18"/>
<text text-anchor="middle" x="112" y="-229.8" font-family="Times,serif" font-size="14.00">Contact</text>
</g>
<!-- Band&#45;&gt;Contact -->
<g id="edge4" class="edge"><title>Band&#45;&gt;Contact</title>
<path fill="none" stroke="#c17897" d="M233.257,-303.287C227.635,-297.962 221.315,-292.478 215,-288 194.324,-273.339 169.04,-260.267 148.697,-250.773"/>
<ellipse fill="none" stroke="#c17897" cx="236.19" cy="-306.152" rx="4.00002" ry="4.00002"/>
<polygon fill="#c17897" stroke="#c17897" points="148.536,-250.7 141.314,-242.448 143.989,-248.62 139.442,-246.54 139.442,-246.54 139.442,-246.54 143.989,-248.62 137.57,-250.632 148.536,-250.7 148.536,-250.7"/>
</g>
<!-- Location -->
<g id="node6" class="node"><title>Location</title>
<ellipse fill="none" stroke="black" cx="209" cy="-234" rx="41.3072" ry="18"/>
<text text-anchor="middle" x="209" y="-229.8" font-family="Times,serif" font-size="14.00">Location</text>
</g>
<!-- Band&#45;&gt;Location -->
<g id="edge3" class="edge"><title>Band&#45;&gt;Location</title>
<path fill="none" stroke="#ee1f1f" d="M241.2,-300.131C235.249,-288.095 228.021,-273.474 221.922,-261.137"/>
<ellipse fill="none" stroke="#ee1f1f" cx="243.157" cy="-304.09" rx="4.00002" ry="4.00002"/>
<polygon fill="#ee1f1f" stroke="#ee1f1f" points="221.75,-260.79 221.352,-249.831 219.534,-256.307 217.318,-251.825 217.318,-251.825 217.318,-251.825 219.534,-256.307 213.284,-253.82 221.75,-260.79 221.75,-260.79"/>
</g>
<!-- StatusValue -->
<g id="node8" class="node"><title>StatusValue</title>
<ellipse fill="none" stroke="black" cx="321" cy="-18" rx="51.2958" ry="18"/>
<text text-anchor="middle" x="321" y="-13.8" font-family="Times,serif" font-size="14.00">StatusValue</text>
</g>
<!-- Band&#45;&gt;StatusValue -->
<g id="edge2" class="edge"><title>Band&#45;&gt;StatusValue</title>
<path fill="none" stroke="#44a69a" d="M280.7,-307.547C299.029,-294.928 321.543,-275.678 332,-252 362.518,-182.895 342.719,-90.7814 329.729,-45.8858"/>
<ellipse fill="none" stroke="#44a69a" cx="276.994" cy="-310.005" rx="4.00002" ry="4.00002"/>
<polygon fill="#44a69a" stroke="#44a69a" points="329.646,-45.6108 331.075,-34.7384 328.206,-40.8228 326.765,-36.0347 326.765,-36.0347 326.765,-36.0347 328.206,-40.8228 322.456,-37.3311 329.646,-45.6108 329.646,-45.6108"/>
</g>
<!-- User -->
<g id="node9" class="node"><title>User</title>
<ellipse fill="none" stroke="black" cx="296" cy="-234" rx="27" ry="18"/>
<text text-anchor="middle" x="296" y="-229.8" font-family="Times,serif" font-size="14.00">User</text>
</g>
<!-- Band&#45;&gt;User -->
<g id="edge1" class="edge"><title>Band&#45;&gt;User</title>
<path fill="none" stroke="#5d57c8" d="M264.557,-300.08C270.412,-287.961 277.529,-273.231 283.51,-260.851"/>
<ellipse fill="none" stroke="#5d57c8" cx="262.627" cy="-304.074" rx="4.00002" ry="4.00002"/>
<polygon fill="#5d57c8" stroke="#5d57c8" points="283.667,-260.526 292.069,-253.48 285.842,-256.024 288.018,-251.522 288.018,-251.522 288.018,-251.522 285.842,-256.024 283.966,-249.564 283.667,-260.526 283.667,-260.526"/>
</g>
<!-- Contactlocation -->
<g id="node4" class="node"><title>Contactlocation</title>
<ellipse fill="none" stroke="black" cx="146" cy="-162" rx="66.1495" ry="18"/>
<text text-anchor="middle" x="146" y="-157.8" font-family="Times,serif" font-size="14.00">Contactlocation</text>
</g>
<!-- Contact&#45;&gt;Contactlocation -->
<g id="edge5" class="edge"><title>Contact&#45;&gt;Contactlocation</title>
<path fill="none" stroke="#593a87" d="M123.627,-209.062C126.75,-202.632 130.143,-195.647 133.32,-189.106"/>
<ellipse fill="none" stroke="#593a87" cx="121.805" cy="-212.813" rx="4.00002" ry="4.00002"/>
<polygon fill="#593a87" stroke="#593a87" points="133.395,-188.951 141.812,-181.922 135.58,-184.454 137.764,-179.956 137.764,-179.956 137.764,-179.956 135.58,-184.454 133.716,-177.99 133.395,-188.951 133.395,-188.951"/>
</g>
<!-- Gig -->
<g id="node5" class="node"><title>Gig</title>
<ellipse fill="none" stroke="black" cx="291" cy="-162" rx="27" ry="18"/>
<text text-anchor="middle" x="291" y="-157.8" font-family="Times,serif" font-size="14.00">Gig</text>
</g>
<!-- Status -->
<g id="node7" class="node"><title>Status</title>
<ellipse fill="none" stroke="black" cx="291" cy="-90" rx="31.5903" ry="18"/>
<text text-anchor="middle" x="291" y="-85.8" font-family="Times,serif" font-size="14.00">Status</text>
</g>
<!-- Gig&#45;&gt;Status -->
<g id="edge6" class="edge"><title>Gig&#45;&gt;Status</title>
<path fill="none" stroke="#cc40a0" d="M291,-135.64C291,-130.063 291,-124.132 291,-118.476"/>
<ellipse fill="none" stroke="#cc40a0" cx="291" cy="-139.697" rx="4" ry="4"/>
<polygon fill="#cc40a0" stroke="#cc40a0" points="291,-118.104 295.5,-108.104 291,-113.104 291,-108.104 291,-108.104 291,-108.104 291,-113.104 286.5,-108.104 291,-118.104 291,-118.104"/>
</g>
<!-- Location&#45;&gt;Contactlocation -->
<g id="edge8" class="edge"><title>Location&#45;&gt;Contactlocation</title>
<path fill="none" stroke="#1a9622" d="M188.96,-210.734C182.296,-203.329 174.839,-195.043 168.032,-187.481"/>
<ellipse fill="none" stroke="#1a9622" cx="191.712" cy="-213.791" rx="4.00002" ry="4.00002"/>
<polygon fill="#1a9622" stroke="#1a9622" points="167.66,-187.066 164.315,-176.623 164.315,-183.35 160.97,-179.633 160.97,-179.633 160.97,-179.633 164.315,-183.35 157.625,-182.644 167.66,-187.066 167.66,-187.066"/>
</g>
<!-- Location&#45;&gt;Gig -->
<g id="edge7" class="edge"><title>Location&#45;&gt;Gig</title>
<path fill="none" stroke="#9a8987" d="M233.542,-212.05C244.26,-202.9 256.777,-192.215 267.387,-183.157"/>
<ellipse fill="none" stroke="#9a8987" cx="230.241" cy="-214.868" rx="4.00002" ry="4.00002"/>
<polygon fill="#9a8987" stroke="#9a8987" points="267.462,-183.093 277.99,-180.023 271.265,-179.847 275.068,-176.6 275.068,-176.6 275.068,-176.6 271.265,-179.847 272.146,-173.178 267.462,-183.093 267.462,-183.093"/>
</g>
<!-- Status&#45;&gt;StatusValue -->
<g id="edge9" class="edge"><title>Status&#45;&gt;StatusValue</title>
<path fill="none" stroke="#860489" d="M301.381,-64.7779C304.307,-57.9503 307.493,-50.5163 310.43,-43.6632"/>
<ellipse fill="none" stroke="#860489" cx="299.685" cy="-68.7344" rx="4.00002" ry="4.00002"/>
<ellipse fill="#860489" stroke="#860489" cx="312.157" cy="-39.6328" rx="4.00001" ry="4.00001"/>
</g>
<!-- User&#45;&gt;Gig -->
<g id="edge10" class="edge"><title>User&#45;&gt;Gig</title>
<path fill="none" stroke="#3c9484" d="M294.189,-207.64C293.79,-202.063 293.367,-196.132 292.963,-190.476"/>
<ellipse fill="none" stroke="#3c9484" cx="294.479" cy="-211.707" rx="4" ry="4"/>
<polygon fill="#3c9484" stroke="#3c9484" points="292.934,-190.079 296.71,-179.784 292.578,-185.092 292.222,-180.104 292.222,-180.104 292.222,-180.104 292.578,-185.092 287.733,-180.425 292.934,-190.079 292.934,-190.079"/>
</g>
</g>
</svg>
