<?xml version="1.0" encoding="UTF-8" standalone="no"?>
<!DOCTYPE svg PUBLIC "-//W3C//DTD SVG 1.1//EN"
 "http://www.w3.org/Graphics/SVG/1.1/DTD/svg11.dtd">
<!-- Generated by graphviz version 2.36.0 (20140111.2315)
 -->
<!-- Title: models_diagram Pages: 1 -->
<svg width="703pt" height="928pt"
 viewBox="0.00 0.00 703.00 928.00" xmlns="http://www.w3.org/2000/svg" xmlns:xlink="http://www.w3.org/1999/xlink">
<g id="graph0" class="graph" transform="scale(1 1) rotate(0) translate(4 924)">
<title>models_diagram</title>
<polygon fill="none" stroke="none" points="-4,4 -4,-924 699,-924 699,4 -4,4"/>
<!-- _diagram_info -->
<g id="node1" class="node"><title>_diagram_info</title>
<text text-anchor="start" x="7.31226" y="-891.1" font-family="Times,serif" font-size="13.00">Models diagram</text>
<text text-anchor="start" x="7.31226" y="-878.1" font-family="Times,serif" font-size="13.00">Date: Oct 26 2016 &#45; 23:49</text>
<text text-anchor="start" x="7.31226" y="-865.1" font-family="Times,serif" font-size="13.00">Migration version: 20160926173133</text>
<text text-anchor="start" x="7.31226" y="-852.1" font-family="Times,serif" font-size="13.00">Generated by RailRoady 1.4.2</text>
<text text-anchor="start" x="7.31226" y="-839.1" font-family="Times,serif" font-size="13.00">http://railroady.prestonlee.com</text>
</g>
<!-- Band -->
<g id="node2" class="node"><title>Band</title>
<path fill="none" stroke="black" d="M236.495,-819C236.495,-819 345.505,-819 345.505,-819 351.505,-819 357.505,-825 357.505,-831 357.505,-831 357.505,-907 357.505,-907 357.505,-913 351.505,-919 345.505,-919 345.505,-919 236.495,-919 236.495,-919 230.495,-919 224.495,-913 224.495,-907 224.495,-907 224.495,-831 224.495,-831 224.495,-825 230.495,-819 236.495,-819"/>
<text text-anchor="middle" x="291" y="-903.8" font-family="Times,serif" font-size="14.00">Band</text>
<polyline fill="none" stroke="black" points="224.495,-897 357.505,-897 "/>
<text text-anchor="start" x="232.495" y="-881.8" font-family="Times,serif" font-size="14.00">id :INTEGER</text>
<text text-anchor="start" x="232.495" y="-867.8" font-family="Times,serif" font-size="14.00">tech_rider :text</text>
<text text-anchor="start" x="232.495" y="-853.8" font-family="Times,serif" font-size="14.00">created_at :datetime</text>
<text text-anchor="start" x="232.495" y="-839.8" font-family="Times,serif" font-size="14.00">updated_at :datetime</text>
<text text-anchor="start" x="232.495" y="-825.8" font-family="Times,serif" font-size="14.00">name :varchar</text>
</g>
<!-- User -->
<g id="node11" class="node"><title>User</title>
<path fill="none" stroke="black" d="M200.722,-513C200.722,-513 381.278,-513 381.278,-513 387.278,-513 393.278,-519 393.278,-525 393.278,-525 393.278,-769 393.278,-769 393.278,-775 387.278,-781 381.278,-781 381.278,-781 200.722,-781 200.722,-781 194.722,-781 188.722,-775 188.722,-769 188.722,-769 188.722,-525 188.722,-525 188.722,-519 194.722,-513 200.722,-513"/>
<text text-anchor="middle" x="291" y="-765.8" font-family="Times,serif" font-size="14.00">User</text>
<polyline fill="none" stroke="black" points="188.722,-759 393.278,-759 "/>
<text text-anchor="start" x="196.722" y="-743.8" font-family="Times,serif" font-size="14.00">id :INTEGER</text>
<text text-anchor="start" x="196.722" y="-729.8" font-family="Times,serif" font-size="14.00">email :varchar</text>
<text text-anchor="start" x="196.722" y="-715.8" font-family="Times,serif" font-size="14.00">encrypted_password :varchar</text>
<text text-anchor="start" x="196.722" y="-701.8" font-family="Times,serif" font-size="14.00">reset_password_token :varchar</text>
<text text-anchor="start" x="196.722" y="-687.8" font-family="Times,serif" font-size="14.00">reset_password_sent_at :datetime</text>
<text text-anchor="start" x="196.722" y="-673.8" font-family="Times,serif" font-size="14.00">remember_created_at :datetime</text>
<text text-anchor="start" x="196.722" y="-659.8" font-family="Times,serif" font-size="14.00">sign_in_count :integer</text>
<text text-anchor="start" x="196.722" y="-645.8" font-family="Times,serif" font-size="14.00">current_sign_in_at :datetime</text>
<text text-anchor="start" x="196.722" y="-631.8" font-family="Times,serif" font-size="14.00">last_sign_in_at :datetime</text>
<text text-anchor="start" x="196.722" y="-617.8" font-family="Times,serif" font-size="14.00">current_sign_in_ip :varchar</text>
<text text-anchor="start" x="196.722" y="-603.8" font-family="Times,serif" font-size="14.00">last_sign_in_ip :varchar</text>
<text text-anchor="start" x="196.722" y="-589.8" font-family="Times,serif" font-size="14.00">name :varchar</text>
<text text-anchor="start" x="196.722" y="-575.8" font-family="Times,serif" font-size="14.00">admin :boolean</text>
<text text-anchor="start" x="196.722" y="-561.8" font-family="Times,serif" font-size="14.00">created_at :datetime</text>
<text text-anchor="start" x="196.722" y="-547.8" font-family="Times,serif" font-size="14.00">updated_at :datetime</text>
<text text-anchor="start" x="196.722" y="-533.8" font-family="Times,serif" font-size="14.00">band_id :integer</text>
<text text-anchor="start" x="196.722" y="-519.8" font-family="Times,serif" font-size="14.00">instruments :varchar</text>
</g>
<!-- Band&#45;&gt;User -->
<g id="edge1" class="edge"><title>Band&#45;&gt;User</title>
<path fill="none" stroke="#2b264b" d="M291,-810.878C291,-804.605 291,-798.031 291,-791.271"/>
<ellipse fill="none" stroke="#2b264b" cx="291" cy="-814.902" rx="4" ry="4"/>
<polygon fill="#2b264b" stroke="#2b264b" points="291,-791.249 295.5,-781.249 291,-786.249 291,-781.249 291,-781.249 291,-781.249 291,-786.249 286.5,-781.249 291,-791.249 291,-791.249"/>
</g>
<!-- Contact -->
<g id="node3" class="node"><title>Contact</title>
<path fill="none" stroke="black" d="M574.495,-583C574.495,-583 683.505,-583 683.505,-583 689.505,-583 695.505,-589 695.505,-595 695.505,-595 695.505,-699 695.505,-699 695.505,-705 689.505,-711 683.505,-711 683.505,-711 574.495,-711 574.495,-711 568.495,-711 562.495,-705 562.495,-699 562.495,-699 562.495,-595 562.495,-595 562.495,-589 568.495,-583 574.495,-583"/>
<text text-anchor="middle" x="629" y="-695.8" font-family="Times,serif" font-size="14.00">Contact</text>
<polyline fill="none" stroke="black" points="562.495,-689 695.505,-689 "/>
<text text-anchor="start" x="570.495" y="-673.8" font-family="Times,serif" font-size="14.00">id :INTEGER</text>
<text text-anchor="start" x="570.495" y="-659.8" font-family="Times,serif" font-size="14.00">name :varchar</text>
<text text-anchor="start" x="570.495" y="-645.8" font-family="Times,serif" font-size="14.00">email :varchar</text>
<text text-anchor="start" x="570.495" y="-631.8" font-family="Times,serif" font-size="14.00">telephone :varchar</text>
<text text-anchor="start" x="570.495" y="-617.8" font-family="Times,serif" font-size="14.00">info :text</text>
<text text-anchor="start" x="570.495" y="-603.8" font-family="Times,serif" font-size="14.00">created_at :datetime</text>
<text text-anchor="start" x="570.495" y="-589.8" font-family="Times,serif" font-size="14.00">updated_at :datetime</text>
</g>
<!-- Contactlocation -->
<g id="node4" class="node"><title>Contactlocation</title>
<path fill="none" stroke="black" d="M498.495,-340C498.495,-340 607.505,-340 607.505,-340 613.505,-340 619.505,-346 619.505,-352 619.505,-352 619.505,-428 619.505,-428 619.505,-434 613.505,-440 607.505,-440 607.505,-440 498.495,-440 498.495,-440 492.495,-440 486.495,-434 486.495,-428 486.495,-428 486.495,-352 486.495,-352 486.495,-346 492.495,-340 498.495,-340"/>
<text text-anchor="middle" x="553" y="-424.8" font-family="Times,serif" font-size="14.00">Contactlocation</text>
<polyline fill="none" stroke="black" points="486.495,-418 619.505,-418 "/>
<text text-anchor="start" x="494.495" y="-402.8" font-family="Times,serif" font-size="14.00">id :INTEGER</text>
<text text-anchor="start" x="494.495" y="-388.8" font-family="Times,serif" font-size="14.00">contact_id :integer</text>
<text text-anchor="start" x="494.495" y="-374.8" font-family="Times,serif" font-size="14.00">location_id :integer</text>
<text text-anchor="start" x="494.495" y="-360.8" font-family="Times,serif" font-size="14.00">created_at :datetime</text>
<text text-anchor="start" x="494.495" y="-346.8" font-family="Times,serif" font-size="14.00">updated_at :datetime</text>
</g>
<!-- Contact&#45;&gt;Contactlocation -->
<g id="edge2" class="edge"><title>Contact&#45;&gt;Contactlocation</title>
<path fill="none" stroke="#75fd71" d="M607.862,-575.077C596.111,-535.647 581.66,-487.162 570.54,-449.851"/>
<ellipse fill="none" stroke="#75fd71" cx="609.071" cy="-579.133" rx="4.00001" ry="4.00001"/>
<polygon fill="#75fd71" stroke="#75fd71" points="570.499,-449.715 571.956,-438.846 569.071,-444.923 567.643,-440.131 567.643,-440.131 567.643,-440.131 569.071,-444.923 563.33,-441.417 570.499,-449.715 570.499,-449.715"/>
</g>
<!-- Email -->
<g id="node5" class="node"><title>Email</title>
<path fill="none" stroke="black" d="M155.826,-139C155.826,-139 274.174,-139 274.174,-139 280.174,-139 286.174,-145 286.174,-151 286.174,-151 286.174,-255 286.174,-255 286.174,-261 280.174,-267 274.174,-267 274.174,-267 155.826,-267 155.826,-267 149.826,-267 143.826,-261 143.826,-255 143.826,-255 143.826,-151 143.826,-151 143.826,-145 149.826,-139 155.826,-139"/>
<text text-anchor="middle" x="215" y="-251.8" font-family="Times,serif" font-size="14.00">Email</text>
<polyline fill="none" stroke="black" points="143.826,-245 286.174,-245 "/>
<text text-anchor="start" x="151.826" y="-229.8" font-family="Times,serif" font-size="14.00">id :INTEGER</text>
<text text-anchor="start" x="151.826" y="-215.8" font-family="Times,serif" font-size="14.00">subject :varchar</text>
<text text-anchor="start" x="151.826" y="-201.8" font-family="Times,serif" font-size="14.00">text :text</text>
<text text-anchor="start" x="151.826" y="-187.8" font-family="Times,serif" font-size="14.00">gig_id :integer</text>
<text text-anchor="start" x="151.826" y="-173.8" font-family="Times,serif" font-size="14.00">created_at :datetime</text>
<text text-anchor="start" x="151.826" y="-159.8" font-family="Times,serif" font-size="14.00">updated_at :datetime</text>
<text text-anchor="start" x="151.826" y="-145.8" font-family="Times,serif" font-size="14.00">email_type_id :integer</text>
</g>
<!-- EmailType -->
<g id="node6" class="node"><title>EmailType</title>
<path fill="none" stroke="black" d="M160.495,-8C160.495,-8 269.505,-8 269.505,-8 275.505,-8 281.505,-14 281.505,-20 281.505,-20 281.505,-82 281.505,-82 281.505,-88 275.505,-94 269.505,-94 269.505,-94 160.495,-94 160.495,-94 154.495,-94 148.495,-88 148.495,-82 148.495,-82 148.495,-20 148.495,-20 148.495,-14 154.495,-8 160.495,-8"/>
<text text-anchor="middle" x="215" y="-78.8" font-family="Times,serif" font-size="14.00">EmailType</text>
<polyline fill="none" stroke="black" points="148.495,-72 281.505,-72 "/>
<text text-anchor="start" x="156.495" y="-56.8" font-family="Times,serif" font-size="14.00">id :INTEGER</text>
<text text-anchor="start" x="156.495" y="-42.8" font-family="Times,serif" font-size="14.00">text :varchar</text>
<text text-anchor="start" x="156.495" y="-28.8" font-family="Times,serif" font-size="14.00">created_at :datetime</text>
<text text-anchor="start" x="156.495" y="-14.8" font-family="Times,serif" font-size="14.00">updated_at :datetime</text>
</g>
<!-- Email&#45;&gt;EmailType -->
<g id="edge3" class="edge"><title>Email&#45;&gt;EmailType</title>
<path fill="none" stroke="#d00d89" d="M215,-130.658C215,-121.108 215,-111.479 215,-102.392"/>
<ellipse fill="none" stroke="#d00d89" cx="215" cy="-134.821" rx="4" ry="4"/>
<ellipse fill="#d00d89" stroke="#d00d89" cx="215" cy="-98.2169" rx="4" ry="4"/>
</g>
<!-- Gig -->
<g id="node7" class="node"><title>Gig</title>
<path fill="none" stroke="black" d="M218.384,-305C218.384,-305 375.616,-305 375.616,-305 381.616,-305 387.616,-311 387.616,-317 387.616,-317 387.616,-463 387.616,-463 387.616,-469 381.616,-475 375.616,-475 375.616,-475 218.384,-475 218.384,-475 212.384,-475 206.384,-469 206.384,-463 206.384,-463 206.384,-317 206.384,-317 206.384,-311 212.384,-305 218.384,-305"/>
<text text-anchor="middle" x="297" y="-459.8" font-family="Times,serif" font-size="14.00">Gig</text>
<polyline fill="none" stroke="black" points="206.384,-453 387.616,-453 "/>
<text text-anchor="start" x="214.384" y="-437.8" font-family="Times,serif" font-size="14.00">id :INTEGER</text>
<text text-anchor="start" x="214.384" y="-423.8" font-family="Times,serif" font-size="14.00">created_at :datetime</text>
<text text-anchor="start" x="214.384" y="-409.8" font-family="Times,serif" font-size="14.00">updated_at :datetime</text>
<text text-anchor="start" x="214.384" y="-395.8" font-family="Times,serif" font-size="14.00">name :varchar</text>
<text text-anchor="start" x="214.384" y="-381.8" font-family="Times,serif" font-size="14.00">datetime :datetime</text>
<text text-anchor="start" x="214.384" y="-367.8" font-family="Times,serif" font-size="14.00">link_forum :varchar</text>
<text text-anchor="start" x="214.384" y="-353.8" font-family="Times,serif" font-size="14.00">vorhandenes_equipment :text</text>
<text text-anchor="start" x="214.384" y="-339.8" font-family="Times,serif" font-size="14.00">user_id :integer</text>
<text text-anchor="start" x="214.384" y="-325.8" font-family="Times,serif" font-size="14.00">stagesize :varchar</text>
<text text-anchor="start" x="214.384" y="-311.8" font-family="Times,serif" font-size="14.00">location_id :integer</text>
</g>
<!-- Gig&#45;&gt;Email -->
<g id="edge5" class="edge"><title>Gig&#45;&gt;Email</title>
<path fill="none" stroke="#02a6dd" d="M256.414,-297.435C253.29,-290.386 250.163,-283.331 247.105,-276.431"/>
<ellipse fill="none" stroke="#02a6dd" cx="258.098" cy="-301.234" rx="4.00002" ry="4.00002"/>
<polygon fill="#02a6dd" stroke="#02a6dd" points="247.037,-276.278 247.098,-265.312 245.01,-271.707 242.984,-267.135 242.984,-267.135 242.984,-267.135 245.01,-271.707 238.87,-268.959 247.037,-276.278 247.037,-276.278"/>
</g>
<!-- Status -->
<g id="node9" class="node"><title>Status</title>
<path fill="none" stroke="black" d="M316.322,-153C316.322,-153 441.678,-153 441.678,-153 447.678,-153 453.678,-159 453.678,-165 453.678,-165 453.678,-241 453.678,-241 453.678,-247 447.678,-253 441.678,-253 441.678,-253 316.322,-253 316.322,-253 310.322,-253 304.322,-247 304.322,-241 304.322,-241 304.322,-165 304.322,-165 304.322,-159 310.322,-153 316.322,-153"/>
<text text-anchor="middle" x="379" y="-237.8" font-family="Times,serif" font-size="14.00">Status</text>
<polyline fill="none" stroke="black" points="304.322,-231 453.678,-231 "/>
<text text-anchor="start" x="312.322" y="-215.8" font-family="Times,serif" font-size="14.00">id :INTEGER</text>
<text text-anchor="start" x="312.322" y="-201.8" font-family="Times,serif" font-size="14.00">created_at :datetime</text>
<text text-anchor="start" x="312.322" y="-187.8" font-family="Times,serif" font-size="14.00">updated_at :datetime</text>
<text text-anchor="start" x="312.322" y="-173.8" font-family="Times,serif" font-size="14.00">gig_id :integer</text>
<text text-anchor="start" x="312.322" y="-159.8" font-family="Times,serif" font-size="14.00">status_value_id :integer</text>
</g>
<!-- Gig&#45;&gt;Status -->
<g id="edge4" class="edge"><title>Gig&#45;&gt;Status</title>
<path fill="none" stroke="#edf44a" d="M337.608,-297.383C342.911,-285.42 348.222,-273.438 353.187,-262.236"/>
<ellipse fill="none" stroke="#edf44a" cx="335.902" cy="-301.234" rx="4.00002" ry="4.00002"/>
<polygon fill="#edf44a" stroke="#edf44a" points="353.217,-262.17 361.383,-254.851 355.243,-257.599 357.269,-253.027 357.269,-253.027 357.269,-253.027 355.243,-257.599 353.155,-251.204 353.217,-262.17 353.217,-262.17"/>
</g>
<!-- Location -->
<g id="node8" class="node"><title>Location</title>
<path fill="none" stroke="black" d="M423.495,-583C423.495,-583 532.505,-583 532.505,-583 538.505,-583 544.505,-589 544.505,-595 544.505,-595 544.505,-699 544.505,-699 544.505,-705 538.505,-711 532.505,-711 532.505,-711 423.495,-711 423.495,-711 417.495,-711 411.495,-705 411.495,-699 411.495,-699 411.495,-595 411.495,-595 411.495,-589 417.495,-583 423.495,-583"/>
<text text-anchor="middle" x="478" y="-695.8" font-family="Times,serif" font-size="14.00">Location</text>
<polyline fill="none" stroke="black" points="411.495,-689 544.505,-689 "/>
<text text-anchor="start" x="419.495" y="-673.8" font-family="Times,serif" font-size="14.00">id :INTEGER</text>
<text text-anchor="start" x="419.495" y="-659.8" font-family="Times,serif" font-size="14.00">name :varchar</text>
<text text-anchor="start" x="419.495" y="-645.8" font-family="Times,serif" font-size="14.00">address :varchar</text>
<text text-anchor="start" x="419.495" y="-631.8" font-family="Times,serif" font-size="14.00">website :varchar</text>
<text text-anchor="start" x="419.495" y="-617.8" font-family="Times,serif" font-size="14.00">festival :boolean</text>
<text text-anchor="start" x="419.495" y="-603.8" font-family="Times,serif" font-size="14.00">created_at :datetime</text>
<text text-anchor="start" x="419.495" y="-589.8" font-family="Times,serif" font-size="14.00">updated_at :datetime</text>
</g>
<!-- Location&#45;&gt;Contactlocation -->
<g id="edge7" class="edge"><title>Location&#45;&gt;Contactlocation</title>
<path fill="none" stroke="#271765" d="M498.86,-575.077C510.457,-535.647 524.717,-487.162 535.691,-449.851"/>
<ellipse fill="none" stroke="#271765" cx="497.668" cy="-579.129" rx="4.00001" ry="4.00001"/>
<polygon fill="#271765" stroke="#271765" points="535.728,-449.725 542.867,-441.401 537.139,-444.928 538.55,-440.131 538.55,-440.131 538.55,-440.131 537.139,-444.928 534.233,-438.861 535.728,-449.725 535.728,-449.725"/>
</g>
<!-- Location&#45;&gt;Gig -->
<g id="edge6" class="edge"><title>Location&#45;&gt;Gig</title>
<path fill="none" stroke="#12674f" d="M441.565,-575.659C429.77,-554.646 416.078,-531.916 402,-512 395.227,-502.418 387.835,-492.709 380.211,-483.173"/>
<ellipse fill="none" stroke="#12674f" cx="443.545" cy="-579.217" rx="4.00002" ry="4.00002"/>
<polygon fill="#12674f" stroke="#12674f" points="380.056,-482.982 377.259,-472.379 376.909,-479.097 373.762,-475.211 373.762,-475.211 373.762,-475.211 376.909,-479.097 370.265,-478.044 380.056,-482.982 380.056,-482.982"/>
</g>
<!-- StatusValue -->
<g id="node10" class="node"><title>StatusValue</title>
<path fill="none" stroke="black" d="M324.495,-1C324.495,-1 433.505,-1 433.505,-1 439.505,-1 445.505,-7 445.505,-13 445.505,-13 445.505,-89 445.505,-89 445.505,-95 439.505,-101 433.505,-101 433.505,-101 324.495,-101 324.495,-101 318.495,-101 312.495,-95 312.495,-89 312.495,-89 312.495,-13 312.495,-13 312.495,-7 318.495,-1 324.495,-1"/>
<text text-anchor="middle" x="379" y="-85.8" font-family="Times,serif" font-size="14.00">StatusValue</text>
<polyline fill="none" stroke="black" points="312.495,-79 445.505,-79 "/>
<text text-anchor="start" x="320.495" y="-63.8" font-family="Times,serif" font-size="14.00">id :INTEGER</text>
<text text-anchor="start" x="320.495" y="-49.8" font-family="Times,serif" font-size="14.00">text :varchar</text>
<text text-anchor="start" x="320.495" y="-35.8" font-family="Times,serif" font-size="14.00">created_at :datetime</text>
<text text-anchor="start" x="320.495" y="-21.8" font-family="Times,serif" font-size="14.00">updated_at :datetime</text>
<text text-anchor="start" x="320.495" y="-7.8" font-family="Times,serif" font-size="14.00">order :integer</text>
</g>
<!-- Status&#45;&gt;StatusValue -->
<g id="edge8" class="edge"><title>Status&#45;&gt;StatusValue</title>
<path fill="none" stroke="#1b2ba0" d="M379,-144.588C379,-133.083 379,-120.993 379,-109.485"/>
<ellipse fill="none" stroke="#1b2ba0" cx="379" cy="-148.884" rx="4" ry="4"/>
<ellipse fill="#1b2ba0" stroke="#1b2ba0" cx="379" cy="-105.226" rx="4" ry="4"/>
</g>
<!-- User&#45;&gt;Gig -->
<g id="edge9" class="edge"><title>User&#45;&gt;Gig</title>
<path fill="none" stroke="#a39d50" d="M294.322,-504.813C294.474,-498.37 294.624,-491.975 294.772,-485.693"/>
<ellipse fill="none" stroke="#a39d50" cx="294.226" cy="-508.9" rx="4" ry="4"/>
<polygon fill="#a39d50" stroke="#a39d50" points="294.783,-485.238 299.517,-475.346 294.9,-480.239 295.018,-475.241 295.018,-475.241 295.018,-475.241 294.9,-480.239 290.519,-475.135 294.783,-485.238 294.783,-485.238"/>
</g>
</g>
</svg>
